<svg xmlns="http://www.w3.org/2000/svg" xmlns:xlink="http://www.w3.org/1999/xlink" width="842.38" height="772.419" viewBox="0 0 842.38 772.419">
  <defs>
    <linearGradient id="linear-gradient" x1="0.877" y1="-0.457" x2="0.145" y2="1.576" gradientUnits="objectBoundingBox">
      <stop offset="0" stop-color="#ecf3fe"/>
      <stop offset="1" stop-color="#e0ebfe"/>
    </linearGradient>
    <linearGradient id="linear-gradient-2" x1="0.003" y1="1.204" x2="1.369" y2="-0.756" gradientUnits="objectBoundingBox">
      <stop offset="0" stop-color="#ea9195"/>
      <stop offset="1" stop-color="#040404"/>
    </linearGradient>
    <linearGradient id="linear-gradient-3" x1="0.154" y1="0.827" x2="0.806" y2="0.076" gradientUnits="objectBoundingBox">
      <stop offset="0" stop-color="#ea9195"/>
      <stop offset="1" stop-color="#cc3730"/>
    </linearGradient>
  </defs>
  <g id="Group_8640" data-name="Group 8640" transform="translate(-857.761 -9594.577)">
    <path id="Path_8994" data-name="Path 8994" d="M541.056,287.367s282.423-89.139,109.2-305.927,99.832-318.525-166.179-433.861S186.469-323.082,119.063-294.645-118.753-332.561-129.706-175.1,37.6-44.043-6.634,83.4s.1,203.971,70.667,203.971Z" transform="translate(987.953 10077.704)" fill="url(#linear-gradient)"/>
    <path id="Path_9009" data-name="Path 9009" d="M628.825-6591.856c10.531,2.583,6.553,25.276,6.553,25.276H361.087l7.489-25.276S618.293-6594.439,628.825-6591.856Z" transform="translate(830.28 16697.688)" fill="#2f4085"/>
    <path id="Path_8995" data-name="Path 8995" d="M-988.208,73.458s63.518,167.737-17.824,230.9S-1442.71,429.121-1442.71,429.121h391.31s136.767-53.2,157.956-144.186S-988.208,73.458-988.208,73.458Z" transform="translate(2590.997 9934.343)" fill="#ccdcf8"/>
    <path id="Path_9010" data-name="Path 9010" d="M354.761-6570.022l71.147,241.717H409.058l-71.147-241.717Z" transform="translate(1061.281 16692.512)" fill="#2f4085"/>
    <path id="Path_9011" data-name="Path 9011" d="M527.718-6570.021v244.506H514.144v-244.506Z" transform="translate(800.795 16692.512)" fill="#2f4085"/>
    <path id="Path_8996" data-name="Path 8996" d="M685.421-6570.021l-67.4,241.716H603.04l72.083-241.716Z" transform="translate(563.051 16692.512)" fill="#2f4085"/>
    <rect id="Rectangle_1412" data-name="Rectangle 1412" width="132.355" height="349.346" rx="32" transform="matrix(-0.995, -0.105, 0.105, -0.995, 1464.331, 10094.511)" fill="#2f4085"/>
    <path id="Path_8997" data-name="Path 8997" d="M0,58.044,25.627,0,81.616,24.143,50.8,89.377Z" transform="matrix(-0.875, 0.485, -0.485, -0.875, 1285.487, 10297.003)" fill="#ea9195"/>
    <path id="Path_9012" data-name="Path 9012" d="M0,131.256H54.757s16.792-5.54,27.744-18.09S98.562,81.041,98.562,81.041L74.469,0Z" transform="translate(1211.868 10135.039) rotate(-177)" fill="#402b19"/>
    <path id="Path_9042" data-name="Path 9042" d="M23.315,85.432l5.546,25.231s-12.515-3.085-10.695,11.174,10.695,10.2,10.695,10.2l9.631,19.23s55.822-7.279,60.372-4.854,3.641-12.742,3.641-12.742l.851-9.682,2.486-25.814S93.977,60.066,90.033,58.548,81.579,57.3,79.676,57.306,58,62.139,58,62.139l2.072-15.6,5.673-7.374L78.986,19.054,55.1,4.142l-11.876-2.9L28.861,0,13.809,7.456,0,36.038l4.281,7.735L19.874,77.9Z" transform="translate(1398.513 9833.558) rotate(-172)" fill="#ea9195"/>
    <path id="Path_9056" data-name="Path 9056" d="M3.846,6.212s.286-2.51.87-2.334c3.612,4.128,4.951,3.986,7.95,3.391a2.869,2.869,0,0,0,2.452-3.2c0-6.273,2.851-3.422,2.851-3.422h2.281S18.867,16.239,21.8,23.069c.557,1.31.513,3.12,1.308,3.052,4.1-.349,11.52-1.024,11.52-1.024s19.849-2.6,34.472-3.736c7.231-.564,13.271-.294,14.055,0,2.281.855,2.878-.916,2.878-.916l1.031-9.961L87.641,2.7s8.574,21.832,6.578,22.4,6.558,21.533-4.277,24.1-3.137-5.988-14.543-2S54.013,58.035,44.888,57.75s-19.39-.285-19.961-2.566-3.422-4.562-3.422-4.562-5.133,4.848-8.84,0C11.5,49.1,1.994,42.038.69,36.078-1.953,24,3.846,6.212,3.846,6.212Z" transform="translate(1400.655 9707.688) rotate(-172)"/>
    <path id="Path_8998" data-name="Path 8998" d="M31.268,125.342,0,6.58,75.239,0l27.975,88.54L36.837,154.558Z" transform="translate(1267.398 10274.502) rotate(-177)" fill="#402b19"/>
    <path id="Path_8999" data-name="Path 8999" d="M0,58.044,25.627,0,81.616,24.143,50.8,89.378Z" transform="matrix(-0.999, 0.035, -0.035, -0.999, 1171.633, 10306.216)" fill="#ea9195"/>
    <path id="Path_9015" data-name="Path 9015" d="M0,51,30.068,0,68.19,68.187Z" transform="matrix(-1, 0.017, -0.017, -1, 1453.767, 10052.957)" fill="#cb9c47"/>
    <path id="Path_9027" data-name="Path 9027" d="M0,66.245,2.239,10.126,49.21,0l1.227,108.672-31,46.823-7.6-89.042Z" transform="matrix(-1, 0.017, -0.017, -1, 1438.146, 9990.616)" fill="#cb9c47"/>
    <path id="Path_9029" data-name="Path 9029" d="M5.8,99.405s18.864,1.873,36.172,2.357a71.687,71.687,0,0,0,15.336-.964C75.7,97.206,106.62,92.01,106.62,92.01L112.052,0l50,29.017s3.611,99.781-24.327,108.9S0,131.463,0,131.463s12.157-5.953,15.893-12.252S5.8,99.405,5.8,99.405Z" transform="matrix(0.891, 0.454, -0.454, 0.891, 1172.852, 9765.526)" fill="#ea9195"/>
    <path id="Path_9014" data-name="Path 9014" d="M102.478,288.757s-19.082-.641-32.943-5S39.9,271.664,39.9,271.664s-16.3-1.709-31.34-31.5-5.691-87.717-5.691-87.717L79.5,152s4.424,8.834,5.9,29.477,5.085,48.184,5.085,48.184,5.817-49.312,8.789-88.364,4.2-34.027-1.99-62.93A438.45,438.45,0,0,0,82.5,25.95L102.478,0s28.311,21.232,43.646,25.951c7.76,2.387,34.8-5.941,50.346,11.027,14.146,15.441,22.413,35.391,22.413,35.391L200.33,172.573l-9.38,32.678L205.1,192.278l58.421,27.236s-26.98,52.829-42.219,65.045-30.357,4.2-30.357,4.2H165s7.69-21.744-30.358-22.764c-18.187-.487-26.336,4.692-30.054,10.5A17.136,17.136,0,0,0,102.478,288.757Z" transform="matrix(-1, 0.017, -0.017, -1, 1507.558, 10075.284)" fill="#f3b443"/>
    <path id="Path_9016" data-name="Path 9016" d="M3444.249-9754.343s23.2-.237,43.56-4.215,54.091-16.74,54.091-16.74l3.456-51.531,58.511-1.474s4.121,98.467-26.818,108.569-152.513-7.151-152.513-7.151,12.337-6.4,16.475-13.373A24.292,24.292,0,0,0,3444.249-9754.343Z" transform="translate(-2108.998 19751)" fill="#ea9195"/>
    <path id="Path_9000" data-name="Path 9000" d="M1.469,229.5s-12.047-47.089,32.853-64.978S181.07,157.95,181.07,157.95L244.514,0l73.948,23.975S265.03,230.957,243.858,251.4s-51.836,15.333-51.836,15.333Z" transform="translate(1414.733 10281.903) rotate(-177)" fill="#56381e"/>
    <path id="Path_9030" data-name="Path 9030" d="M2337.652-8702.878l60.824,16.006V-8704.1l-44.9.767Z" transform="translate(-903.539 18627)" fill="#b57a7d"/>
    <path id="Path_9018" data-name="Path 9018" d="M3777.128-10390.574l46.167,89.156,120.275-1.923-45.491-87.233Z" transform="translate(-2720.567 20327.135)" fill="#a1a299"/>
    <path id="Path_9019" data-name="Path 9019" d="M2611.015-8572.837l-38.707-9.58a55.9,55.9,0,0,0-9.963-3.354,18.172,18.172,0,0,0-7.472,0,27.19,27.19,0,0,0-5.556-.67,27.19,27.19,0,0,0-5.556.67s-4.551-1.868-8.239-1.437a12.714,12.714,0,0,0-6.514,3.161s-3.928,7.855-4.407,13.508-.383,16.286-.383,16.286h31.135l10.729,9.867h25.2s10.394-4.287,15.328-11.4S2611.015-8572.837,2611.015-8572.837Z" transform="translate(-1275.653 18569)" fill="#ea9195"/>
    <path id="Path_9021" data-name="Path 9021" d="M3705.427-10319.672l90.336.216a10.288,10.288,0,0,0,1.9-5.226,11.179,11.179,0,0,0-1.9-5.383l-85.423.017a12.149,12.149,0,0,1-.866,5.366A16.006,16.006,0,0,1,3705.427-10319.672Z" transform="translate(-2483.502 20343.555)" fill="#e6e8da"/>
    <path id="Path_9001" data-name="Path 9001" d="M0,36.214l64.008,3.828V27.122L65.888,0,35.814,5.347,0,13.961Z" transform="matrix(-0.914, -0.407, 0.407, -0.914, 1143.581, 10314.351)" fill="#fff"/>
    <path id="Path_9022" data-name="Path 9022" d="M3823.432-10313.57s-38.95-74.1-41.325-76-8.708-1.109-8.708-1.109l45.443,86.928s3.443-.869,4.591-3.324S3823.432-10313.57,3823.432-10313.57Z" transform="translate(-2596.198 20327.061)" fill="#e6e8da"/>
    <path id="Path_9050" data-name="Path 9050" d="M75.019,32.747s-5.646-29.2-9.035-30.4A31.807,31.807,0,0,0,55.568.031C46.9-.242,34.448,1.344,33.237,2.182c-1.872,1.3-30.4,13.127-30.4,13.127L0,62.017l3.81,1.2L14.051,31.939l52.517,3.868Z" transform="matrix(-1, -0.017, 0.017, -1, 1383.369, 9766.782)" fill="url(#linear-gradient-2)"/>
    <path id="Path_9028" data-name="Path 9028" d="M2391.912-8657.434l11.9,16.783-16.4-9.229,4.1-1.433Z" transform="translate(-958.633 18627)" fill="#b57a7d"/>
    <path id="Path_9033" data-name="Path 9033" d="M2538.638-8764.13l42.333,32.747,6.4-11.538Z" transform="translate(-1293.421 18627)" fill="#b57a7d"/>
    <path id="Path_9049" data-name="Path 9049" d="M0,32.292l28.947-16.9L31.026,0A54.469,54.469,0,0,0,14.573,11.683C6.922,19.7,0,32.292,0,32.292Z" transform="translate(1376.244 9783.263) rotate(-172)" fill="#b57a7d"/>
    <path id="Path_9057" data-name="Path 9057" d="M0,0,21.023,7.508s-1.237,3.357-3.445,3-13.515-3-15.37-5.3A11.493,11.493,0,0,1,0,0Z" transform="matrix(-0.999, 0.035, -0.035, -0.999, 1357.251, 9693.844)"/>
    <path id="Path_9063" data-name="Path 9063" d="M0,1.413,13.514,0s.265,3.533-1.5,3.533a85.933,85.933,0,0,0-8.745,1.5Z" transform="translate(1329.463 9686.89) rotate(-163)"/>
    <g id="Path_9051" data-name="Path 9051" transform="matrix(-0.996, 0.087, -0.087, -0.996, 1356.435, 9716.316)" fill="#fff" opacity="0.81">
      <path d="M 12.04142093658447 27.8239631652832 C 7.863121032714844 27.8239631652832 4.214780807495117 25.88026237487793 2.282120943069458 22.62455177307129 C 1.000000953674316 20.46495246887207 1.000000953674316 16.95458221435547 1.000000953674316 14.39142227172852 C 1.000000953674316 12.62861251831055 1.37778103351593 10.89049243927002 2.122840881347656 9.225342750549316 C 2.82935094833374 7.646342754364014 3.82892107963562 6.207272529602051 5.093770980834961 4.948112487792969 C 7.614191055297852 2.439032554626465 10.83769130706787 1.000002503395081 13.93774127960205 1.000002503395081 C 16.96129035949707 1.000002503395081 19.8139705657959 2.381912469863892 21.97028160095215 4.891162395477295 C 24.15518188476563 7.433672428131104 25.35846138000488 10.80760288238525 25.35846138000488 14.39142227172852 L 25.35870170593262 14.81758213043213 C 25.36163139343262 18.34287261962891 25.36440086364746 21.67264175415039 23.59453010559082 23.82780265808105 C 22.69005012512207 24.92923164367676 20.83977127075195 25.96266174316406 18.384521484375 26.73774337768555 C 16.26214027404785 27.40775299072266 13.8316011428833 27.8239631652832 12.04142093658447 27.8239631652832 Z" stroke="none"/>
      <path d="M 12.04142093658447 26.8239631652832 C 13.7365608215332 26.8239631652832 16.0517406463623 26.42552185058594 18.08348083496094 25.78413200378418 C 20.3231315612793 25.07711219787598 22.05014038085938 24.13275337219238 22.82172012329102 23.19316291809082 C 24.36410140991211 21.31502342224121 24.36148071289063 18.15936279296875 24.35870170593262 14.81842231750488 L 24.35846138000488 14.39142227172852 C 24.35846138000488 11.04661273956299 23.24097061157227 7.904152393341064 21.21185111999512 5.542922496795654 C 19.24852180480957 3.258232593536377 16.66519165039063 2.00000262260437 13.93774127960205 2.00000262260437 C 12.53190135955811 2.00000262260437 11.09859085083008 2.324282646179199 9.677640914916992 2.96383261680603 C 8.276750564575195 3.594362497329712 6.935630798339844 4.525572299957275 5.799281120300293 5.65681266784668 C 4.621691226959229 6.829102516174316 3.691860914230347 8.167142868041992 3.035630941390991 9.633772850036621 C 2.348440885543823 11.16959285736084 2.000000953674316 12.77029228210449 2.000000953674316 14.39142227172852 C 2.000000953674316 16.83875274658203 2.000000953674316 20.19047164916992 3.142030954360962 22.11409187316895 C 4.892721176147461 25.06326293945313 8.219600677490234 26.8239631652832 12.04142093658447 26.8239631652832 M 12.04142093658447 28.8239631652832 C 7.754150867462158 28.8239631652832 3.639991044998169 26.87100219726563 1.422220945358276 23.13501167297363 C 0.04139099642634392 20.80915260314941 9.973144869945827e-07 17.36347198486328 9.973144869945827e-07 14.39142227172852 C 9.973144869945827e-07 6.507952690124512 7.056110858917236 2.536315832912805e-06 13.93774127960205 2.536315832912805e-06 C 20.81938171386719 2.536315832912805e-06 26.35846138000488 6.507952690124512 26.35846138000488 14.39142227172852 C 26.35846138000488 18.17550277709961 26.44248008728027 21.93556213378906 24.36733055114746 24.46245193481445 C 22.07206153869629 27.25752258300781 15.61985111236572 28.8239631652832 12.04142093658447 28.8239631652832 Z" stroke="none" fill="#fff"/>
    </g>
    <path id="Path_9052" data-name="Path 9052" d="M.014,20.392s-.875,7.019,11.355,7.682,13.179-9.387,13.179-9.387a21.947,21.947,0,0,0,0-7.3C23.837,7.9,22.723,6.758,21.7,4.75A8.689,8.689,0,0,0,16.93.476,6.948,6.948,0,0,0,14.7,0Z" transform="matrix(-0.996, 0.087, -0.087, -0.996, 1325.032, 9712.125)" fill="#fff" stroke="#fff" stroke-width="2" opacity="0.8"/>
    <path id="Path_9058" data-name="Path 9058" d="M0,0A6.809,6.809,0,0,0,5.215,3.6C9.1,4.172,9.671,2.086,9.671,2.086" transform="matrix(-0.996, 0.087, -0.087, -0.996, 1332.98, 9691.908)" fill="none" stroke="#fff" stroke-width="2"/>
    <path id="Path_9059" data-name="Path 9059" d="M26.889,7.5,0,0" transform="matrix(-0.996, 0.087, -0.087, -0.996, 1381.411, 9701.933)" fill="none" stroke="#fff" stroke-width="2"/>
    <path id="Path_9060" data-name="Path 9060" d="M14.958.17,0,0" transform="matrix(-0.996, 0.087, -0.087, -0.996, 1314.244, 9694.48)" fill="none" stroke="#fff" stroke-width="2"/>
    <path id="Path_9053" data-name="Path 9053" d="M4.113,28.174,22.273,7.6s1.21-3.961-.551-4.511S5.987,0,5.987,0,2.025-.217,1.476,3.084.6,21.131.045,22.781,4.113,28.174,4.113,28.174Z" transform="translate(1332.598 9720.697) rotate(169)" fill="url(#linear-gradient-3)"/>
    <path id="Path_9054" data-name="Path 9054" d="M-1238.113-7568.912s-2.383,9.825-6.823,10.18-14.259-3.265-17.239-3.357-10.333,4.154-15.387,3.026-6.484-9.289-6.484-9.289a12.588,12.588,0,0,0,6.28,4.578c1.6.438,5.565-1.526,8.17-3.383a22.443,22.443,0,0,1,7.422-2.257s2.666.4,5.138,1.062a31.431,31.431,0,0,1,4.748,1.592c3.076,1.145,4.353,3.151,7.557,2.986S-1238.113-7568.912-1238.113-7568.912Z" transform="translate(2578.747 17292.725)"/>
    <path id="Path_9020" data-name="Path 9020" d="M-1007.991-5815.81s6.78-2.543,11.054-7.518,6.043-12.381,6.043-12.381-3.327,22.23-9.739,20.683S-1007.991-5815.81-1007.991-5815.81Z" transform="translate(2325.473 15840)" fill="#b57a7d"/>
    <path id="Path_9043" data-name="Path 9043" d="M-668.278-302.648s-201.207-42.054-231.1,75.5S-1049.432-96.053-1122.1-117.117c-20.348-5.9-35.258-3.417-47.407-2.852-30.472,1.418-36.681,12.91-29.477,5.517,10.006-10.269,86.3-19.325,117.9-13.006s75.965-9.957,96.615-36.507c12.576-16.169,44.7-70.741,85.921-109.891,26.084-24.772,62.386-44.515,89.978-49.045,28.438-4.669,67.47-.387,91.963,4.125C-680.99-312.214-668.278-302.648-668.278-302.648Z" transform="translate(2118.566 9919.712)" fill="#ccdcf8"/>
    <path id="Path_9031" data-name="Path 9031" d="M-775.991-5921.686l-19.591-12.583-31.822-21.22a19.044,19.044,0,0,0-3.472-1.167c-1.619-.324-25.742-12.3-25.742-12.3a119.614,119.614,0,0,0,12.946-17.612,79,79,0,0,0,7.292-17.844l4.425,3.547s-3.685,6.522-3.316,12.307,4.79,10.833,4.79,10.833l-10.906-1.326s-3.979,8.4-4.716,8.18c0,0,13.78,9.064,17.833,8.475s7.074-4.569,7.074-4.569,1.179,8.106,2.211,9.285,45.1,35.026,45.1,35.026l14.247,10.848Z" transform="translate(1942.845 15840)" fill="#b57a7d"/>
    <g id="Group_8624" data-name="Group 8624" transform="matrix(-1, -0.017, 0.017, -1, 1093.738, 9879.738)">
      <path id="Path_8600" data-name="Path 8600" d="M1.112,76.7S-4.618,22.519,9.935,5.02c1.4-1.683,4.579-2.829,6.638-3.763C18.372.437,24.515-.02,27.2,0c4.139.031,18.268,3.746,21.472,6.372,9.206,7.523,7.689,30.851,3.653,49.5A138,138,0,0,1,44.44,80.515L32.348,80.2Z" transform="matrix(0.921, 0.391, -0.391, 0.921, 31.46, 0)" fill="#e6e8da"/>
    </g>
    <path id="Path_9035" data-name="Path 9035" d="M-751.647-6020.8s12.6,2.446,15.385,12.143c1.123,3.9-1.626,9.729-4.857,16.837-4.82,10.6-10.328,19.084-17.162,20.724-5.164,1.241-11.361-1.828-14.918-3.971-1.191-.716-2.081-1.38-2.081-1.38" transform="translate(1837.874 15840)" fill="none" stroke="#e6e8da" stroke-width="7"/>
    <path id="Path_9036" data-name="Path 9036" d="M-765.806-5981.716s-5.138-12.167-4.659-14.753-2.2-10.155-3.736-11.784-21.555-11.975-22.8-11.208-17.052,5.652-16,8.143,2.108,4.5,3.64,5.365,13.412-1.82,13.8-1.916,1.054,3.162,1.054,3.162l2.3,4.311-15.041,30.273,34.3,13.7,12.071-7.664Z" transform="translate(1900.522 15840)" fill="#ea9195"/>
    <path id="Path_9037" data-name="Path 9037" d="M-753.248-6005.479s3.879,2.183,4.7,3.459c.408.333,1.509.47.168,3.723-1.241,2.415-2.9,3.174-3.445,3.1-.872-.125-8.22-4.234-8.22-4.234l8.22,6.974s.862,1.678-.513,4.395-3.348,2.58-3.348,2.58l-8.714-4.406,6.977,7.849a8.079,8.079,0,0,1-2.006,3.4,6.735,6.735,0,0,1-3.488,1.308l-6.148-4.709,3.314,7.151s-3.576,3.227-6.8,2.442-4.055-9.113-4.055-9.113a5.841,5.841,0,0,1,.959-3.445,8.46,8.46,0,0,1,3.358-2.224s-1.995-4.022-1.308-6.366,4.055-3.009,4.055-3.009-.807-3.516.48-5.413,4.666-2.175,4.666-2.175-.955-4.989,1.483-5.556S-753.248-6005.479-753.248-6005.479Z" transform="translate(1850.926 15840)" fill="#ea9195"/>
    <path id="Path_9044" data-name="Path 9044" d="M30.634,16.959s.083-7.681-9.672-13.024S0,.239,0,.239Z" transform="matrix(-0.985, 0.174, -0.174, -0.985, 1088.608, 9809.196)" fill="#56381e"/>
    <path id="Path_9023" data-name="Path 9023" d="M-951.882-5843.344s-6.284-4.493-8.781-.422-.89,16.346-.89,16.346l.671,1.245h-3.066s-.889-14.791,2.111-18.982c1.611-2.251,6.239-.782,8.721.484C-951.5-5843.852-951.882-5843.344-951.882-5843.344Z" transform="translate(2242.501 15840)" fill="#b57a7d"/>
    <path id="Path_9024" data-name="Path 9024" d="M-939.652-5856.358s-7.682.33-10.44,7.87c-.836,2.285-.838,5.873-.848,9.148a78.937,78.937,0,0,0,1.187,12.986l-2.441.37s-2.357-17.1.786-24.606c2.284-5.453,7.5-6.206,10.464-6.1A3.419,3.419,0,0,1-939.652-5856.358Z" transform="translate(2219.282 15840)" fill="#b57a7d"/>
    <path id="Path_9025" data-name="Path 9025" d="M-930.741-5856.7l-1.034.663a5.583,5.583,0,0,0-3.695.268c-.893.436-1.557,2.136-1.817,3.666a77.828,77.828,0,0,0-1.491,8.344c-.713,7.433-.934,17.88-.934,17.88H-941.8s.518-18.159,2.49-26.224,7.533-5.163,7.533-5.163Z" transform="translate(2199.126 15840)" fill="#b57a7d"/>
    <path id="Path_9034" data-name="Path 9034" d="M-892.748-5949.232l1.167,15.963s-9.186-12.119-11.672-13.113,7.415,2.231,7.415,2.231Z" transform="translate(2121.822 15840)" fill="#b57a7d"/>
    <path id="Path_9026" data-name="Path 9026" d="M-960.891-5825.859s-3.992-3.813-3.864-7.382-1.417,7.382-1.417,7.382Z" transform="translate(2253.651 15840)" fill="#b57a7d"/>
    <path id="Path_9002" data-name="Path 9002" d="M60.643,15s.319-.519-.451-.976c-.649-.42-3.467-.991-8.507-.444-9.595-.72-25.8-.993-35.4-3.5C.748,6.018,0,0,0,0L.2,15.173Z" transform="translate(1157.687 10280.564) rotate(-158)" fill="#b57a7d"/>
    <path id="Path_9017" data-name="Path 9017" d="M-1072.115-5817.427s68.714,7.108,73.022,10.124-75.942-7.508-75.942-7.508Z" transform="translate(2400.549 15840)" fill="#b57a7d"/>
    <path id="Path_9003" data-name="Path 9003" d="M0,5.248S61.123-1.365,98.363.256s50.6,11.468,50.6,11.468" transform="translate(1155.746 10303.649) rotate(-159)" fill="none"/>
    <g id="Path_9045" data-name="Path 9045" transform="matrix(-0.899, -0.438, 0.438, -0.899, 1088.884, 9820.029)" fill="none">
      <path d="M23.08,15.086C46.458,16.709,46,14.551,46,12.342S38.871,0,26.168,0,0,10.133,0,12.342-.3,13.463,23.08,15.086Z" stroke="none"/>
      <path d="M 36.28936767578125 13.65315818786621 C 38.94065093994141 13.65315818786621 40.99134826660156 13.53207778930664 42.38449096679688 13.293288230896 C 43.39560317993164 13.11998176574707 43.83248138427734 12.92553329467773 43.99652862548828 12.83146476745605 C 44.00153732299805 12.72941303253174 44.00098419189453 12.58818626403809 44.00053787231445 12.47540760040283 C 44.00045776367188 12.45398235321045 44.00037384033203 12.43255043029785 44.00031280517578 12.41110801696777 C 43.94797897338867 12.1923303604126 43.6476936340332 11.43630599975586 42.7999382019043 10.27707767486572 C 42.14646911621094 9.383518218994141 41.00064086914063 8.024067878723145 39.25294876098633 6.622107982635498 C 36.62437057495117 4.5135178565979 32.22055816650391 1.999997973442078 26.1682186126709 1.999997973442078 C 19.65622901916504 1.999997973442078 13.31144905090332 4.906097888946533 10.10898971557617 6.638398170471191 C 7.979739189147949 7.790167808532715 5.926339149475098 9.126618385314941 4.327049255371094 10.40156841278076 C 3.549945831298828 11.021071434021 2.999433040618896 11.52943992614746 2.622345685958862 11.91726398468018 C 3.64866042137146 11.99832630157471 5.168507099151611 12.06989002227783 6.993459224700928 12.15581798553467 C 10.40047931671143 12.31622791290283 15.54919910430908 12.5586576461792 23.21880912780762 13.09108829498291 C 28.66621017456055 13.46924781799316 32.94118881225586 13.65310764312744 36.288818359375 13.65315818786621 L 36.28936767578125 13.65315818786621 M 36.28800201416016 15.65315628051758 C 33.06929016113281 15.65310764312744 28.78335952758789 15.48219966888428 23.08029937744141 15.08628845214844 C -0.2969706356525421 13.46341800689697 0.0001793774426914752 14.55142784118652 0.0001793774426914752 12.34228801727295 C 0.0001793774426914752 10.13314819335938 13.46567916870117 -1.98181146515708e-06 26.1682186126709 -1.98181146515708e-06 C 38.87071990966797 -1.98181146515708e-06 46.00019836425781 10.13314819335938 46.00019836425781 12.34228801727295 C 46.00019836425781 14.01249217987061 46.26302719116211 15.65330982208252 36.28800201416016 15.65315628051758 Z" stroke="none" fill="#bcb4a1"/>
    </g>
    <path id="Path_9038" data-name="Path 9038" d="M0,.25S18.28,7.209,24.1,19.831c4.045,8.772-.155,20.8-2.59,28.333C20.575,51.057,18.757,58.2,18.757,58.2S33.625,33.3,33.242,24.966s-.958-7.855-5.556-13.125c-2.354-2.7-9.14-7-16.286-10.059A20.1,20.1,0,0,0,0,.25Z" transform="translate(1049.075 9871.244) rotate(-177)" fill="#bcb4a1"/>
    <path id="Path_9046" data-name="Path 9046" d="M-2034.188-3555.342s-2.854,6.959-2.854,7.186l1.241-.537,4.957-5.289Z" transform="translate(3124.473 13372)" fill="#bcb4a1"/>
    <path id="Path_9039" data-name="Path 9039" d="M-2007.871-3508.706l-4.971,5.32,1.744,1,4.884-5.276Z" transform="translate(3073.645 13370)" fill="#bcb4a1"/>
    <path id="Path_9004" data-name="Path 9004" d="M0,35.463l62.672,3.828V26.37L64.008,1.046,34.042,0,0,13.21Z" transform="matrix(-0.998, 0.07, -0.07, -0.998, 1264.027, 10316.814)" fill="#fff"/>
    <path id="Path_9005" data-name="Path 9005" d="M60.643,15s.318-.52-.451-.977c-.649-.419-3.467-.991-8.507-.443-9.594-.721-25.8-.994-35.4-3.5C.748,6.018,0,0,0,0L.773,15Z" transform="matrix(-0.999, 0.035, -0.035, -0.999, 1262.375, 10282.988)" fill="#b57a7d"/>
    <g id="Group_8619" data-name="Group 8619" transform="matrix(-0.999, 0.035, -0.035, -0.999, 1276.484, 10355.229)">
      <path id="Path_8619" data-name="Path 8619" d="M170.161,12.881S167.283,6.9,150.33,3.543,105.134-.379,100.868.2,53.943,1.236,27.886,1,2.637,7.232,2.637,7.232,0,11.564,0,15.192a11.026,11.026,0,0,0,2.637,6.549,10.512,10.512,0,0,0-.453,3.547,3.425,3.425,0,0,0,1.228,2.184,83.691,83.691,0,0,0-.774,11.6,28.185,28.185,0,0,0,1.389,8.255S4.434,52.459,6.14,54.9a5.543,5.543,0,0,0,4.707,2.184s14.668-13.168,29.881-14.6A92.5,92.5,0,0,1,69.45,44.6l3.206,4.5s-2.047,5.441-1.5,9.756a14.6,14.6,0,0,0,3.684,7.5l5.185-2.388s30.874-17.2,55.086-20.306,28.077-8.007,28.077-8.007,4.913-2.5,6.973-4.791a4.467,4.467,0,0,0,1.268-4.381s-1.383-4.267-1.268-5.073S170.161,12.881,170.161,12.881Z" transform="translate(0 0)" fill="#2550b9"/>
      <path id="Path_8620" data-name="Path 8620" d="M0,5.829S67.9-1.516,109.266.284s56.207,12.739,56.207,12.739" transform="translate(3.374 18.329)" fill="#2550b9"/>
    </g>
    <path id="Path_9006" data-name="Path 9006" d="M2.1,25.674S73.324,17.6,115.021,19.228,169.532,31.4,169.532,31.4s2.69-2.548,2.124-4.53-1.072-14.122-1.072-14.122a20.631,20.631,0,0,0-8.228-5.943c-4.888-2.125-13.2-3.484-22.415-5C120.932-1.3,94.633.54,94.633.54S49.679-.628,27.1.54,4.3,5.213,4.3,5.213A5.567,5.567,0,0,0,2.574,7.191a22.8,22.8,0,0,0-2.54,7.765,8.969,8.969,0,0,0,2.71,6.963Z" transform="matrix(-0.999, 0.035, -0.035, -0.999, 1276.706, 10355.479)" fill="#e6e8da"/>
    <path id="Path_9007" data-name="Path 9007" d="M170.161,12.882S167.283,6.9,150.331,3.543,105.135-.379,100.869.2,53.943,1.237,27.886,1,2.637,7.232,2.637,7.232,0,11.565,0,15.193a11.026,11.026,0,0,0,2.637,6.549,10.51,10.51,0,0,0-.453,3.547,3.424,3.424,0,0,0,1.228,2.185,83.7,83.7,0,0,0-.774,11.6,28.182,28.182,0,0,0,1.389,8.255S4.434,52.459,6.14,54.9a5.544,5.544,0,0,0,4.707,2.185s14.668-13.169,29.881-14.6A92.49,92.49,0,0,1,69.451,44.6l3.206,4.5s-2.047,5.441-1.5,9.755A14.6,14.6,0,0,0,74.84,66.36l5.185-2.388s30.874-17.2,55.086-20.305,28.077-8.007,28.077-8.007,4.913-2.5,6.973-4.79a4.467,4.467,0,0,0,1.268-4.381s-1.383-4.267-1.268-5.073S170.161,12.882,170.161,12.882Z" transform="translate(1144.198 10349.504) rotate(-161)" fill="#2550b9"/>
    <path id="Path_9008" data-name="Path 9008" d="M2.584,24.891S73.165,17.6,114.862,19.228s55.06,12.278,55.06,12.278,2.141-2.649,1.575-4.631-.977-16.9-.977-16.9-11.731-5.041-30.739-8.156S94.474.54,94.474.54,49.52-.628,26.937.54s-22.8,4.673-22.8,4.673S.425,10.946.036,15.123a8.593,8.593,0,0,0,2.549,6.8Z" transform="translate(1143.861 10349.82) rotate(-161)" fill="#e6e8da"/>
    <path id="Path_9032" data-name="Path 9032" d="M3822.618-10388.793l6.522-4.625,112.4.127,9,4.5Z" transform="translate(-2766.058 20325.354)" fill="#e6e8da"/>
  </g>
</svg>
