<?xml version="1.0" standalone="no"?>
<!DOCTYPE svg PUBLIC "-//W3C//DTD SVG 20010904//EN"
 "http://www.w3.org/TR/2001/REC-SVG-20010904/DTD/svg10.dtd">
<svg version="1.0" xmlns="http://www.w3.org/2000/svg"
 width="576.000000pt" height="1024.000000pt" viewBox="0 0 576.000000 1024.000000"
 preserveAspectRatio="xMidYMid meet">
<metadata>
Created by potrace 1.15, written by Peter Selinger 2001-2017
</metadata>
<g transform="translate(0.000000,1024.000000) scale(0.100000,-0.100000)"
fill="#000000" stroke="none">
<path d="M4620 9988 c1 -139 7 -271 12 -293 7 -25 10 -295 9 -740 -1 -385 -2
-706 -3 -712 -2 -20 -36 -15 -48 6 -5 11 -15 43 -21 73 -9 41 -20 61 -50 88
-22 20 -39 39 -39 42 0 18 -67 100 -95 117 -18 10 -46 43 -63 74 -36 64 -197
240 -255 279 -23 15 -62 34 -89 43 -30 10 -61 30 -82 53 -42 46 -117 84 -220
112 -43 11 -91 27 -107 35 -15 8 -34 15 -42 15 -8 0 -41 13 -73 30 -50 25 -66
29 -106 24 -30 -4 -59 -2 -79 6 -16 7 -67 14 -112 15 -103 3 -174 16 -209 39
-27 18 -30 18 -228 12 -30 0 -64 2 -76 7 -15 5 -33 -1 -65 -23 -24 -17 -69
-37 -99 -46 -30 -9 -66 -25 -79 -35 -14 -11 -32 -17 -45 -13 -14 3 -44 -9 -86
-35 -36 -21 -86 -44 -110 -51 -25 -7 -65 -29 -90 -49 -41 -33 -113 -70 -196
-101 -17 -6 -62 -42 -100 -80 -38 -38 -75 -70 -81 -70 -7 0 -28 -23 -46 -50
-53 -79 -123 -148 -158 -155 -37 -8 -55 -44 -68 -138 -10 -71 -26 -107 -66
-152 -52 -59 -85 -127 -79 -162 4 -22 1 -37 -9 -48 -9 -8 -19 -37 -22 -63 -3
-26 -14 -74 -25 -107 -10 -33 -21 -78 -25 -100 -3 -22 -12 -60 -19 -85 -38
-128 -50 -354 -35 -665 8 -166 24 -235 79 -336 11 -20 20 -48 20 -61 0 -21 10
-44 47 -113 37 -68 39 -82 28 -160 -6 -40 10 -121 38 -199 l15 -40 17 34 c13
26 16 49 12 99 -3 41 0 81 9 110 8 25 14 78 14 116 1 39 8 104 17 145 8 41 14
105 14 141 -1 36 7 112 19 170 11 57 25 130 32 162 6 31 11 78 12 105 l1 47
37 -3 c33 -2 38 0 44 22 3 13 13 27 21 30 11 5 13 16 9 44 -3 20 -7 59 -8 85
-1 34 -7 51 -19 58 -13 7 -18 22 -18 61 0 29 -6 85 -14 123 -20 99 -6 245 24
245 5 0 9 8 9 18 0 19 53 82 69 82 13 0 91 76 91 89 0 6 11 13 24 17 14 3 32
16 40 29 9 13 26 27 38 30 13 4 48 26 78 49 56 43 102 70 175 102 22 10 42 21
45 24 3 3 43 25 90 48 59 28 108 44 160 52 68 10 85 8 175 -14 55 -14 123 -27
150 -30 169 -17 238 -28 300 -46 115 -34 148 -36 191 -9 35 21 46 23 173 20
93 -2 145 -7 165 -17 16 -8 42 -14 58 -14 56 0 124 -24 193 -69 77 -49 154
-126 155 -153 0 -10 5 -18 10 -18 6 0 10 -5 10 -11 0 -16 31 -81 47 -100 8 -9
13 -20 11 -25 -1 -5 5 -18 15 -30 13 -14 27 -19 48 -16 29 4 37 16 19 27 -15
9 -12 25 5 25 19 0 49 -28 58 -53 4 -9 17 -21 31 -27 22 -8 24 -13 19 -52 -3
-24 -10 -48 -14 -54 -6 -7 0 -20 14 -35 13 -13 27 -42 31 -64 10 -51 10 -59
-1 -122 -6 -29 -6 -58 -2 -65 12 -18 11 -71 0 -102 -6 -13 -7 -41 -4 -60 4
-29 10 -36 28 -36 12 0 30 -9 41 -21 18 -20 18 -21 -1 -35 -17 -13 -18 -16 -5
-24 12 -7 8 -12 -17 -21 -23 -7 -33 -17 -33 -31 0 -20 34 -58 52 -58 11 0 10
-37 -2 -45 -5 -3 -10 -2 -10 3 0 5 -18 17 -40 27 -22 10 -40 22 -40 26 0 5
-20 20 -45 35 -39 23 -52 25 -98 19 -63 -8 -417 -7 -469 2 -26 4 -45 1 -62
-10 -18 -12 -37 -15 -73 -11 -59 8 -77 -9 -97 -87 -13 -56 -14 -189 -1 -224 5
-11 14 -35 22 -54 8 -20 10 -38 5 -43 -5 -5 -36 -13 -68 -18 -87 -12 -96 -17
-81 -43 7 -12 15 -24 18 -27 3 -3 11 -20 17 -38 6 -18 21 -47 33 -64 18 -25
20 -34 11 -49 -15 -24 -15 -144 -1 -172 6 -12 19 -31 29 -42 10 -11 23 -44 30
-73 6 -28 16 -55 21 -58 13 -7 11 -55 -3 -109 -14 -54 -4 -80 33 -80 18 0 25
-8 33 -35 15 -53 57 -79 70 -44 4 9 1 23 -5 31 -10 11 -9 17 2 28 15 15 59 10
59 -6 0 -5 18 -9 40 -9 22 0 40 5 40 10 0 6 -4 10 -8 10 -27 0 -172 171 -172
202 0 6 -11 30 -24 52 -21 37 -24 51 -22 145 2 110 15 139 35 79 10 -29 20
-37 84 -61 74 -28 112 -34 121 -18 3 5 33 9 67 10 34 0 68 6 77 13 9 8 48 14
101 14 47 1 98 4 113 7 27 5 98 43 108 58 3 4 23 14 45 23 33 13 40 21 41 45
2 60 8 64 77 58 88 -9 113 -38 122 -141 9 -96 2 -255 -11 -264 -6 -4 -16 -28
-24 -54 -7 -27 -17 -48 -21 -48 -12 0 -69 -92 -63 -102 3 -4 20 -8 39 -8 32 0
34 3 42 42 7 34 14 43 36 49 15 4 27 4 27 -1 0 -22 -40 -98 -55 -104 -11 -4
-15 -12 -11 -23 4 -9 -1 -23 -11 -33 -10 -10 -27 -29 -37 -44 -11 -16 -28 -26
-43 -26 -32 0 -63 -17 -63 -34 0 -8 14 -19 30 -25 29 -10 30 -12 24 -53 -4
-24 -10 -45 -14 -48 -10 -7 -50 -100 -50 -115 0 -6 -9 -20 -20 -30 -11 -10
-20 -29 -20 -42 0 -12 -4 -23 -10 -23 -5 0 -10 -8 -10 -18 0 -10 -5 -23 -11
-29 -10 -10 -13 -21 -18 -72 -2 -20 -119 -5 -146 18 -11 9 -35 18 -54 20 -62
5 -251 90 -281 126 -7 8 -18 15 -26 15 -22 0 -44 41 -34 61 17 31 11 112 -10
144 -11 17 -20 39 -20 50 -1 17 -5 15 -29 -13 -24 -28 -35 -33 -62 -30 -25 2
-37 10 -49 33 -8 17 -21 34 -27 38 -7 4 -13 15 -13 22 0 8 -9 15 -20 15 -25 0
-90 -41 -90 -56 0 -6 -9 -19 -21 -30 -12 -10 -30 -36 -40 -57 -21 -40 -71 -77
-104 -77 -11 0 -43 24 -73 56 -29 31 -65 62 -80 70 -32 16 -128 19 -138 3 -3
-6 -26 -19 -50 -29 -58 -25 -68 -59 -30 -99 l27 -28 -48 -23 c-26 -12 -59 -31
-72 -41 -13 -11 -32 -19 -43 -19 -11 0 -38 -11 -61 -24 -23 -13 -76 -34 -117
-46 -41 -12 -91 -29 -110 -37 -19 -9 -57 -17 -85 -19 -38 -2 -54 -9 -67 -26
-10 -13 -27 -33 -38 -45 -11 -12 -20 -26 -20 -30 0 -5 -9 -14 -20 -21 -29 -18
-25 -31 16 -48 20 -8 38 -23 41 -33 6 -22 60 -49 116 -57 57 -8 137 -31 152
-44 15 -12 205 -32 285 -30 121 3 219 8 287 15 56 6 83 4 115 -8 51 -18 157
-27 219 -18 75 12 172 -30 162 -70 -3 -11 -1 -19 4 -17 19 6 83 -61 83 -87 0
-14 5 -25 10 -25 6 0 10 5 10 10 0 6 7 10 16 10 9 0 18 9 21 20 3 11 11 20 18
20 8 0 11 8 8 20 -3 11 -1 20 4 20 18 0 21 -11 13 -46 -4 -18 -4 -34 1 -34 17
0 59 24 59 34 1 6 21 24 45 39 25 16 45 34 45 41 0 26 82 46 125 30 17 -7 45
-65 45 -94 0 -9 -8 -28 -19 -41 -10 -13 -28 -58 -41 -99 -12 -41 -26 -79 -31
-85 -5 -5 -9 -21 -9 -36 0 -15 -6 -29 -14 -32 -30 -12 -68 -76 -73 -124 -7
-75 -7 -86 0 -118 6 -24 2 -39 -20 -73 -15 -23 -33 -42 -40 -42 -7 0 -13 -4
-13 -10 0 -5 -6 -10 -12 -10 -12 -1 -68 -82 -68 -99 0 -5 -35 -20 -77 -35 -43
-15 -91 -33 -108 -40 -65 -31 -101 -45 -130 -50 -28 -5 -165 6 -246 20 -26 4
-44 0 -70 -15 -42 -26 -50 -26 -100 -2 -30 15 -60 19 -129 19 -72 -1 -94 3
-116 18 -15 10 -45 29 -67 42 -22 12 -66 48 -98 80 -86 85 -164 152 -178 152
-7 0 -9 5 -6 10 3 6 -4 10 -16 10 -29 0 -72 46 -64 70 4 13 0 20 -15 25 -11 3
-20 13 -20 21 0 12 -10 14 -42 11 -46 -4 -88 9 -88 28 0 33 -119 113 -128 86
-6 -19 -52 -12 -76 12 -13 13 -27 38 -30 54 -10 45 -39 67 -79 60 -31 -5 -35
-2 -46 28 -6 18 -18 35 -25 38 -8 3 -22 29 -31 57 -9 28 -24 54 -34 58 -9 3
-22 13 -29 21 -12 14 -13 14 -9 0 3 -8 -1 -26 -9 -40 -25 -44 -17 -154 17
-254 17 -50 32 -99 34 -110 5 -35 16 -54 36 -60 11 -4 22 -19 26 -36 3 -16 12
-34 19 -40 8 -6 14 -18 14 -25 0 -8 6 -14 13 -14 8 0 41 -17 73 -39 33 -21 64
-40 70 -42 28 -11 134 -83 134 -90 0 -5 6 -9 14 -9 7 0 24 -9 37 -19 34 -27
84 -56 158 -92 35 -18 78 -45 94 -61 17 -15 34 -28 38 -28 9 0 85 -50 147 -97
24 -18 49 -33 56 -33 7 0 29 -16 49 -35 20 -19 38 -35 42 -35 3 0 14 -8 24
-18 10 -9 35 -30 55 -47 20 -16 48 -40 62 -52 13 -13 29 -23 34 -23 5 0 14 -8
19 -18 5 -10 21 -24 35 -31 14 -8 28 -22 31 -31 3 -10 23 -25 44 -35 25 -11
42 -26 45 -42 4 -13 17 -28 31 -33 13 -5 29 -18 35 -30 6 -11 15 -20 20 -20
12 0 45 -26 82 -65 19 -20 27 -37 24 -50 -7 -28 2 -38 54 -63 36 -17 40 -21
21 -22 -30 0 -19 -14 12 -15 13 0 23 -7 25 -19 2 -10 17 -39 33 -64 32 -51 34
-59 19 -97 -9 -23 -13 -25 -26 -14 -13 10 -20 8 -46 -18 -27 -27 -29 -32 -17
-52 8 -11 17 -21 22 -21 11 0 63 52 60 61 -1 3 22 9 52 12 63 6 143 48 193
100 53 54 88 169 91 297 2 84 6 110 21 131 10 14 28 64 40 110 31 118 51 179
58 179 4 0 20 -31 37 -68 27 -60 30 -80 33 -187 3 -112 1 -126 -27 -210 -17
-50 -40 -113 -53 -140 -19 -43 -23 -67 -23 -167 l0 -118 37 -30 c42 -35 168
-183 168 -198 0 -5 7 -12 15 -16 8 -3 15 -14 15 -24 0 -11 7 -25 16 -33 9 -8
13 -21 10 -35 -4 -13 -2 -25 3 -28 4 -3 6 -17 4 -31 -4 -17 0 -27 11 -31 9 -3
16 -12 16 -18 0 -7 29 -36 65 -66 58 -48 88 -68 195 -126 19 -10 37 -22 40
-25 3 -3 25 -16 50 -28 25 -12 64 -39 86 -59 23 -20 56 -48 74 -62 40 -32 149
-165 162 -199 5 -14 15 -33 23 -41 7 -8 25 -40 41 -70 15 -30 50 -88 76 -128
26 -41 48 -77 48 -81 0 -5 11 -25 25 -45 13 -20 36 -80 51 -133 21 -79 26
-115 24 -188 -5 -149 -2 -187 16 -231 8 -19 14 -54 14 -80 0 -43 29 -102 43
-88 8 8 67 -38 61 -47 -2 -4 0 -10 6 -14 5 -3 10 -12 10 -20 0 -11 -7 -11 -36
-3 -47 13 -86 -3 -101 -42 -11 -28 4 -112 37 -216 6 -17 10 -47 10 -67 0 -21
4 -45 9 -55 17 -30 45 -251 44 -339 l0 -43 294 0 294 0 -3 408 c-3 399 -3 408
-25 452 -13 25 -27 65 -32 90 -4 25 -20 90 -35 145 -24 92 -44 213 -51 310 -2
22 -6 47 -9 56 -8 18 35 69 59 69 8 0 15 6 15 13 0 7 18 23 40 37 l40 25 0
4317 0 4318 -571 0 -570 0 1 -252z m-805 -3140 c-4 -18 -16 -42 -27 -52 -11
-10 -27 -34 -35 -53 -7 -19 -28 -42 -45 -51 -17 -9 -40 -25 -50 -35 -45 -43
-132 -28 -143 25 -5 19 -2 35 8 46 8 9 22 33 32 52 9 19 31 50 48 68 31 32 32
32 125 32 l94 0 -7 -32z m851 -1815 c15 -1507 18 -1734 25 -1896 1 -26 0 -50
-4 -53 -26 -27 -136 20 -164 69 -18 33 -16 52 17 127 34 78 36 104 15 210 -8
41 -22 115 -31 164 -10 48 -22 93 -28 100 -57 59 -66 78 -66 133 0 31 5 95 11
142 16 113 7 170 -32 210 -38 40 -56 47 -147 56 -63 6 -75 10 -84 30 -9 21 -6
27 28 57 94 81 214 221 214 250 0 6 12 29 26 49 15 22 29 60 33 91 4 29 15 67
24 85 9 18 17 47 17 66 0 43 20 149 30 162 10 12 30 118 30 158 0 38 61 160
73 148 5 -5 11 -166 13 -358z m-1329 342 c35 -10 53 -22 61 -40 6 -14 18 -25
27 -25 10 0 15 -10 15 -32 0 -29 -1 -30 -13 -14 -11 15 -17 17 -35 7 -12 -6
-34 -11 -49 -11 -32 1 -177 -25 -192 -34 -6 -4 -38 -1 -73 5 -35 7 -83 13
-108 14 -115 5 -110 3 -110 30 0 18 9 29 38 44 21 11 44 27 51 35 16 19 142
23 187 6 19 -8 30 -7 41 2 9 7 36 15 62 19 25 3 46 7 47 8 0 0 23 -6 51 -14z"/>
<path d="M2148 7271 c-58 -7 -91 -16 -135 -41 -140 -78 -206 -151 -238 -263
-21 -72 -12 -82 77 -92 60 -6 67 -5 87 16 25 27 26 42 7 62 -12 12 -9 15 20
26 19 7 34 16 34 21 0 14 36 31 88 40 26 5 74 15 107 24 86 22 172 21 212 -3
17 -11 51 -26 75 -32 39 -12 40 -13 16 -17 -41 -5 -48 -40 -12 -68 15 -13 26
-24 24 -26 -3 -2 -17 -10 -32 -18 -14 -8 -43 -28 -63 -45 -49 -38 -126 -41
-197 -8 -45 22 -48 22 -95 6 -69 -23 -78 -28 -82 -49 -1 -10 -16 -32 -32 -48
-16 -15 -29 -33 -29 -40 0 -6 18 -28 40 -49 23 -21 45 -49 50 -63 9 -23 27
-29 73 -26 9 1 17 -3 17 -8 0 -6 8 -10 18 -10 11 0 27 -9 37 -20 10 -11 22
-20 28 -20 5 0 7 9 4 20 -3 11 -1 20 4 20 5 0 4 9 -3 20 -8 12 -24 20 -40 20
-46 0 -43 20 4 21 60 1 77 5 97 24 13 11 25 13 42 7 13 -5 49 -12 79 -16 76
-9 85 -17 61 -45 -11 -13 -27 -21 -34 -18 -8 3 -18 2 -23 -1 -15 -11 -33 -49
-27 -56 13 -13 43 -5 56 15 12 16 19 19 34 11 23 -12 58 1 73 27 6 13 21 21
36 21 19 0 25 4 20 15 -4 11 1 15 17 15 12 1 39 9 60 19 29 13 49 16 84 11 46
-7 63 -21 63 -52 0 -9 4 -19 9 -22 11 -7 -1 -63 -19 -92 -10 -17 -9 -27 9 -62
12 -23 25 -42 30 -42 19 0 40 96 40 179 0 64 5 92 21 122 24 47 25 62 5 79 -8
7 -15 22 -15 34 0 14 -13 28 -40 44 -33 18 -40 28 -40 52 0 25 -7 33 -35 47
-19 9 -35 20 -35 25 0 4 -11 8 -25 8 -14 0 -25 4 -25 9 0 5 -3 17 -6 25 -5 12
4 21 32 32 22 9 50 17 64 18 33 1 58 66 42 108 -14 35 -85 76 -153 88 -106 19
-455 32 -561 21z"/>
<path d="M1607 6822 c-9 -10 -20 -33 -23 -51 -4 -21 -14 -36 -26 -38 -22 -6
-22 -13 -4 -58 14 -32 19 -35 55 -35 37 0 41 3 41 24 0 14 -9 31 -20 39 -20
14 -18 15 25 26 29 7 45 17 45 27 0 20 -28 74 -39 74 -5 0 -16 2 -23 5 -8 3
-22 -3 -31 -13z"/>
<path d="M1107 6536 c-22 -20 -25 -29 -18 -54 5 -16 5 -35 1 -42 -12 -19 -1
-40 20 -40 9 0 44 16 77 36 53 31 59 38 55 61 -5 27 -55 63 -88 63 -12 0 -33
-11 -47 -24z"/>
<path d="M1077 4284 c-28 -15 -90 -69 -150 -130 -56 -58 -124 -121 -151 -142
l-49 -36 -167 3 c-152 2 -173 1 -221 -19 -126 -50 -165 -75 -251 -163 l-88
-88 0 -1855 0 -1854 1076 0 1076 0 -7 63 c-4 34 -13 89 -20 122 -7 33 -19 107
-25 165 -6 58 -17 129 -26 157 -8 29 -21 99 -29 157 -8 57 -19 115 -24 129 -5
14 -15 63 -21 108 -6 46 -17 97 -24 114 -8 17 -19 71 -26 121 -7 49 -19 109
-27 134 -15 42 -26 89 -73 305 -11 49 -24 101 -30 116 -6 14 -19 63 -30 110
-34 152 -57 244 -73 295 -9 27 -21 74 -27 104 -5 30 -16 71 -24 90 -20 49 -55
156 -70 215 -7 28 -23 70 -34 95 -34 74 -59 143 -67 180 -4 19 -14 49 -23 65
-9 17 -23 57 -33 90 -10 33 -32 98 -49 145 -17 47 -37 110 -46 140 -8 30 -21
69 -29 85 -7 17 -17 44 -20 60 -13 55 -75 248 -83 259 -5 6 -15 40 -22 76 -7
36 -19 77 -27 93 -7 15 -18 51 -23 80 -6 28 -18 68 -27 87 -10 23 -17 63 -17
115 -1 78 0 82 42 147 23 37 42 72 42 78 0 18 -53 9 -103 -16z"/>
<path d="M3185 2803 c-11 -3 -31 -13 -45 -22 -29 -19 -220 -113 -268 -131 -32
-13 -84 -70 -62 -70 6 0 43 -33 83 -73 242 -247 242 -247 228 -339 -5 -35 -13
-103 -16 -153 -4 -49 -13 -124 -22 -165 -19 -91 -21 -487 -4 -565 6 -27 20
-104 31 -170 29 -181 78 -443 84 -453 3 -5 12 -67 21 -138 8 -71 19 -145 25
-164 5 -19 17 -91 25 -160 9 -69 20 -142 26 -162 l10 -38 370 0 c343 0 371 1
365 17 -4 9 -11 51 -17 92 -6 42 -17 99 -24 126 -8 28 -19 91 -25 141 -5 51
-17 111 -25 134 -8 23 -20 83 -26 134 -6 50 -17 114 -25 141 -8 28 -19 84 -25
125 -6 41 -17 90 -25 108 -7 19 -18 71 -24 116 -5 45 -19 107 -30 139 -11 31
-20 65 -20 75 0 10 -11 51 -25 90 -14 39 -25 79 -25 88 0 15 -40 115 -80 200
-11 23 -20 45 -20 50 0 5 -9 27 -21 48 -11 21 -27 80 -34 131 -10 64 -24 112
-46 155 -30 59 -31 65 -21 119 6 31 14 109 17 173 5 112 16 170 32 167 56 -9
71 18 42 75 -30 58 -85 104 -144 120 -120 32 -228 48 -260 39z"/>
</g>
</svg>
