<svg xmlns="http://www.w3.org/2000/svg" xmlns:xlink="http://www.w3.org/1999/xlink" width="1920" height="1063" viewBox="0 0 1920 1063">
  <defs>
    <linearGradient id="linear-gradient" x1="0.436" y1="-0.058" x2="0.386" y2="1.019" gradientUnits="objectBoundingBox">
      <stop offset="0" stop-color="#57a0ff"/>
      <stop offset="1" stop-color="#6f7cff"/>
    </linearGradient>
    <linearGradient id="linear-gradient-2" x1="0.5" y1="0.622" x2="0.506" y2="0.936" gradientUnits="objectBoundingBox">
      <stop offset="0" stop-color="#86c5fb"/>
      <stop offset="1" stop-color="#3e90fa"/>
    </linearGradient>
    <linearGradient id="linear-gradient-3" x1="0.503" y1="0.212" x2="0.503" y2="0.655" gradientUnits="objectBoundingBox">
      <stop offset="0" stop-color="#57a0ff"/>
      <stop offset="1" stop-color="#7772ff"/>
    </linearGradient>
    <linearGradient id="linear-gradient-4" x1="0.558" y1="0.34" x2="-0.062" y2="0.056" gradientUnits="objectBoundingBox">
      <stop offset="0" stop-color="#ffb925"/>
      <stop offset="1" stop-color="#fff"/>
    </linearGradient>
    <linearGradient id="linear-gradient-5" x1="0.288" y1="0.57" x2="-0.401" y2="-0.24" gradientUnits="objectBoundingBox">
      <stop offset="0" stop-color="#ffd250"/>
      <stop offset="1" stop-color="#fff"/>
    </linearGradient>
    <linearGradient id="linear-gradient-6" x1="0.713" y1="0.612" x2="2.506" y2="0.047" gradientUnits="objectBoundingBox">
      <stop offset="0" stop-color="#f3c297"/>
      <stop offset="1" stop-color="#fff"/>
    </linearGradient>
    <linearGradient id="linear-gradient-7" x1="0.414" y1="0.636" x2="1.209" y2="0.618" gradientUnits="objectBoundingBox">
      <stop offset="0" stop-color="#e5b48b"/>
      <stop offset="1" stop-color="#f3c297"/>
    </linearGradient>
    <linearGradient id="linear-gradient-8" x1="0.5" x2="-0.024" y2="1.34" gradientUnits="objectBoundingBox">
      <stop offset="0" stop-color="#333"/>
      <stop offset="1" stop-color="#3e3e3e"/>
    </linearGradient>
    <linearGradient id="linear-gradient-9" x1="0.5" x2="0.478" y2="1.28" gradientUnits="objectBoundingBox">
      <stop offset="0" stop-color="#ffd250"/>
      <stop offset="1" stop-color="#ffb925"/>
    </linearGradient>
    <linearGradient id="linear-gradient-10" x1="0.394" y1="0.056" x2="0.412" y2="1.009" gradientUnits="objectBoundingBox">
      <stop offset="0" stop-color="#ff9589"/>
      <stop offset="1" stop-color="#ff5559"/>
    </linearGradient>
    <linearGradient id="linear-gradient-13" x1="0.5" y1="0.73" x2="0.5" y2="-0.435" gradientUnits="objectBoundingBox">
      <stop offset="0" stop-color="#ff6d6b"/>
      <stop offset="1" stop-color="#ffd250"/>
    </linearGradient>
    <filter id="Rectangle_2" x="305" y="689" width="226.385" height="79.453" filterUnits="userSpaceOnUse">
      <feOffset dx="10" dy="10" input="SourceAlpha"/>
      <feGaussianBlur stdDeviation="1.5" result="blur"/>
      <feFlood flood-opacity="0.161"/>
      <feComposite operator="in" in2="blur"/>
      <feComposite in="SourceGraphic"/>
    </filter>
    <linearGradient id="linear-gradient-14" x1="0.521" y1="0.462" x2="0.478" y2="-0.376" gradientUnits="objectBoundingBox">
      <stop offset="0" stop-color="#f2f2f2"/>
      <stop offset="1" stop-color="#797979"/>
    </linearGradient>
    <linearGradient id="linear-gradient-15" x1="0.468" y1="-0.173" x2="0.559" y2="0.489" gradientUnits="objectBoundingBox">
      <stop offset="0" stop-color="#c7c7c7"/>
      <stop offset="1" stop-color="#646464"/>
    </linearGradient>
    <linearGradient id="linear-gradient-16" x1="0.515" y1="-1.449" x2="0.477" y2="0.717" xlink:href="#linear-gradient-15"/>
    <linearGradient id="linear-gradient-17" x1="0.5" y1="-0.13" x2="0.515" y2="1.198" gradientUnits="objectBoundingBox">
      <stop offset="0" stop-color="#6eb3fb"/>
      <stop offset="1" stop-color="#7772ff"/>
    </linearGradient>
    <clipPath id="clip-Aquarium_Landing_Page">
      <rect width="1920" height="1063"/>
    </clipPath>
  </defs>
  <g id="Aquarium_Landing_Page" data-name="Aquarium Landing Page" clip-path="url(#clip-Aquarium_Landing_Page)">
    <rect width="1920" height="1063" fill="#fff"/>
    <path id="Path_60" data-name="Path 60" d="M5122.489,3437.094c56.608-67.655-78.813-143.562-41.226-264.355s112.755-80.044,153.45-130.851,32.4-112.344,0-142.155-111.979,37.845-153.45,8.3-16.073-72.829-120.276-85.355-173.413-5.962-296.539,35.253-163.5,50.1-163.5,50.1-69.413,33.883-111.923-15.886-79.58-66.617-124.422-50.806-40.955,205.556,0,272.691,54.316,60.915,59.761,109.906-81.758,43.775-81.758,43.775-88.326,30.448-86.513,64.664,9.591,83.726,67.4,104.722,149.137-86.564,339.918-80.6c120.379,3.762,312.942,80.6,312.942,80.6S5065.879,3504.748,5122.489,3437.094Z" transform="translate(-3549.255 -2423.15)" fill="#dff2ff" opacity="0.81"/>
    <path id="Path_58" data-name="Path 58" d="M4401.741,3591.78C4245.641,3613.711,4442,3303.816,4427,3257.4c-48.2-149.255,26.926-217.585-25.264-280.362s16.963-199.422,71.111-165.084,140.951,126.319,194.139,89.807,84.791-84.76,242.69-33.833,147.263,149.575,251.311,160.145,110.364-56.371,164.882-117.867,102.051-82.315,159.561-62.777,52.523,253.99,0,336.945-169.5,151.335-105.676,174.716,106.375-9.608,143.607-12.811,79.448-2.563,77.121,39.716,14.932,124.76-59.2,150.7-71.811,23.377-160.9,25.62-50.216,6.039-294.879,13.405S4628.3,3559.951,4401.741,3591.78Z" transform="translate(-3744.825 -2610.394)" fill="#eaf1f6" opacity="0.58"/>
    <path id="blue_bg" data-name="blue bg" d="M4735.045,3218.969c35.7-21.553,57.639-32.037,98.334-82.843s16.165-135.38,8.083-178.483-40.063-14.828-136.725-59.268-160.006,73.046-162.991,78.8c-15.649,30.17-87.507,34.783-76.108,107.763,12.878,82.449,48.946,141.032,96.116,158.165C4619.556,3264.1,4699.349,3240.522,4735.045,3218.969Z" transform="translate(-3587.191 -2277.863)" opacity="0.62" fill="url(#linear-gradient)"/>
    <g id="big_fish_2" data-name="big fish 2" transform="translate(877.335 475.063)">
      <path id="Path_53" data-name="Path 53" d="M8016.9,319.139a88.03,88.03,0,0,1-12.809-8.375c-5.542-4.557-9.479-11.708-9.479-11.708a15.421,15.421,0,0,0,3.062-1.021c1.021-.561,1.021-1.225,1.021-1.225s-6.226-6.736-5.1-10.309,5.1-4.593,5.1-4.593,58.784-6.29,67.064-7.67,35.188-7.072,46.227-10.522c5.366-1.677,59.511-12.074,59.511-12.074l54.68-6.037s31.047-1.423,49.677-1.208,24.839,2.07,24.839,2.07,20.525.518,25.184-3.795,18.455-14.834,18.455-14.834,19.491-11.557,28.806-14.144,13.022-4.054,20.526-1.725,9.487,11.039,9.487,11.039.864,23.631,1.551,26.909,9.66,9.832,9.66,9.832l-2.758,2.76s17.606,3.056,27.771,5.692a184.792,184.792,0,0,0,22.251,3.967s10.909,3.881,21.39,6.9,20.524,5.175,20.524,5.175a159.4,159.4,0,0,1,26.91,4.83,122.979,122.979,0,0,0,25.872,4.14s10.023-4.19,15.715-12.987a55.48,55.48,0,0,1,12.658-13.781s33.9-25.324,60.114-43.436S8695.35,199.9,8695.35,199.9s-16.95,18.715-31.395,36.741S8637.564,272,8637.564,272s-15.785,22.855-23.633,36.913-7.762,19.319-7.762,19.319-.519,26.564,0,38.81-6.728,7.762-6.728,7.762-11.512-10.436-18.8-20.181a75.423,75.423,0,0,1-10.349-18.8s-4.14-8.754-9.144-13.109a17.911,17.911,0,0,0-10.865-4.312l-35.707,2.587s-24.665,2.07-48.813,2.932a351.935,351.935,0,0,0-46.228,5,32.844,32.844,0,0,1-5.176,5.347,71.721,71.721,0,0,1-7.761,5.347s-.433,4.1-1.9,6.21a5.563,5.563,0,0,1-3.965,2.242s-25.356-1.38-32.947-3.45-33.29-5.865-33.29-5.865-24.993,1.48-48.61,3.808-45.853,5.506-45.853,5.506l-36.76,6.241-39.033,1.895s-44.642,7.371-81.478-1.895S8016.9,319.139,8016.9,319.139Z" transform="translate(-7993.456 -199.896)" fill="url(#linear-gradient-2)"/>
      <path id="Path_54" data-name="Path 54" d="M7999.561,297.649a79.933,79.933,0,0,1,19.732,0,90.827,90.827,0,0,1,19.734,5.606,250.372,250.372,0,0,0,35.043,13.555,266.225,266.225,0,0,0,37.517,7.579s24.633,2.463,39.033,0,20.554-8.7,20.554-8.7a164.593,164.593,0,0,1,18.8-2.76c11.191-1.048,23.977-2.587,23.977-2.587a77.717,77.717,0,0,1,17.9-5.238,101.855,101.855,0,0,1,20.232-.6,15.565,15.565,0,0,1-2.658,5.842c-2.249,3.231-4.753,4.262-5.964,7.082s-.15,10.145-3.072,15.885-5.812,6.646-8.878,6.341-7.573-4.175-7.832-7.024a38.78,38.78,0,0,1,0-5.894s-1.314.4-1.752,2.644a28.423,28.423,0,0,0,0,6.325s.478,3.788,2.79,5.432,6.394,2.037,6.394,2.037a29.346,29.346,0,0,0,8.256-1.322,11.4,11.4,0,0,0,5-3.723s4.1-11.112,8.608-15.657,18.31-5.046,18.31-5.046,12.183-.708,30.1,0,32.737.18,56.507-3.184,22.026-9.763,27.358-15.024,18.444-5.067,39.484-6.123,58.989,2.8,77.449,4.657,41.052,4.657,41.052,4.657l40.364,7.072a123.59,123.59,0,0,0-14.033,4.864,90.94,90.94,0,0,0-11.958,6.341s6.223,3,9.8,11.219,11.04,21.734,11.04,21.734,19.133,23.589,24.424,22.624,3.144-25.73,3.144-25.73V327.917l32.61-58.108s60.207-68.343,56.233-69.169-13.628,1.207-40.191,16.387-29.205,16.7-51.8,34.193-33.646,30.767-38.574,35.792a42.6,42.6,0,0,1-8.294,6.6s-18.584-4.358-43.182-8.134S8462,272.92,8462,272.92l-50.216-10.1,2.652-2.654-3.689-2.964s-4-3.234-5.178-5.977c-2.616-6.083-1.593-15.391-1.593-15.391s1.286-8.752-1.883-15.881a15.377,15.377,0,0,0-10.457-8.4c-12.87-2.919-40.168,11.666-40.168,11.666s-14.763,10.359-26.44,19.117c-3.946,2.96-7.711,3.226-11.271,3.583-6.713.674-12.313-1.153-15.393-1.592-4.65-.664-53.537-.512-103.483,5.3s-98.069,18.607-98.069,18.607-14.853,4.652-39.7,7.859-59,5.892-59,5.892-4.955,2.375-4.591,6.293S7999.561,297.649,7999.561,297.649Z" transform="translate(-7993.483 -200.296)" fill="url(#linear-gradient-3)"/>
      <path id="Path_55" data-name="Path 55" d="M8647.25,586.637a149.263,149.263,0,0,0,22.531,2.826c11.148.393,20.963.864,20.963.864s5.024-1.178,5.5-4.24-4.394-5.321-4.394-5.321l-19.385,1.966Z" transform="translate(-8402.405 -438.131)" fill="#57a0ff"/>
      <path id="Path_56" data-name="Path 56" d="M9245.5,376.88a99.629,99.629,0,0,0,11.12-3.555c5.9-2.289,12.5-5.6,12.5-5.6s9.043-3.743,10.871,1.49,2.321,14.58,2.321,14.58,7.175,5.873,4.763,5.45-11.589-2.957-21.771-5.807S9245.5,376.88,9245.5,376.88Z" transform="translate(-8776.608 -304.062)" fill="#57a0ff"/>
      <path id="Path_57" data-name="Path 57" d="M9256.492,526.356s8.059,5.44,16.317,10.084,16.721,8.492,16.721,8.492,2.221.6,3.714-2.786,1.593-9.819,1.593-9.819a43.587,43.587,0,0,1,5.439-5.44,29.64,29.64,0,0,1,5.84-3.583Z" transform="translate(-8783.487 -402.188)" fill="#57a0ff"/>
    </g>
    <g id="content" transform="translate(-667 46)">
      <g id="Group_568" data-name="Group 568" transform="translate(873.959 295)">
        <text id="EXPLORE_LIKE_NEVER_BEFORE" data-name="EXPLORE LIKE 
NEVER BEFORE" transform="translate(221.041 66)" fill="#707bff" font-size="70" font-family="SegoeUI, Segoe UI"><tspan x="-221.228" y="0">EXPLORE LIKE </tspan><tspan x="-233.738" y="94">NEVER BEFORE</tspan></text>
      </g>
      <text id="Come_Discover_the_Magical_World_of_Underwater_Sea_Life_Today_" data-name="Come Discover the Magical World of Underwater Sea Life Today! " transform="translate(862 503)" fill="#707bff" font-size="30" font-family="SegoeUI, Segoe UI"><tspan x="0" y="32">Come Discover the Magical World </tspan><tspan x="0" y="68">of Underwater Sea Life Today! </tspan></text>
    </g>
    <rect id="Rectangle_469" data-name="Rectangle 469" width="392" height="85" transform="translate(1129 824)" fill="none"/>
    <path id="facebook2" d="M26.667,0H5.333A5.334,5.334,0,0,0,0,5.334V26.666A5.333,5.333,0,0,0,5.333,32H16V18H12V14h4V11a5,5,0,0,1,5-5h5v4H21a1,1,0,0,0-1,1v3h5.5l-1,4H20V32h6.667A5.334,5.334,0,0,0,32,26.666V5.334A5.333,5.333,0,0,0,26.667,0Z" transform="translate(1045 38)" fill="#ff6d6b"/>
    <path id="twitter" d="M39.383,6.786a16.171,16.171,0,0,1-4.641,1.273A8.113,8.113,0,0,0,38.3,3.589a16.186,16.186,0,0,1-5.131,1.961A8.087,8.087,0,0,0,19.4,12.919,22.941,22.941,0,0,1,2.742,4.476a8.089,8.089,0,0,0,2.5,10.789,8.048,8.048,0,0,1-3.66-1.01c0,.033,0,.068,0,.1a8.084,8.084,0,0,0,6.481,7.922,8.1,8.1,0,0,1-3.649.138,8.088,8.088,0,0,0,7.548,5.611A16.212,16.212,0,0,1,1.926,31.486,16.34,16.34,0,0,1,0,31.372,22.866,22.866,0,0,0,12.385,35c14.862,0,22.989-12.312,22.989-22.99q0-.526-.023-1.045a16.427,16.427,0,0,0,4.032-4.182Z" transform="translate(1114.001 35.002)" fill="#ff6d6b"/>
    <path id="instagram" d="M29.867,1.6H5.133A3.544,3.544,0,0,0,1.6,5.133V29.867A3.542,3.542,0,0,0,5.133,33.4H29.867A3.542,3.542,0,0,0,33.4,29.867V5.133A3.544,3.544,0,0,0,29.867,1.6Zm-12.4,25.658a9.786,9.786,0,0,0,9.784-9.785,9.379,9.379,0,0,0-.182-1.738h2.794V28.483A1.221,1.221,0,0,1,28.642,29.7H6.358a1.221,1.221,0,0,1-1.225-1.219V15.735H7.87a9.2,9.2,0,0,0-.183,1.738,9.787,9.787,0,0,0,9.785,9.785Zm-6.114-9.786a6.116,6.116,0,1,1,6.116,6.116,6.115,6.115,0,0,1-6.116-6.116Zm17.285-7.038H25.789a1.225,1.225,0,0,1-1.222-1.222V6.355a1.222,1.222,0,0,1,1.221-1.221h2.853a1.222,1.222,0,0,1,1.226,1.221V9.21a1.226,1.226,0,0,1-1.225,1.225Z" transform="translate(974.4 36.4)" fill="#ff6d6b"/>
    <g id="seaweed3" transform="translate(1245.086 729.466)">
      <path id="Path_96" data-name="Path 96" d="M14855.3,320.781s2.215-7.4,6.589-12.152a28.8,28.8,0,0,1,10.9-6.869s15.6-5.548,21.8-17.172,2.972-29.324,2.972-29.324-3.219,15.917-8.174,24.569-11.642,10.039-11.642,10.039,5.7-20.144,10.65-34.608,7.618-13.275,9.165-24.569a39.586,39.586,0,0,0-2.972-20.606s2.229-7.661,1.732-21.4,19.573-16.379,19.573-16.379-6.939-3.434-18.334,3.963-9.165,37.514-9.165,37.514,3.224,9.246,1.981,16.908-6.934,13.737-6.934,13.737a108,108,0,0,0-9.663,19.549,120.553,120.553,0,0,0-5.2,21.927l-2.475-15.587a126.517,126.517,0,0,0,7.679-21.927,98.257,98.257,0,0,0,2.229-21.4s-2.538-37.381,7.434-72.121,32.451-66.837,32.451-66.837-16.721,14.6-27.5,31.7-15.6,27.211-17.342,43.854-.989,13.539-.989,29.852a140.5,140.5,0,0,0,2.727,28.267s-7.557,22.719-10.9,36.457-2.477,18.493-2.477,18.493a63.989,63.989,0,0,0-7.682,13.209,76.648,76.648,0,0,0-4.21,15.587l-2.23,3.17s2.542,3.7,2.23,6.076-3.467,3.434-3.467,3.434,2.143,3.566,4.954,4.227S14855.3,320.781,14855.3,320.781Z" transform="translate(-14755.886 -79.235)" fill="#20a481"/>
      <path id="Path_100" data-name="Path 100" d="M14904.649,306.274s-2.22-6.936-6.592-11.395-10.9-6.441-10.9-6.441-15.6-5.2-21.8-16.1-2.973-27.5-2.973-27.5,3.22,14.925,8.176,23.037,11.641,9.413,11.641,9.413-5.7-18.888-10.648-32.45-7.617-12.448-9.168-23.037a35.106,35.106,0,0,1,2.973-19.322s-2.228-7.184-1.73-20.065-19.571-15.358-19.571-15.358,6.936-3.22,18.329,3.716,9.168,35.175,9.168,35.175-3.224,8.67-1.983,15.854,6.936,12.881,6.936,12.881a98.976,98.976,0,0,1,9.663,18.331,107.162,107.162,0,0,1,5.2,20.56l2.477-14.615a114.017,114.017,0,0,1-7.679-20.56,86.669,86.669,0,0,1-2.232-20.065s2.541-35.051-7.431-67.626-32.449-62.672-32.449-62.672,16.722,13.686,27.5,29.726,15.6,25.514,17.34,41.12.989,12.7.989,27.992a123.968,123.968,0,0,1-2.725,26.505s7.555,21.3,10.9,34.184,2.477,17.34,2.477,17.34a59.165,59.165,0,0,1,7.679,12.386,68.31,68.31,0,0,1,4.213,14.615l2.229,2.973s-2.542,3.468-2.229,5.7,3.465,3.22,3.465,3.22-2.14,3.344-4.953,3.963S14904.649,306.274,14904.649,306.274Z" transform="translate(-14844.056 -64.621)" fill="#20a481"/>
      <path id="Path_97" data-name="Path 97" d="M15.943,221.392s2.217-7.036,6.587-11.56,10.9-6.534,10.9-6.534,15.608-5.277,21.8-16.334S58.2,159.071,58.2,159.071s-3.221,15.141-8.176,23.371-11.644,9.549-11.644,9.549,5.7-19.161,10.653-32.92S56.655,146.443,58.2,135.7a36.072,36.072,0,0,0-2.973-19.6s2.23-7.288,1.733-20.355,19.57-15.58,19.57-15.58S69.6,76.9,58.2,83.933s-9.166,35.684-9.166,35.684,3.218,8.8,1.982,16.083-6.939,13.067-6.939,13.067a101.222,101.222,0,0,0-9.659,18.6,109.7,109.7,0,0,0-5.2,20.858l-2.48-14.827a116.772,116.772,0,0,0,7.679-20.858,89.385,89.385,0,0,0,2.232-20.355s-2.54-35.558,7.427-68.6S76.533,0,76.533,0s-16.723,13.884-27.5,30.156S33.43,56.039,31.7,71.871s-.994,12.879-.994,28.4a127.5,127.5,0,0,0,2.725,26.889s-7.554,21.611-10.9,34.679-2.478,17.591-2.478,17.591a60.251,60.251,0,0,0-7.677,12.565,70.064,70.064,0,0,0-4.212,14.826H2.128S.371,213.868.06,216.13a17.673,17.673,0,0,0,.668,5.685A89.278,89.278,0,0,1,9.649,222.9C12.462,223.528,15.943,221.392,15.943,221.392Z" transform="matrix(0.999, 0.035, -0.035, 0.999, 85.432, 17.011)" fill="#2ecca3"/>
      <path id="Path_101" data-name="Path 101" d="M14885.462,306.274s-2.218-6.936-6.588-11.395-10.9-6.441-10.9-6.441-15.6-5.2-21.8-16.1-2.971-27.5-2.971-27.5,3.22,14.925,8.175,23.037,11.639,9.413,11.639,9.413-5.7-18.888-10.645-32.45-7.621-12.448-9.169-23.037a35.1,35.1,0,0,1,2.971-19.322s-2.229-7.184-1.734-20.065-19.566-15.358-19.566-15.358,6.935-3.22,18.33,3.716,9.169,35.175,9.169,35.175-3.226,8.67-1.985,15.854,6.935,12.881,6.935,12.881a99.148,99.148,0,0,1,9.664,18.331,107.246,107.246,0,0,1,5.2,20.56l2.475-14.615a113.84,113.84,0,0,1-7.677-20.56,86.606,86.606,0,0,1-2.232-20.065s2.542-35.051-7.432-67.626-32.448-62.672-32.448-62.672,16.72,13.686,27.5,29.726,15.6,25.514,17.339,41.12.987,12.7.987,27.992a124.011,124.011,0,0,1-2.724,26.505s7.554,21.3,10.9,34.184,2.479,17.34,2.479,17.34a59.386,59.386,0,0,1,7.677,12.386,68.244,68.244,0,0,1,4.213,14.615h6.03s1.762,6.951,2.073,9.18a17.2,17.2,0,0,1-.669,5.6s-6.107.45-8.926,1.07S14885.462,306.274,14885.462,306.274Z" transform="translate(-14823.895 -69.762)" fill="#2ecca3"/>
      <path id="Path_98" data-name="Path 98" d="M14613.57,280.845s12.347,3.576,10.476,3.989-9.493,0-9.493,0a1.648,1.648,0,0,1-1.443,1.634,79.73,79.73,0,0,1-12.139,0s-2.227-.091-2.966-3.462.532-6.919,0-10.023c-.687-4.027-.727-8.633-1.58-12.97-2.432-12.391-5.185-23.111-5.185-23.111s-9.582-14.031-22.889-24.054-3.492-41.387-3.492-41.387-1.92,14.031,2.7,23.818c2.069,4.375,2.481,7.4,5.639,11.791a15.267,15.267,0,0,0,6.989,5.778c6.314,3.537,16.235,19.927,16.235,19.927l4.06,11.909-1.479-37.614-4.382-13.995s.762-12.149-2.477-21.614a44.987,44.987,0,0,0-10.48-16.247,88.248,88.248,0,0,1-20.2-22.119c-8.1-13.2-12.193-30.688-12.193-30.688a63.226,63.226,0,0,1,21.531,19.529c9.62,13.75,16.957,35.47,16.957,35.47a35.664,35.664,0,0,1,8.661,6.177,21.523,21.523,0,0,1,4.546,7.878,45.223,45.223,0,0,1,2.988,11.452,28.061,28.061,0,0,1-1.145,10.163s-1.616-.448,0,6.377,6.48,20.923,6.48,20.923.477-20.525,2.477-18.333,5.526,27.1,5.526,27.1a41.7,41.7,0,0,0,2.667-7.971,16.883,16.883,0,0,0,0-6.377,48.519,48.519,0,0,1-1.333-12.753c.37-6.078,2.8-7.512,2.8-11.558a69.729,69.729,0,0,0-1.471-15.742s.85-17.061.85-25.331-.85-7.748-.85-7.748-.176-4.058-10.5-16.6-26.131-21-30.778-33.569c-8.892-24.039,5.715-45.986,5.715-45.986s-1.8,15.405,1.025,29.124,10.261,25.752,10.261,25.752,5.109,5.25,10.848,10.27,12.092,9.81,12.092,9.81-2.544-13.374,0-23.913,10.188-18.241,10.188-18.241a95.835,95.835,0,0,1,13.188-10.883,37.89,37.89,0,0,1,11.874-5.058s-11.8,11.841-18.47,23.912-6.887,11.956-8.2,24.372,2.929,25.292,2.929,25.292V159.6a45.628,45.628,0,0,0-2.929,12.953,49.557,49.557,0,0,0,1.523,13.55,39.856,39.856,0,0,1,1.405,14.945c-.76,8.569-4.454,19.329-4.454,19.329l2.282,11.358s-3,12.106-4.378,21.123a86.1,86.1,0,0,0-1.145,14.945l-10.671,10.881s3.869-4.83,3.735-2.651c-.05.8-1.431,1.128-2.4,1.744a2.8,2.8,0,0,0-1,.907Z" transform="translate(-14529.839 -45.507)" fill="#20a481"/>
      <path id="Path_99" data-name="Path 99" d="M72.747,227.272a9.626,9.626,0,0,1-2.884,1.032,37.591,37.591,0,0,1-4.585.547,1.59,1.59,0,0,1-1.444,1.562,83.374,83.374,0,0,1-12.139,0s-2.226-.087-2.965-3.31.532-6.616,0-9.584c-.687-3.851-.726-8.255-1.58-12.4-2.431-11.849-5.184-22.1-5.184-22.1s-9.582-13.417-22.889-23-3.492-39.576-3.492-39.576-1.919,13.417,2.7,22.776c2.07,4.183,2.482,7.075,5.639,11.275a15.183,15.183,0,0,0,6.989,5.525c6.314,3.383,16.235,19.055,16.235,19.055l4.06,11.388L49.73,154.491l-4.382-13.382s.762-11.617-2.477-20.668S32.391,104.9,32.391,104.9s-12.1-8.527-20.2-21.151S0,54.409,0,54.409A62.578,62.578,0,0,1,21.531,73.083C31.151,86.231,38.488,107,38.488,107a35.766,35.766,0,0,1,8.661,5.907A20.311,20.311,0,0,1,51.7,120.44a41.791,41.791,0,0,1,2.989,10.95,25.737,25.737,0,0,1-1.144,9.718s-1.617-.429,0,6.1,6.48,20.008,6.48,20.008.477-19.627,2.477-17.53S68.022,175.6,68.022,175.6a38.692,38.692,0,0,0,2.667-7.622,15.436,15.436,0,0,0,0-6.1,44.483,44.483,0,0,1-1.332-12.2c.37-5.812,2.8-7.183,2.8-11.052a63.875,63.875,0,0,0-1.471-15.053s.85-16.314.85-24.222-.85-7.409-.85-7.409-.175-3.881-10.495-15.874-26.131-20.078-30.779-32.1C20.525,20.986,35.131,0,35.131,0s-1.8,14.731,1.025,27.849S46.417,52.474,46.417,52.474s5.109,5.02,10.848,9.821,12.092,9.381,12.092,9.381-2.544-12.789,0-22.866S79.544,31.367,79.544,31.367A94.948,94.948,0,0,1,92.733,20.96a38.912,38.912,0,0,1,11.874-4.837s-11.8,11.323-18.469,22.866-6.887,11.433-8.2,23.306S80.861,86.48,80.861,86.48V109.1a42.066,42.066,0,0,0-2.928,12.386,45.425,45.425,0,0,0,1.523,12.957,36.543,36.543,0,0,1,1.405,14.291c-.76,8.194-4.454,18.483-4.454,18.483l2.282,10.861s-3,11.576-4.379,20.2a78.851,78.851,0,0,0-1.144,14.291l-1.847,2.713s2.442,3.717,2.307,5.8a3.57,3.57,0,0,1-1.757,2.369,4.77,4.77,0,0,1-1.853.577Z" transform="matrix(0.999, 0.035, -0.035, 0.999, 19.331, 8.802)" fill="#2ecca3"/>
    </g>
    <g id="seaweed2" transform="matrix(0.966, -0.259, 0.259, 0.966, 801.657, 687.648)">
      <path id="Path_88" data-name="Path 88" d="M73.5,291.514s-2.688-9.265-7.992-15.221-13.222-8.6-13.222-8.6-18.931-6.949-26.443-21.508-3.606-36.729-3.606-36.729,3.906,19.936,9.916,30.773S46.275,252.8,46.275,252.8s-6.911-25.23-12.921-43.347-9.24-16.627-11.118-30.773a50.989,50.989,0,0,1,3.606-25.809s-2.705-9.6-2.1-26.8S0,105.554,0,105.554s8.414-4.3,22.236,4.963S33.354,157.5,33.354,157.5s-3.906,11.581-2.4,21.177,8.415,17.206,8.415,17.206a137.071,137.071,0,0,1,11.719,24.486,155.124,155.124,0,0,1,6.31,27.464L60.4,228.314a162.048,162.048,0,0,1-9.315-27.464,127.064,127.064,0,0,1-2.7-26.8s3.08-46.821-9.015-90.333S0,0,0,0,20.283,18.282,33.354,39.707,52.286,73.788,54.388,94.634s1.2,16.958,1.2,37.39a181.609,181.609,0,0,1-3.3,35.405s9.165,28.457,13.222,45.663,3.005,23.162,3.005,23.162A80.561,80.561,0,0,1,77.827,252.8a98.354,98.354,0,0,1,5.108,19.522l2.7,3.971s-3.08,4.632-2.7,7.611,4.207,4.3,4.207,4.3-2.6,4.467-6.01,5.294S73.5,291.514,73.5,291.514Z" transform="translate(0 18.57)" fill="#20a481"/>
      <path id="Path_89" data-name="Path 89" d="M73.5,273.736s-2.69-8.7-7.993-14.293-13.222-8.078-13.222-8.078-18.93-6.525-26.443-20.2-3.606-34.489-3.606-34.489,3.907,18.72,9.916,28.9,14.123,11.807,14.123,11.807-6.911-23.692-12.921-40.7-9.239-15.613-11.118-28.9a45.336,45.336,0,0,1,3.606-24.235s-2.7-9.011-2.1-25.168S0,99.117,0,99.117s8.414-4.039,22.236,4.661S33.354,147.9,33.354,147.9s-3.906,10.875-2.4,19.885,8.414,16.157,8.414,16.157a125.687,125.687,0,0,1,11.719,22.993,138.023,138.023,0,0,1,6.311,25.789l3-18.332A146.178,146.178,0,0,1,51.084,188.6a112.253,112.253,0,0,1-2.7-25.168s3.08-43.966-9.015-84.824S0,0,0,0,20.283,17.167,33.354,37.285s18.931,32,21.035,51.578,1.2,15.924,1.2,35.11a160.506,160.506,0,0,1-3.306,33.246S61.45,183.941,65.507,200.1s3.005,21.75,3.005,21.75a74.653,74.653,0,0,1,9.315,15.536,87.77,87.77,0,0,1,5.108,18.332h7.321s2.133,8.718,2.509,11.515-.809,7.029-.809,7.029A106.427,106.427,0,0,0,81.133,275.6C77.722,276.377,73.5,273.736,73.5,273.736Z" transform="translate(2.375 34.102)" fill="#2ecca3"/>
      <path id="Path_86" data-name="Path 86" d="M89.654,299.009a11.026,11.026,0,0,1-3.5,1.334,42.227,42.227,0,0,1-5.566.682,2.031,2.031,0,0,1-1.74,2.042,93.672,93.672,0,0,1-14.746-.1s-2.7-.132-3.627-4.374.6-8.692-.071-12.6c-.864-5.067-.944-10.856-2.01-16.314-3.043-15.593-6.464-29.087-6.464-29.087s-11.741-17.71-27.973-30.411-4.541-52.043-4.541-52.043-2.228,17.62,3.457,29.956c2.541,5.514,3.066,9.319,6.932,14.864s6.668,6.228,8.532,7.316c7.694,4.5,19.863,25.172,19.863,25.172l5.015,15-2.065-47.285-5.423-17.623s.839-15.263-3.163-27.185-12.845-20.5-12.845-20.5-14.76-11.3-24.692-27.958S0,71.236,0,71.236s14.507,7.356,26.293,24.713,20.852,44.713,20.852,44.713,6.53,3.39,10.566,7.832a27.732,27.732,0,0,1,5.576,9.936A58.916,58.916,0,0,1,67,172.846a36.266,36.266,0,0,1-1.316,12.764s-1.971-.576.045,8.014,8.018,26.348,8.018,26.348.432-25.792,2.878-23.022,6.905,34.1,6.905,34.1a53.228,53.228,0,0,0,3.184-10,21.97,21.97,0,0,0-.045-8.014A63.143,63.143,0,0,1,84.958,197c.4-7.636,3.348-9.42,3.319-14.5-.071-12.585-1.894-19.8-1.894-19.8s.908-21.436.849-31.83-1.085-9.744-1.085-9.744-.244-5.1-12.868-20.947S41.39,73.588,35.653,57.75C24.683,27.468,42.268,0,42.268,0S40.2,19.347,43.722,36.612,56.368,69.058,56.368,69.058,62.614,75.7,69.616,82.05s14.76,12.425,14.76,12.425-3.188-16.829-.17-30.054S96.448,41.576,96.448,41.576,104.811,32.961,112.393,28a44.559,44.559,0,0,1,14.385-6.264s-14.248,14.79-22.263,29.909-8.283,14.973-9.8,30.567,3.741,31.81,3.741,31.81l.169,29.726a58.5,58.5,0,0,0-3.468,16.256,64.858,64.858,0,0,0,1.948,17.042,52.027,52.027,0,0,1,1.815,18.795c-.865,10.763-5.274,24.258-5.274,24.258l2.858,14.293s-3.559,15.191-5.173,26.513a111.923,111.923,0,0,0-1.282,18.775l-2.223,3.551s2.993,4.9,2.847,7.641a4.633,4.633,0,0,1-2.122,3.1,5.394,5.394,0,0,1-2.246.744Z" transform="matrix(0.978, 0.208, -0.208, 0.978, 84.591, 0)" fill="#20a481"/>
      <path id="Path_87" data-name="Path 87" d="M89.654,283.948a11.359,11.359,0,0,1-3.5,1.267,44.382,44.382,0,0,1-5.566.648,1.944,1.944,0,0,1-1.74,1.939,98.62,98.62,0,0,1-14.746-.091s-2.7-.125-3.627-4.154.6-8.254-.071-11.962c-.864-4.812-.944-10.309-2.01-15.492-3.043-14.807-6.464-27.622-6.464-27.622S40.193,211.664,23.961,199.6s-4.541-49.422-4.541-49.422-2.228,16.732,3.457,28.447c2.541,5.237,3.066,8.849,6.932,14.115s6.668,5.914,8.532,6.948C46.035,203.96,58.2,223.6,58.2,223.6l5.015,14.244-2.065-44.9L55.731,176.2s.839-14.494-3.163-25.816-12.845-19.469-12.845-19.469-14.76-10.733-24.692-26.55S0,67.648,0,67.648s14.507,6.986,26.293,23.468,20.852,42.461,20.852,42.461,6.53,3.219,10.566,7.437a25.919,25.919,0,0,1,5.576,9.436A53.753,53.753,0,0,1,67,164.14a32.817,32.817,0,0,1-1.316,12.121s-1.971-.547.045,7.611,8.018,25.021,8.018,25.021.432-24.493,2.878-21.862,6.905,32.386,6.905,32.386a48.784,48.784,0,0,0,3.184-9.493,19.834,19.834,0,0,0-.045-7.611,57.1,57.1,0,0,1-1.711-15.231c.4-7.251,3.348-8.945,3.319-13.773-.071-11.951-1.894-18.8-1.894-18.8s.908-20.357.849-30.227-1.085-9.254-1.085-9.254S85.9,110.183,73.28,95.137,41.39,69.882,35.653,54.842C24.683,26.085,42.268,0,42.268,0S40.2,18.373,43.722,34.768,56.368,65.579,56.368,65.579s6.246,6.3,13.248,12.338,14.76,11.8,14.76,11.8-3.188-15.981-.17-28.54S96.448,39.482,96.448,39.482s8.363-8.181,15.946-12.891a45.919,45.919,0,0,1,14.385-5.949s-14.248,14.045-22.263,28.4-8.283,14.219-9.8,29.027,3.741,30.208,3.741,30.208l.169,28.229a53.224,53.224,0,0,0-3.468,15.437A58.677,58.677,0,0,0,97.11,168.13a47.074,47.074,0,0,1,1.815,17.848c-.865,10.221-5.274,23.037-5.274,23.037l2.858,13.573s-3.559,14.426-5.173,25.177a101,101,0,0,0-1.282,17.829l-2.223,3.372s2.993,4.657,2.847,7.257a4.4,4.4,0,0,1-2.122,2.943,5.6,5.6,0,0,1-2.246.706Z" transform="matrix(0.978, 0.208, -0.208, 0.978, 84.978, 14.945)" fill="#2ecca3"/>
    </g>
    <g id="seaweed" transform="translate(1127.29 718.314)">
      <path id="Path_82" data-name="Path 82" d="M14854.4,300.663s2.035-6.758,6.056-11.1a26.531,26.531,0,0,1,10.024-6.275s14.353-5.068,20.049-15.687,2.731-26.789,2.731-26.789-2.961,14.541-7.515,22.445-10.709,9.171-10.709,9.171,5.24-18.4,9.8-31.616,7-12.128,8.428-22.445a35.936,35.936,0,0,0-2.731-18.825s2.049-7,1.594-19.549,18-14.963,18-14.963-6.379-3.137-16.858,3.62-8.428,34.271-8.428,34.271,2.964,8.447,1.823,15.446-6.379,12.55-6.379,12.55a98.6,98.6,0,0,0-8.885,17.86,109.405,109.405,0,0,0-4.785,20.032l-2.276-14.239a115.058,115.058,0,0,0,7.062-20.032,89.206,89.206,0,0,0,2.049-19.549s-2.333-34.15,6.836-65.887,29.842-61.06,29.842-61.06-15.375,13.334-25.286,28.961-14.351,24.859-15.948,40.063-.91,12.369-.91,27.272a127.618,127.618,0,0,0,2.506,25.824s-6.95,20.756-10.024,33.306-2.278,16.894-2.278,16.894a58.369,58.369,0,0,0-7.062,12.067,69.776,69.776,0,0,0-3.872,14.239l-2.051,2.9s2.335,3.379,2.051,5.551-3.189,3.138-3.189,3.138,1.972,3.258,4.557,3.861S14854.4,300.663,14854.4,300.663Z" transform="translate(-14766.81 -80.865)" fill="#20a481"/>
      <path id="Path_83" data-name="Path 83" d="M14839.536,288.747s2.039-6.379,6.059-10.48a26.9,26.9,0,0,1,10.025-5.923s14.353-4.784,20.05-14.808,2.732-25.288,2.732-25.288-2.964,13.726-7.518,21.187-10.709,8.657-10.709,8.657,5.239-17.371,9.8-29.844,7-11.448,8.43-21.187a32.29,32.29,0,0,0-2.732-17.77s2.05-6.607,1.594-18.453,18-14.125,18-14.125-6.376-2.962-16.856,3.417-8.43,32.35-8.43,32.35,2.961,7.974,1.819,14.581-6.377,11.847-6.377,11.847a91.117,91.117,0,0,0-8.883,16.859,98.345,98.345,0,0,0-4.784,18.909l-2.275-13.441a105.249,105.249,0,0,0,7.06-18.909,79.7,79.7,0,0,0,2.051-18.453s-2.336-32.237,6.832-62.195,29.844-57.638,29.844-57.638-15.372,12.587-25.286,27.338-14.353,23.465-15.948,37.818-.91,11.676-.91,25.744a114.01,114.01,0,0,0,2.506,24.377s-6.948,19.593-10.025,31.439-2.278,15.947-2.278,15.947a54.4,54.4,0,0,0-7.059,11.391,62.587,62.587,0,0,0-3.876,13.441h-5.549s-1.618,6.392-1.9,8.443a15.77,15.77,0,0,0,.611,5.154s5.617.414,8.206.984S14839.536,288.747,14839.536,288.747Z" transform="translate(-14753.749 -70.663)" fill="#2ecca3"/>
      <path id="Path_80" data-name="Path 80" d="M14608.408,261.4s11.349,3.28,9.633,3.659-8.731,0-8.731,0a1.514,1.514,0,0,1-1.326,1.5,73.536,73.536,0,0,1-11.166,0s-2.047-.083-2.727-3.176.487-6.347,0-9.194c-.634-3.694-.67-7.92-1.452-11.9-2.235-11.368-4.771-21.2-4.771-21.2s-8.813-12.872-21.049-22.066-3.217-37.967-3.217-37.967-1.76,12.872,2.49,21.85c1.9,4.013,2.28,6.788,5.187,10.817a14,14,0,0,0,6.43,5.3c5.8,3.245,14.93,18.281,14.93,18.281l3.733,10.925-1.358-34.506-4.031-12.839s.7-11.145-2.278-19.828a41.315,41.315,0,0,0-9.639-14.9,81.059,81.059,0,0,1-18.577-20.291c-7.451-12.111-11.213-28.152-11.213-28.152a58.1,58.1,0,0,1,19.8,17.915c8.85,12.614,15.6,32.539,15.6,32.539a32.907,32.907,0,0,1,7.965,5.667,19.681,19.681,0,0,1,4.179,7.227,41.278,41.278,0,0,1,2.75,10.505,25.656,25.656,0,0,1-1.051,9.323s-1.49-.411,0,5.85,5.959,19.195,5.959,19.195.438-18.829,2.279-16.818,5.082,24.862,5.082,24.862a38.336,38.336,0,0,0,2.452-7.312,15.5,15.5,0,0,0,0-5.85,44.343,44.343,0,0,1-1.227-11.7c.337-5.576,2.576-6.892,2.576-10.6a63.949,63.949,0,0,0-1.35-14.442s.78-15.652.78-23.238-.78-7.108-.78-7.108-.16-3.723-9.653-15.229-24.032-19.262-28.308-30.8c-8.176-22.053,5.254-42.186,5.254-42.186s-1.648,14.132.947,26.718a82.818,82.818,0,0,0,9.436,23.624s4.7,4.816,9.975,9.422,11.123,9,11.123,9-2.339-12.269,0-21.937,9.366-16.734,9.366-16.734a88.046,88.046,0,0,1,12.134-9.984,34.883,34.883,0,0,1,10.921-4.64s-10.855,10.863-16.986,21.937-6.337,10.968-7.549,22.359,2.7,23.2,2.7,23.2v21.7a41.659,41.659,0,0,0-2.7,11.882,45.445,45.445,0,0,0,1.4,12.431,36.59,36.59,0,0,1,1.293,13.71c-.7,7.861-4.1,17.732-4.1,17.732l2.1,10.42s-2.761,11.105-4.031,19.377a79.036,79.036,0,0,0-1.051,13.71h-6.809s.552,5.551.43,7.549c-.044.73-1.315,1.035-2.2,1.6a2.6,2.6,0,0,0-.926.832Z" transform="translate(-14538.168 -45.507)" fill="#20a481"/>
      <path id="Path_81" data-name="Path 81" d="M66.9,209.02a8.82,8.82,0,0,1-2.652.95,34.592,34.592,0,0,1-4.217.5,1.464,1.464,0,0,1-1.326,1.437,76.7,76.7,0,0,1-11.166,0s-2.047-.08-2.727-3.045.488-6.085,0-8.814c-.633-3.542-.67-7.592-1.452-11.407-2.236-10.9-4.77-20.324-4.77-20.324s-8.814-12.34-21.049-21.154-3.217-36.4-3.217-36.4-1.759,12.34,2.491,20.947c1.9,3.847,2.279,6.507,5.186,10.37a13.938,13.938,0,0,0,6.43,5.081c5.805,3.111,14.93,17.525,14.93,17.525L47.1,175.163l-1.359-33.079-4.031-12.308s.7-10.684-2.278-19.009A39.6,39.6,0,0,0,29.79,96.48,79.245,79.245,0,0,1,11.213,77.027C3.762,65.417,0,50.039,0,50.039A57.536,57.536,0,0,1,19.8,67.214c8.85,12.092,15.6,31.194,15.6,31.194a32.992,32.992,0,0,1,7.965,5.433,18.638,18.638,0,0,1,4.178,6.928,38.31,38.31,0,0,1,2.75,10.071,23.655,23.655,0,0,1-1.05,8.938s-1.49-.394,0,5.608,5.959,18.4,5.959,18.4.438-18.05,2.278-16.123S62.562,161.5,62.562,161.5a35.747,35.747,0,0,0,2.451-7.01,14.242,14.242,0,0,0,0-5.608,40.852,40.852,0,0,1-1.226-11.216c.337-5.345,2.576-6.607,2.576-10.164a58.881,58.881,0,0,0-1.35-13.844s.781-15,.781-22.277-.781-6.814-.781-6.814-.16-3.569-9.653-14.6S31.328,51.5,27.052,40.441C18.877,19.3,32.306,0,32.306,0s-1.648,13.548.948,25.613S42.69,48.26,42.69,48.26s4.7,4.617,9.975,9.032,11.123,8.627,11.123,8.627-2.339-11.762,0-21.03,9.367-16.042,9.367-16.042a87.254,87.254,0,0,1,12.134-9.571,35.772,35.772,0,0,1,10.921-4.449S85.353,25.242,79.222,35.858s-6.337,10.515-7.549,21.434,2.7,22.243,2.7,22.243v20.8a38.6,38.6,0,0,0-2.7,11.391,41.892,41.892,0,0,0,1.4,11.917,33.7,33.7,0,0,1,1.293,13.143c-.7,7.536-4.1,17-4.1,17l2.1,9.989s-2.76,10.646-4.031,18.576a72.692,72.692,0,0,0-1.051,13.143l-1.7,2.495s2.247,3.418,2.123,5.334a3.29,3.29,0,0,1-1.622,2.178,4.364,4.364,0,0,1-1.7.531Z" transform="matrix(0.998, -0.07, 0.07, 0.998, 0, 12.765)" fill="#2ecca3"/>
      <path id="Path_84" data-name="Path 84" d="M14863.876,484.337l-1.762-9.624s8.53-6.507,9.538-20.013-5.494-34.012-5.494-34.012V400.26s11.957,27.625,11.491,48.467S14863.876,484.337,14863.876,484.337Z" transform="translate(-14780.577 -311.242)" fill="#20a481"/>
      <path id="Path_85" data-name="Path 85" d="M14852.075,484.857l-2.086-10.186s11.255-6.465,12.269-19.971-5.5-34.012-5.5-34.012V400.26s11.956,27.625,11.49,48.467S14852.075,484.857,14852.075,484.857Z" transform="translate(-14772.758 -311.693)" fill="#2ecca3"/>
    </g>
    <path id="Path_211" data-name="Path 211" d="M-4725.389,18567.6s30.576-284.326-75.112-276.186c-55.7,4.285-63.728,54.2-63.728,54.2l-5.721,217.1a444.456,444.456,0,0,0,75.445,6.785C-4754.028,18569.488-4725.389,18567.6-4725.389,18567.6Z" transform="translate(5865.196 -17596.945)" fill="#fff"/>
    <g id="girl" transform="translate(965.602 720.377)">
      <path id="body" d="M2499.41,730.875s2.109-34.3,5.625-63.127,8.437-52.189,8.437-52.189,26.251-36.876,45-37.814,26.251,25.626,26.251,25.626a137.174,137.174,0,0,1,6.876,21.251c2.89,12.188,4.687,27.5,4.687,27.5a333.164,333.164,0,0,1,7.188,33.126c3.438,20.157,6.564,47.5,6.564,47.5Z" transform="translate(-2475.372 -480.648)" fill="url(#linear-gradient-4)"/>
      <path id="neck" d="M2651.031,462.222a19.833,19.833,0,0,1,10.233,3.513c4.685,3.421,8.506,10.171,8.506,10.171l-.925-7.951-5.733-7.582s-.924-8.414-.924-15.533a92.24,92.24,0,0,1,.924-12.944,26.083,26.083,0,0,1-7.581,0,21.477,21.477,0,0,1-6.657-2.589,76.916,76.916,0,0,1-5.4-9.217,58.849,58.849,0,0,1-3.414-9.246s-1.85,5.263-6.828,5.405.75,6.455.75,6.455a212.894,212.894,0,0,1,14.006,20.352A28.767,28.767,0,0,1,2651.031,462.222Z" transform="translate(-2567.387 -364.073)" fill="#e5b48b"/>
      <path id="arm" d="M2745.3,679.316s-12.741,6.01-22.6,7.452-38.569,2.059-43.992,1.923c-9.615-.24-12.02-8.894-14.423-12.741s-14.6-39.965-13.942-61.059,16.587-23.318,16.587-23.318,6.851,1.622,10.336,7.452,3.606,15.866,3.606,15.866,3.125,40.386,6.01,44.472c1.391,1.97,15.145,3.366,26.2,4.567s23.8-2.4,23.8-2.4a16.484,16.484,0,0,0,1.442,9.135C2740.553,674.989,2745.3,679.316,2745.3,679.316Z" transform="translate(-2580.603 -488.987)" fill="url(#linear-gradient-5)"/>
      <path id="right_hand" data-name="right hand" d="M2941.666,742.133a17.932,17.932,0,0,1-6.686-7.112c-2.168-4.587-1.991-11.237-1.991-11.237a37,37,0,0,0,3.414-6.4,21.03,21.03,0,0,0,1.28-5.974s.726-3.769,1.295-6.4a9.685,9.685,0,0,1,1.908-4.125s.782-4.978,1.707-8.25a17.987,17.987,0,0,1,1.991-4.836h1.707s1.174-2.987,2.276-3.983,1.9.527,1.9.527,1.971-2.234,2.861-1.1-.773,3.116-.773,3.116a6.586,6.586,0,0,0-.507,1.936,16.254,16.254,0,0,0,0,2.629s2.33-1.825,3.13-1.28c.481.328.557.8.5,1.768s-1.475,1.173-1.66,2.11c-.153.775-.7,2.506-.7,2.506l-1.135,2.9s-.819,2.633-1.709,6.083a31.6,31.6,0,0,0-.7,7.823,24.823,24.823,0,0,0,3.556-3.7,38.913,38.913,0,0,0,3.129-4.979s1.85-.96,1.281,2.134a34.258,34.258,0,0,1-3.557,10.241c-2.133,4.125-.854,10.384-.854,10.384s-.64,7.432-3.556,11.237S2941.666,742.133,2941.666,742.133Z" transform="translate(-2777.516 -551.506)" fill="url(#linear-gradient-6)"/>
      <path id="face" d="M2633.758,271.719s10.413,9.282,12.817,13.905,13.129,2.034,14.608,3.883.969,7.634.969,7.634,4.276.656,5.058,1.609.446,5,.446,5a2.229,2.229,0,0,1,1.664,1.294,7.449,7.449,0,0,1,0,3.144s3.711,3.3,3.943,6.35-3.018,5.854-3.018,5.854-6.229,12.089-8.263,15.232-14.941-2.092-14.941-2.092-10.88-7.547-13.1-13.141,5.238-9.8,5.238-9.8-8.436-5.556-9.545-18.5S2633.758,271.719,2633.758,271.719Z" transform="translate(-2566.198 -267.915)" fill="#f3c297"/>
      <path id="left_hand" data-name="left hand" d="M2759.71,504.092l-6.4-10.668-.854-8.677a68.983,68.983,0,0,0,5.974-12.375A51.987,51.987,0,0,0,2760.849,460a58.259,58.259,0,0,0,3.982-9.957,74.976,74.976,0,0,0,2.134-11.38s.782-1.565,1.422-1.565,1.138,1.565,1.138,1.565.817-1.707,1.565-1,1.28,4.552,1.28,4.552a13.185,13.185,0,0,1,0,3.983,46.791,46.791,0,0,1-1.28,5.69l-1.565,2.56s1.671-1.529,2.845-.853,1,3.414,1,3.414a43.836,43.836,0,0,0-2.276,9.1,46.131,46.131,0,0,0,0,9.53,8.112,8.112,0,0,1-1.565,3.556,12.685,12.685,0,0,1-3.556,2.7l-2.7,2.845Z" transform="translate(-2651.196 -382.217)" fill="url(#linear-gradient-7)"/>
      <path id="hair" d="M2490.993,263.241s-5.628-7.7-27-1.294-32.146,18.4-34.764,24.533-6.657,15.178-6.657,30.387,6.657,30.881,6.657,30.881,6.7,7.258,6.236,13.869-.981,9.486-.981,9.486-2.152,16.365,5.845,21.82,21.2,0,21.2,0,9.333-11.879,16.961-19.876c2.967-3.111,13-10.706,17.491-12.539,6.862-2.8,10.41-2.65,10.41-2.65s7.1-11.65,3.216-17.752-5.325-9.971-10.041-15.472-7.581-8.229-7.581-12.2.02-1.063,2.331-3.7,1.664-6.842,1.664-6.842a28.164,28.164,0,0,1-9.246-20.156C2486.555,268.974,2490.993,263.241,2490.993,263.241Z" transform="translate(-2422.574 -259.401)" fill="url(#linear-gradient-8)"/>
    </g>
    <g id="jelly1" transform="translate(1228.362 610.999) rotate(-8)">
      <path id="Path_39" data-name="Path 39" d="M12.676,8.229,8.48,9.405A12.473,12.473,0,0,0,10.718,12.7c1.119.941,5.873,4.468,5.873,4.468s1.4.941,2.237,0,2.8-4.468,3.636-4.468,3.077-1.881,4.2,0,3.916,3.528,1.678,4.468-6.153,2.587-6.992,3.057-7.272,4.468-7.272,4.468a10.278,10.278,0,0,0,0,3.057c.28,1.176,2.517,2.352,2.517,3.763S14.074,34.8,14.074,34.8s8.111.706,10.069,4.233-1.119,4-1.678,3.528-3.636-3.528-3.636-3.528-1.678,2.587-2.237,3.528.28,3.763,2.237,5.879,1.678,4,3.636,4,3.916-2.352,5.874-2.587,3.636-1.411,5.594-1.411a11.319,11.319,0,0,1,5.314,1.411c1.119.706,1.958,1.646,0,2.587s-.559,2.117-5.314,1.646-6.153-.706-7.272,0-4.754,1.646-2.517,2.822,1.678.941,2.517,2.587,3.077,3.057,0,3.763-3.356-.941-5.314,1.411-2.237,4,1.119,4.233,4.2-1.176,4.2,0-1.678,3.292-2.517,4-1.958-.706-2.8,2.822S28.338,80.9,28.338,80.9s4.755,3.057,1.958,5.879,0,.941-8.95,1.646S9.319,84.9,8.48,88.425s-3.916,4.468,0,7.055,5.314,5.879,8.111,9.172.28,1.411,2.237,5.174-1.119,4.468-2.237,6.115-3.916,0-3.916,4,.28,6.82,1.4,9.172,1.958,3.528-1.4,5.879-6.153,2.352-8.111,3.763-7.552,0-2.517,2.822,7.552,2.587,8.671,2.352,3.636-.706,4.754-2.352,2.238-3.528,3.356-4,.559-1.411,5.314,0,7.831,1.176,6.153-2.587-6.153-6.82-6.153-10.348-2.8-2.117,1.4-4.7,6.992-4.7,8.391-4,4.2,2.822,2.8,0-.28-2.117-2.8-5.174-9.509-3.057-3.636-6.115,5.873-4,8.95-3.763,3.077,3.528,5.034,0,3.356-1.881,2.8-5.409-1.678-7.291-1.4-8.7.559-1.176,3.077-3.057,3.916-4.233,2.8-6.115-.56-3.528-2.8-4.7-3.916.47-4.475-4-1.119-5.409-1.119-8.466,1.119-3.057,0-4.939-2.237-4.939,0-3.057S44.84,50.8,47.077,55.5s-.839,5.644,1.678,7.761,5.873,5.644,7.552,3.292,3.356-1.176,1.4-6.115-2.8-4.939-2.8-8.937,8.671-3.057,1.4-7.055-9.509-6.82-9.23-9.642S44,33.393,48.755,31.512s-10.457-1.646-8.22-2.587,4.475-1.176,5.314-4.233-.559-4.233,0-5.644-1.958-.47,0-4,3.077-3.763,3.356-5.644,6.153-1.176-1.119-3.528,8.5-2.352,6.821-3.528S49.315-.943,47.077.468,44.84,0,44.28,2.35s4.2-.47,0,4.7S33.652,9.405,32.534,9.405,31.974,8.7,30.3,7.053,32.254,3.526,28.338,4s-5.314.706-6.992,1.881-3.076,2.352-4.754,2.352Z" transform="matrix(0.985, -0.174, 0.174, 0.985, 0, 37.138)" fill="#ffe7a1" opacity="0.8"/>
      <path id="Path_40" data-name="Path 40" d="M37.241,2.3l4.2,7.579A13.166,13.166,0,0,1,39.2,13.331c-1.119.988-5.873,4.691-5.873,4.691s-1.4.988-2.237,0-2.8-4.691-3.636-4.691-3.077-1.975-4.2,0-3.916,3.7-1.678,4.691,6.153,2.716,6.992,3.21-7.1,4.691-7.1,4.691a11.319,11.319,0,0,1,0,3.21c-.28,1.235-2.517,2.469-2.517,3.951s-1.569-.85-1.569-.85,10.348,5.048,8.391,8.751,1.119,4.2,1.678,3.7,3.636-3.7,3.636-3.7,1.678,2.716,2.237,3.7-.28,3.951-2.237,6.173-1.678,4.2-3.636,4.2-3.916-2.469-5.873-2.716-3.636-1.481-5.594-1.481-1.366.282-2.485,1.023.527.649,2.485,1.637-4.755,3.76,0,3.266,6.153-.741,7.272,0,4.755,1.728,2.517,2.963-1.678.988-2.517,2.716-3.077,3.21,0,3.951,3.356-.988,5.314,1.481,2.237,4.2-1.119,4.444-4.2-1.235-4.2,0,1.678,3.457,2.517,4.2,1.958-.741,2.8,2.963a13.538,13.538,0,0,1,0,6.42s-4.755,3.21-1.958,6.173-6.992,0,1.958.741,3.915-.576,4.755,3.127,3.916,4.691,0,7.407,2.8,3.045,0,6.5-.28,1.481-2.237,5.432,1.119,4.691,2.237,6.42,3.916,0,3.916,4.2-.28,7.16-1.4,9.629-5.314,7.407-10.069,8.889-7.831,1.234-6.153-2.716,0-6.749,0-10.452,7.831-6.831,3.636-9.547-5.874-.741-7.272,0-4.2,2.963-2.8,0,.28-2.222,2.8-5.432,9.51-3.21,3.636-6.42-5.873-4.2-8.95-3.951-3.077,3.7-5.035,0,10.753-4.4,11.312-8.1,1.678-7.654,1.4-9.136,2.906-3.21.388-5.185-3.916-4.444-2.8-6.42.56-3.7,2.8-4.938.451,2.469,1.01-2.222-12.99-3.258-12.99-6.468-1.119-3.21,0-5.185,2.237-5.185,0-3.21-1.165-3.3-1.165-7.495-7.272-4.2,0-8.395-2.517-1.481-2.8-4.444,13.7-1.481,8.95-3.457S7.827,29.539,5.59,28.552,1.114,27.317.276,24.107s.559-4.444,0-5.926,16.331-.494,14.373-4.2-3.077-3.951-3.356-5.926S7.7,3.7,9.381,2.467s2-3.457,4.238-1.975,2.237-.494,2.8,1.975-4.2-.494,0,4.938-.151,2.469.967,2.469.559-.741,2.237-2.469S17.663,3.7,21.578,4.2s5.314.741,6.992,1.975S31.647,2.3,33.325,2.3Z" transform="matrix(0.999, -0.035, 0.035, 0.999, 50.66, 28.798)" fill="#ffe7a1" opacity="0.8"/>
      <path id="Path_29" data-name="Path 29" d="M0,0A96.825,96.825,0,0,1,11.1,16.545a61.043,61.043,0,0,1,5.25,16.5s5.218,6.272,4.948,20.31-3.873,35.714-3.873,35.714a295.051,295.051,0,0,0-1.076,34.854,299.919,299.919,0,0,0,3.658,34.854" transform="translate(13.182 31.976)" fill="none" stroke="#ffb925" stroke-width="3"/>
      <path id="Path_30" data-name="Path 30" d="M0,0S11.188,4.3,15.706,14.415s3.227,26.033,3.227,26.033,2.044,19.2,2.367,33.993a179.283,179.283,0,0,1-1.075,25.172" transform="translate(16.194 39.974)" fill="none" stroke="#ffb925" stroke-width="3"/>
      <path id="Path_31" data-name="Path 31" d="M13.552,0S9.546,1.779,10.469,3.614s6.776,3.727,6.776,3.727a30.461,30.461,0,0,1,5.347,10.277c2.037,6.522,2.8,15.811,2.8,15.811s1.687,7.369,1.4,21.119-2.546,33.88-2.546,33.88-.032,12.056-.764,24.507-.446,16.488-2.164,25.3-13.152,8.994-13.152,8.994c-.6,1.329-7.692-1.427-8.138-8.09S4.358,125.7,4.358,125.7l7.129-13.778s2.578-2.541,2.164-5.76-3.565-4.856-3.819-7.115,1.528-2.2,2.8-1.92,2.292,3.049,2.292,3.049" transform="translate(17.794 32.754)" fill="none" stroke="#ffb925" stroke-width="3"/>
      <path id="Path_32" data-name="Path 32" d="M.021,0a5.126,5.126,0,0,0,1.2,3.7,20.409,20.409,0,0,0,4.733,3.7s9.848,23.718,8.6,32.8S6.983,54.47,7.413,69.821s.925,13.317,3.077,20.556,10.146,24.16,11.383,30.578,1.237,17.1,0,21.152-6.723,9.549-7.315,13.553a36.985,36.985,0,0,0,0,8.625" transform="translate(36.721 33.976) rotate(-3)" fill="none" stroke="#ffb925" stroke-width="3"/>
      <path id="Path_33" data-name="Path 33" d="M11.46,0S8.391,1.1,9.9,3.1s7.584,6.026,8.821,28.3-3.872,60.809-3.872,60.809.327,15.111-3.385,28.122A89.021,89.021,0,0,1,0,144.262" transform="matrix(0.999, -0.035, 0.035, 0.999, 43.032, 34.719)" fill="none" stroke="#ffb925" stroke-width="3"/>
      <path id="Path_34" data-name="Path 34" d="M5.086,0S3.472.008,2.934,3.095s0,9.251,0,9.251A177.639,177.639,0,0,0,4.01,33.431C5.3,45.21,8.1,59.463,8.1,59.463s2.689,22.806,3.012,35.714S9.388,111.1,9.388,111.1s-.161,12.747-3.012,18.5S.847,132.4.185,127.929s.376-4.7,4.3-11.585a26.721,26.721,0,0,1,9.2-9.764" transform="translate(69.629 37.783)" fill="none" stroke="#ffb925" stroke-width="3"/>
      <path id="Path_35" data-name="Path 35" d="M13.985,0S9.95,4.062,7.745,16.443,4.8,34.061,4.366,46.785s7.252,19.869,5.961,46.2S0,154.84,0,154.84" transform="translate(71.899 32.448) rotate(-3)" fill="none" stroke="#ffb925" stroke-width="3"/>
      <path id="Path_36" data-name="Path 36" d="M31.412,0S27.485,3.5,25.6,16.781,29.473,36.575,28.4,52.5,20.007,65.62,21.3,80.465,19.031,97.081,10.756,99.4-.017,111.727,0,117.354s2.795,31.941,0,43.36" transform="translate(65.032 28.103)" fill="none" stroke="#ffb925" stroke-width="3"/>
      <path id="Path_37" data-name="Path 37" d="M25.237,0a9.371,9.371,0,0,0-2.216,5.818c0,3.412,2.216,7.832,2.216,7.832S31,49.005,26.894,79.214,14.915,105.171,8.606,128.666A342.8,342.8,0,0,0,0,170.735" transform="translate(42.227 31.976)" fill="none" stroke="#ffb925" stroke-width="3"/>
      <path id="Path_38" data-name="Path 38" d="M18.5,0a29.294,29.294,0,0,0-6.885,11.735c-1.99,6.985-1.076,16.205-1.076,16.205S14.63,44.8,15.49,55.322s-1.506,14.715-1.506,14.715a52.59,52.59,0,0,1-3.442,14.157c-2.8,6.519-4.679,11.782-5.164,22.539a57.5,57.5,0,0,0,3.227,20.49C10.058,135,0,149.575,0,149.575" transform="translate(81.076 26.753) rotate(-3)" fill="none" stroke="#ffb925" stroke-width="3"/>
      <path id="Path_28" data-name="Path 28" d="M7.977,17.787S17.846,10.024,25.16,7,44.094.221,55.281.031,77.043.314,91.856,7s15.921,16.7,15.921,16.7-.955,6.724-4.088,11.151a23.066,23.066,0,0,1-7.159,6.556,20.09,20.09,0,0,1-5.7,3.007,10.837,10.837,0,0,1-5.317,0,27.721,27.721,0,0,1-9.429,1.927,32.715,32.715,0,0,1-9.942-1.927,7.773,7.773,0,0,1-4.558,3.007c-3.134.752-7.977,0-7.977,0s-4.406,2.168-8.2,2.168a13.948,13.948,0,0,1-6.989-2.168s-5.982,3.758-9.875,3.007-5.7-6.014-5.7-6.014S11.068,51.1,2.712,41.407,7.977,17.787,7.977,17.787Z" transform="translate(4.373 0)" fill="url(#linear-gradient-9)"/>
      <path id="Path_41" data-name="Path 41" d="M6.056,0A24.478,24.478,0,0,1,4.672,6.024,19.805,19.805,0,0,1,1.66,10.973S-.6,13.07.154,15.706s4.518,5.809,4.518,5.809" transform="translate(11.738 23.671)" fill="none" stroke="#ffb925" stroke-width="2"/>
      <path id="Path_42" data-name="Path 42" d="M9.266,0A13.7,13.7,0,0,0,5.609,3.873,12.018,12.018,0,0,0,4.318,8.821s-4.034,3.5-4.3,7.745,3.227,9.251,3.227,9.251" transform="translate(6.928 17.217)" fill="none" stroke="#ffb925" stroke-width="2"/>
      <path id="Path_43" data-name="Path 43" d="M0,0S2.953,1.99,3.937,4.088a5.672,5.672,0,0,1,0,4.3s-.753,4.518,0,7.315S8.67,21.73,8.67,21.73" transform="translate(94.228 16.139)" fill="none" stroke="#ffb925" stroke-width="2"/>
      <path id="Path_44" data-name="Path 44" d="M4.454,16.749a7.1,7.1,0,0,1-1.657-3.7A5.535,5.535,0,0,1,4.454,9.7s1.113-3.041,0-5.466S0,0,0,0" transform="translate(85.471 25.122)" fill="none" stroke="#ffb925" stroke-width="2"/>
      <path id="Path_45" data-name="Path 45" d="M0,0S5.672,3.819,7.992,7.315a8.22,8.22,0,0,1,1.291,6.67,18.8,18.8,0,0,0-1.291,5.164A2.8,2.8,0,0,0,9.283,21.73" transform="translate(98.563 10.33)" fill="none" stroke="#ffb925" stroke-width="2"/>
      <path id="Path_46" data-name="Path 46" d="M4.688,0S1.524,3.093.469,5.917a7.993,7.993,0,0,0,0,5.379l1.506,5.164" transform="translate(22.18 26.143)" fill="none" stroke="#ffb925" stroke-width="2"/>
    </g>
    <g id="jelly2" transform="matrix(0.998, 0.07, -0.07, 0.998, 1122.719, 635.906)">
      <path id="Path_39-2" data-name="Path 39" d="M52.774,8.4l4.757,1.2a12.7,12.7,0,0,1-2.537,3.362c-1.269.961-6.661,4.562-6.661,4.562s-1.586.961-2.537,0-3.172-4.562-4.123-4.562-3.489-1.921-4.758,0-4.44,3.6-1.9,4.562,6.978,2.641,7.929,3.122,8.246,4.562,8.246,4.562a9.462,9.462,0,0,1,0,3.122c-.317,1.2-2.855,2.4-2.855,3.842s2.855,3.362,2.855,3.362-9.2.72-11.418,4.322,1.269,4.082,1.9,3.6,4.123-3.6,4.123-3.6,1.9,2.641,2.537,3.6-.317,3.842-2.537,6-1.9,4.082-4.123,4.082-4.441-2.4-6.661-2.641-4.123-1.441-6.344-1.441A13.94,13.94,0,0,0,22.643,50.9c-1.269.72-2.22,1.681,0,2.641s.634,2.161,6.026,1.681,6.978-.72,8.247,0,5.392,1.681,2.855,2.882-1.9.96-2.855,2.641-3.489,3.122,0,3.842,3.806-.961,6.026,1.441,2.537,4.082-1.269,4.322-4.758-1.2-4.758,0,1.9,3.362,2.855,4.082,2.22-.72,3.172,2.882S35.013,82.6,35.013,82.6s-5.392,3.122-2.22,6,0,.961,10.15,1.681,13.638-3.6,14.59,0,4.441,4.562,0,7.2-6.026,6-9.2,9.365-.317,1.441-2.537,5.283,1.269,4.562,2.537,6.243,4.441,0,4.441,4.082-.317,6.964-1.586,9.365-2.22,3.6,1.586,6,6.978,2.4,9.2,3.842,8.564,0,2.854,2.882-8.564,2.641-9.833,2.4-4.123-.72-5.392-2.4-2.538-3.6-3.807-4.082-.634-1.441-6.026,0-8.881,1.2-6.978-2.641,6.978-6.964,6.978-10.566,3.172-2.161-1.586-4.8-7.929-4.8-9.515-4.082-4.757,2.881-3.172,0,.317-2.161,3.172-5.283,10.784-3.122,4.123-6.243-6.661-4.082-10.15-3.842-3.489,3.6-5.709,0-3.806-1.921-3.172-5.523,1.9-7.444,1.586-8.885-.634-1.2-3.489-3.122S7.418,81.161,8.687,79.24s.634-3.6,3.172-4.8,4.441.48,5.075-4.082S18.2,64.832,18.2,61.71s-1.268-3.122,0-5.043,2.538-5.043,0-3.122-1.9-1.681-4.44,3.122.951,5.763-1.9,7.924S5.2,70.355,3.295,67.954s-3.806-1.2-1.586-6.243,3.171-5.043,3.171-9.125-9.832-3.122-1.586-7.2,10.784-6.964,10.467-9.845,3.489-1.441-1.9-3.362,11.859-1.681,9.321-2.641-5.075-1.2-6.026-4.322.634-4.322,0-5.763,2.221-.48,0-4.082S11.664,11.524,11.347,9.6,4.369,8.4,12.616,6,2.978,3.6,4.881,2.4,11.224-.963,13.762.478,16.3,0,16.933,2.4s-4.757-.48,0,4.8S28.986,9.6,30.255,9.6s.634-.72,2.537-2.4-2.22-3.6,2.22-3.122S41.039,4.8,42.942,6s3.489,2.4,5.392,2.4Z" transform="translate(23.48 35.52)" opacity="0.8" fill="url(#linear-gradient-10)"/>
      <path id="Path_40-2" data-name="Path 40" d="M42.955,118.489l4.393-6.1a12.563,12.563,0,0,0-2.683-2.932c-1.308-.855-6.845-4.081-6.845-4.081s-1.624-.865-2.526-.081-2.945,3.768-3.892,3.737-3.384,1.518-4.737-.152-4.589-3.2-2.108-3.93,6.824-2.017,7.749-2.394-8.231-4.126-8.231-4.126a6.861,6.861,0,0,0-.146-2.647c-.372-1.028-2.954-2.127-3.022-3.349s-1.734.644-1.734.644,11.455-3.788,9.076-6.914,1.072-3.421,1.727-2.994,4.274,3.186,4.274,3.186,1.771-2.179,2.358-2.973-.5-3.268-2.807-5.172-2.086-3.522-4.3-3.593S25.2,76.517,23,76.649s-4.038,1.09-6.249,1.019-1.555-.282-2.852-.934.566-.516,2.731-1.26-5.54-3.272-.148-2.693,6.981.833,8.211.263,5.29-1.253,2.708-2.352-1.94-.875-2.966-2.331-3.62-2.758-.179-3.258,3.835.936,5.933-1.03,2.335-3.381-1.465-3.706-4.681.866-4.737-.152,1.738-2.79,2.651-3.371,2.244.682,3.023-2.342a8.417,8.417,0,0,0-.292-5.294s-5.515-2.819-2.491-5.161-7.895-.253,2.177-.54,4.447.617,5.226-2.407,4.208-3.727-.337-6.109,3.02-2.41-.3-5.362-.383-1.232-2.773-4.561,1.05-3.828,2.235-5.213,4.421.142,4.23-3.32-.641-5.915-2.017-7.992S28.984,2.243,23.549.85s-8.9-1.3-6.824,2.017.307,5.566.475,8.62,9.153,5.917,4.539,8-6.6.4-8.211-.263-4.872-2.6-3.158-.1.417,1.843,3.4,4.581,10.883,2.991,4.4,5.426-6.441,3.249-9.926,2.934S4.6,28.9,2.561,31.887,14.9,35.9,15.7,38.976s2.242,6.373,1.994,7.585,3.427,2.752.674,4.29S14.15,54.374,15.5,56.043s.8,3.075,3.382,4.174.4-2.02,1.241,1.869S5.608,64.3,5.754,66.95s-1.117,2.607.236,4.276,2.762,4.357.146,2.647S4.969,76.55,5.16,80.012s-8.02,3.2.381,6.923S2.767,88.066,2.585,90.5s15.542,1.717,10.263,3.174-4.343,1.284-6.824,2.017-5,.856-5.8,3.473.833,3.685.269,4.887,18.461,1,16.419,3.981-3.294,3.147-3.52,4.766-3.855,3.463-1.9,4.542,2.416,2.923,4.875,1.782,2.549.488,3.068-1.528-4.715.256-.224-4.072-.283-2.042.98-2,.665.631,2.639,2.117-2.042,2.984,2.356,2.718,5.967-.419,7.805-1.376,3.65,3.307,5.545,3.368Z" transform="translate(69.799 146.182) rotate(-177)" opacity="0.8" fill="url(#linear-gradient-10)"/>
      <path id="Path_29-2" data-name="Path 29" d="M24.165,0S16.213,5.339,11.577,10.665A28.5,28.5,0,0,0,5.623,21.3S-.294,25.345.011,34.395,4.4,57.417,4.4,57.417A108.808,108.808,0,0,1,5.623,79.885a114.421,114.421,0,0,1-4.147,22.468" transform="translate(65.188 35.045)" fill="none" stroke="#ff555a" stroke-width="3"/>
      <path id="Path_30-2" data-name="Path 30" d="M24.209,0S11.522,4.88,6.4,16.347,2.739,45.869,2.739,45.869.421,67.644.055,84.418a203.263,203.263,0,0,0,1.22,28.546" transform="translate(61.729 24.616)" fill="none" stroke="#ff555a" stroke-width="3"/>
      <path id="Path_31-2" data-name="Path 31" d="M15.052,0s4.544,1.632,3.5,3.317-7.684,3.42-7.684,3.42A27.024,27.024,0,0,0,4.8,16.168c-2.31,5.985-3.176,14.51-3.176,14.51S-.287,37.441.037,50.06,2.925,81.153,2.925,81.153s.036,11.064.866,22.491S4.3,118.776,6.245,126.86s14.914,8.254,14.914,8.254c.676,1.219,8.723-1.31,9.228-7.425s-4.909-12.334-4.909-12.334l-8.085-12.645s-2.923-2.332-2.454-5.286,4.042-4.457,4.331-6.53-1.732-2.021-3.176-1.762-2.6,2.8-2.6,2.8" transform="matrix(0.998, -0.07, 0.07, 0.998, 49.242, 38.838)" fill="none" stroke="#ff555a" stroke-width="3"/>
      <path id="Path_32-2" data-name="Path 32" d="M25.832,0s.32,1.349-1.362,2.7A24.994,24.994,0,0,1,19.1,5.4S7.934,22.7,9.348,29.329s8.589,10.423,8.1,21.626-1.049,9.719-3.489,15S2.455,83.588,1.052,88.272s-1.4,12.476,0,15.436,7.624,6.969,8.3,9.891a17.461,17.461,0,0,1,0,6.294" transform="translate(42.301 38.004) rotate(1)" fill="none" stroke="#ff555a" stroke-width="3"/>
      <path id="Path_33-2" data-name="Path 33" d="M8.449,0s3.481.89,1.773,2.522-8.6,4.895-10,22.991S4.611,74.9,4.611,74.9,4.24,87.179,8.449,97.747s13,19.431,13,19.431" transform="translate(41.698 39.422)" fill="none" stroke="#ff555a" stroke-width="3"/>
      <path id="Path_34-2" data-name="Path 34" d="M9.759,0s1.83.01,2.44,3.85,0,11.508,0,11.508a242.287,242.287,0,0,1-1.22,26.227C9.515,56.237,6.343,73.967,6.343,73.967s-3.05,28.368-3.416,44.425S4.88,138.2,4.88,138.2s.183,15.857,3.416,23.015,6.27,3.479,7.02-2.08-.427-5.847-4.88-14.41S0,132.576,0,132.576" transform="translate(25.683 3.756)" fill="none" stroke="#ff555a" stroke-width="3"/>
      <path id="Path_35-2" data-name="Path 35" d="M0,0S4.575,3.592,7.076,14.542s3.345,15.58,3.833,26.832S2.684,58.945,4.148,82.229s3.738,32.311,3.738,32.311" transform="translate(19.782 33.733)" fill="none" stroke="#ff555a" stroke-width="3"/>
      <path id="Path_36-2" data-name="Path 36" d="M0,0S4.453,2.667,6.588,12.8,2.2,27.9,3.418,40.047s9.515,10.012,8.05,21.337S14.04,74.06,23.424,75.827s12.218,9.406,12.2,13.7-3.169,24.366,0,33.078" transform="translate(17.81 30.888)" fill="none" stroke="#ff555a" stroke-width="3"/>
      <path id="Path_37-2" data-name="Path 37" d="M3.551,0S6.065,1.782,6.065,4.311s-2.513,5.8-2.513,5.8-6.532,26.2-1.878,48.58S15.256,77.928,22.411,95.337a178.606,178.606,0,0,1,9.76,31.171" transform="translate(35.151 36.738)" fill="none" stroke="#ff555a" stroke-width="3"/>
      <path id="Path_38-2" data-name="Path 38" d="M0,0A26.291,26.291,0,0,1,6.577,10.594C8.478,16.9,7.6,25.223,7.6,25.223S3.7,40.441,2.878,49.941,4.316,63.226,4.316,63.226A45.278,45.278,0,0,0,7.6,76.005a47.886,47.886,0,0,1,4.933,20.346,49.373,49.373,0,0,1-3.083,18.5c-1.387,7.02,8.221,20.178,8.221,20.178" transform="translate(9.831 23.263)" fill="none" stroke="#ff555a" stroke-width="3"/>
      <path id="Path_28-2" data-name="Path 28" d="M91.991,24.255S82.894,13.668,76.152,9.54,58.7.3,48.388.043,28.33.428,14.675,9.539,0,32.318,0,32.318s.879,9.17,3.768,15.206a26.563,26.563,0,0,0,6.6,8.939s2.714,3.075,5.252,4.1a6.891,6.891,0,0,0,4.9,0,18.931,18.931,0,0,0,8.691,2.628c4.464,0,9.164-2.628,9.164-2.628a8.126,8.126,0,0,0,4.2,4.1c2.888,1.025,7.352,0,7.352,0s4.061,2.956,7.562,2.956,6.442-2.956,6.442-2.956,5.514,5.125,9.1,4.1,5.252-8.2,5.252-8.2,10.853,9.111,18.556-4.1S91.991,24.255,91.991,24.255Z" transform="translate(0 0)" fill="url(#linear-gradient-10)"/>
      <path id="Path_41-2" data-name="Path 41" d="M0,0A27.771,27.771,0,0,0,1.57,6.832a22.465,22.465,0,0,0,3.416,5.612s2.562,2.379,1.708,5.368S1.57,24.4,1.57,24.4" transform="translate(84.123 29.333)" fill="none" stroke="#ff555a" stroke-width="2"/>
      <path id="Path_42-2" data-name="Path 42" d="M0,0A15.531,15.531,0,0,1,4.148,4.392,13.627,13.627,0,0,1,5.611,10s4.575,3.965,4.88,8.783S6.831,29.278,6.831,29.278" transform="translate(85.938 32.643)" fill="none" stroke="#ff555a" stroke-width="2"/>
      <path id="Path_43-2" data-name="Path 43" d="M9.832,0S6.484,2.257,5.368,4.636a6.432,6.432,0,0,0,0,4.88s.854,5.124,0,8.3S0,24.642,0,24.642" transform="translate(10.491 31.314)" fill="none" stroke="#ff555a" stroke-width="2"/>
      <path id="Path_44-2" data-name="Path 44" d="M.561,18.994s1.879-2.2,1.879-4.2A6.277,6.277,0,0,0,.561,11S-.7,7.548.561,4.8,5.612,0,5.612,0" transform="translate(19.807 38.827)" fill="none" stroke="#ff555a" stroke-width="2"/>
      <path id="Path_45-2" data-name="Path 45" d="M10.786,0S4.354,4.331,1.722,8.3A9.322,9.322,0,0,0,.258,15.859a21.321,21.321,0,0,1,1.464,5.856A3.171,3.171,0,0,1,.258,24.642" transform="translate(4.622 23.315)" fill="none" stroke="#ff555a" stroke-width="2"/>
      <path id="Path_46-2" data-name="Path 46" d="M0,0S3.589,3.507,4.785,6.71a9.064,9.064,0,0,1,0,6.1L3.077,18.665" transform="translate(77.785 29.413)" fill="none" stroke="#ff555a" stroke-width="2"/>
    </g>
    <g id="solid-button" transform="translate(-1414 656)">
      <g transform="matrix(1, 0, 0, 1, 1414, -656)" filter="url(#Rectangle_2)">
        <rect id="Rectangle_2-2" data-name="Rectangle 2" width="211.885" height="64.953" rx="32" transform="translate(305 689)" fill="url(#linear-gradient-13)"/>
      </g>
      <text id="VISIT" transform="translate(1825.173 78.476)" fill="#fff" font-size="35" font-family="SegoeUI-Semibold, Segoe UI" font-weight="600"><tspan x="-40.614" y="0">VISIT</tspan></text>
    </g>
    <g id="big_fish" data-name="big fish" transform="matrix(1, -0.017, 0.017, 1, 661.99, 201.704)">
      <path id="Path_51" data-name="Path 51" d="M0,232.862s23.4,11.556,45.084,18.547a251.53,251.53,0,0,0,41.66,9.416l71.62,6.848s46.993-46.913,112.809-81.984,150.455-58.3,150.455-58.3-5.015-68.332,15.045-67.7,113.468,32.6,113.468,32.6,52.973-8.62,97.8-13.792,81.5-6.9,81.5-6.9-5.015-33.226-23.2-45.763S663.573,11.584,660.282,5.159,676.931.128,693.073.128s15.807-.3,40.256,5.031,26.822,7.037,57.54,16.284a440.177,440.177,0,0,1,57.048,21.941S926.278,41.5,999,36.488s130.118,3.621,136.387,21.174,15.948,72.39-31.7,126.147S960.131,251.587,930.667,256.6s-73.974,3.061-73.974,3.061L732.568,247.125s-109.707-11.911-161.739-3.135-110.085,40.345-118.234,35.956-11.025-19.563-19.417-22.962-66.716-12.367-109.346,6.44-136.036,67.7-136.036,67.7l-10.657,11.284s-4.232,17.4,0,49.525,16.926,78.989,16.926,78.989,3.448,6.9,0,10.03-13.791,2.508-13.791,2.508-44.51-98.423-65.824-127.887c-10.38-14.349-27.583-29.464-58.928-58.928S0,232.862,0,232.862Z" transform="translate(0 2.387)" fill="url(#linear-gradient-14)"/>
      <path id="Path_52" data-name="Path 52" d="M1139.051,75.862s-21.995-9.4-38.137-12.538-35.106,0-35.106,0A440.916,440.916,0,0,1,990.58,75.862c-41.218,3.134-51.963,3.3-89.646,0s-97.964-31.326-97.964-31.326-28.042-18.669-53.745-24.468S695.4,5.263,693.691,9.543s36.258,25.1,46.132,41.243,4.763,23.771,3.665,29.7-22.315,28.917-39.4,41.142-43.883,18.807-43.883,18.807-24.449,8.15-71.466,8.15-52.972-13.635-116.6-8.15-84.631,7.523-137.917,30.091-188.6,122.362-188.068,136.663,5.642,26.33,8.15,30.091,22.672,7.038,22.672,7.038a329,329,0,0,0,2.535,63.748c4.823,33.889,16.8,68.9,15.785,72.432s-2.526,5-6.378,6.14-5.311,1.353-9.417-1.712-18.294-42.691-36.556-76.86a615.622,615.622,0,0,0-36.491-59.819S75.782,319.539,48.389,293,1.126,245.764.02,235.819s43.943,17.406,43.943,17.406,33.88,8.063,37.314,9.463c42.043,3.977,77.107,7.657,77.107,7.657s50.078-49.079,115.849-84.176,147.236-56.212,147.236-56.212S415.2,65.185,434.6,62.332s116.99,32.814,116.99,32.814,48.563-8.061,93.3-13.411,83.647-7.7,83.647-7.7-1.22-25.181-18.3-41.375S651.115,11.123,660.206,5.2s28.176-8.209,75.138.922,112.71,39.663,112.71,39.663,221.72-13.7,251.671-5.136c11.423,2.283,30.929,6.278,34.069,14.267S1139.051,75.862,1139.051,75.862Z" transform="translate(0.267 0)" fill="url(#linear-gradient-15)"/>
      <path id="Path_50" data-name="Path 50" d="M84.545,4.676s.795,18.54-6.357,28.605S55.94,44.935,55.94,44.935s-19.695,6.74-33.868,18.059-27,25.242-20.193,28.315,42.691,4.445,84.944-5.926,81.432-36.655,81.432-36.655L216.1,14.267,84.545,0Z" transform="translate(647.933 249.713)" fill="url(#linear-gradient-16)"/>
    </g>
    <g id="Nav_bar_2" data-name="Nav bar 2" transform="translate(140 25)">
      <path id="Path_210" data-name="Path 210" d="M21.2,0H181.951a21.353,21.353,0,0,1,21.2,21.5,21.353,21.353,0,0,1-21.2,21.5H21.2A21.353,21.353,0,0,1,0,21.5,21.353,21.353,0,0,1,21.2,0Z" transform="translate(1436.857 12)" fill="url(#linear-gradient-17)"/>
      <text id="LEARN" transform="translate(1276 46)" fill="#707bff" font-size="32" font-family="SegoeUI, Segoe UI"><tspan x="0" y="0">LEARN</tspan></text>
      <text id="AQUARIUM" transform="translate(0 52)" fill="#707bff" font-size="48" font-family="SegoeUI-Bold, Segoe UI" font-weight="700"><tspan x="0" y="0">AQUARIUM</tspan></text>
      <text id="ABOUT" transform="translate(1088 46)" fill="#707bff" font-size="32" font-family="SegoeUI, Segoe UI"><tspan x="0" y="0">ABOUT</tspan></text>
      <text id="TICKETS" transform="translate(1478 46)" fill="#fff" font-size="32" font-family="SegoeUI, Segoe UI"><tspan x="0" y="0">TICKETS</tspan></text>
    </g>
  </g>
</svg>
