<svg xmlns="http://www.w3.org/2000/svg" xmlns:xlink="http://www.w3.org/1999/xlink" width="1920" height="1063" viewBox="0 0 1920 1063">
  <defs>
    <linearGradient id="linear-gradient" x1="0.436" y1="-0.058" x2="0.386" y2="1.019" gradientUnits="objectBoundingBox">
      <stop offset="0" stop-color="#57a0ff"/>
      <stop offset="1" stop-color="#6f7cff"/>
    </linearGradient>
    <linearGradient id="linear-gradient-2" x1="0.5" y1="0.622" x2="0.506" y2="0.936" gradientUnits="objectBoundingBox">
      <stop offset="0" stop-color="#86c5fb"/>
      <stop offset="1" stop-color="#3e90fa"/>
    </linearGradient>
    <linearGradient id="linear-gradient-3" x1="0.503" y1="0.212" x2="0.503" y2="0.655" gradientUnits="objectBoundingBox">
      <stop offset="0" stop-color="#57a0ff"/>
      <stop offset="1" stop-color="#7772ff"/>
    </linearGradient>
    <linearGradient id="linear-gradient-4" x1="0.521" y1="0.462" x2="0.478" y2="-0.376" gradientUnits="objectBoundingBox">
      <stop offset="0" stop-color="#f2f2f2"/>
      <stop offset="1" stop-color="#797979"/>
    </linearGradient>
    <linearGradient id="linear-gradient-5" x1="0.468" y1="-0.173" x2="0.559" y2="0.489" gradientUnits="objectBoundingBox">
      <stop offset="0" stop-color="#c7c7c7"/>
      <stop offset="1" stop-color="#646464"/>
    </linearGradient>
    <linearGradient id="linear-gradient-6" x1="0.515" y1="-1.449" x2="0.477" y2="0.717" xlink:href="#linear-gradient-5"/>
    <filter id="Rectangle_2" x="343" y="792" width="326.385" height="79.453" filterUnits="userSpaceOnUse">
      <feOffset dx="10" dy="10" input="SourceAlpha"/>
      <feGaussianBlur stdDeviation="1.5" result="blur"/>
      <feFlood flood-opacity="0.161"/>
      <feComposite operator="in" in2="blur"/>
      <feComposite in="SourceGraphic"/>
    </filter>
    <filter id="Path_11" x="230.674" y="948" width="267.471" height="87.097" filterUnits="userSpaceOnUse">
      <feOffset dx="10" dy="10" input="SourceAlpha"/>
      <feGaussianBlur stdDeviation="1.5" result="blur-2"/>
      <feFlood flood-opacity="0.161"/>
      <feComposite operator="in" in2="blur-2"/>
      <feComposite in="SourceGraphic"/>
    </filter>
    <filter id="Path_35" x="559.018" y="948" width="263.154" height="87.873" filterUnits="userSpaceOnUse">
      <feOffset dx="10" dy="10" input="SourceAlpha"/>
      <feGaussianBlur stdDeviation="1.5" result="blur-3"/>
      <feFlood flood-opacity="0.161"/>
      <feComposite operator="in" in2="blur-3"/>
      <feComposite in="SourceGraphic"/>
    </filter>
    <linearGradient id="linear-gradient-7" x1="0.558" y1="0.34" x2="-0.062" y2="0.056" gradientUnits="objectBoundingBox">
      <stop offset="0" stop-color="#ffb925"/>
      <stop offset="1" stop-color="#fff"/>
    </linearGradient>
    <linearGradient id="linear-gradient-8" x1="0.288" y1="0.57" x2="-0.401" y2="-0.24" gradientUnits="objectBoundingBox">
      <stop offset="0" stop-color="#ffd250"/>
      <stop offset="1" stop-color="#fff"/>
    </linearGradient>
    <linearGradient id="linear-gradient-9" x1="0.713" y1="0.612" x2="2.506" y2="0.047" gradientUnits="objectBoundingBox">
      <stop offset="0" stop-color="#f3c297"/>
      <stop offset="1" stop-color="#fff"/>
    </linearGradient>
    <linearGradient id="linear-gradient-10" x1="0.414" y1="0.636" x2="1.209" y2="0.618" gradientUnits="objectBoundingBox">
      <stop offset="0" stop-color="#e5b48b"/>
      <stop offset="1" stop-color="#f3c297"/>
    </linearGradient>
    <linearGradient id="linear-gradient-11" x1="0.5" x2="-0.024" y2="1.34" gradientUnits="objectBoundingBox">
      <stop offset="0" stop-color="#333"/>
      <stop offset="1" stop-color="#3e3e3e"/>
    </linearGradient>
    <linearGradient id="linear-gradient-12" x1="0.5" x2="0.478" y2="1.28" gradientUnits="objectBoundingBox">
      <stop offset="0" stop-color="#ffd250"/>
      <stop offset="1" stop-color="#ffb925"/>
    </linearGradient>
    <linearGradient id="linear-gradient-13" x1="0.394" y1="0.056" x2="0.412" y2="1.009" gradientUnits="objectBoundingBox">
      <stop offset="0" stop-color="#ff9589"/>
      <stop offset="1" stop-color="#ff5559"/>
    </linearGradient>
    <linearGradient id="linear-gradient-16" x1="0.5" y1="1.32" x2="0.5" y2="-0.124" gradientUnits="objectBoundingBox">
      <stop offset="0" stop-color="#7376ff"/>
      <stop offset="1" stop-color="#6eb4fb"/>
    </linearGradient>
    <filter id="Rectangle_2-2" x="343" y="792" width="326.385" height="79.453" filterUnits="userSpaceOnUse">
      <feOffset dx="10" dy="10" input="SourceAlpha"/>
      <feGaussianBlur stdDeviation="1.5" result="blur-4"/>
      <feFlood flood-opacity="0.161"/>
      <feComposite operator="in" in2="blur-4"/>
      <feComposite in="SourceGraphic"/>
    </filter>
    <linearGradient id="linear-gradient-17" x1="0.5" y1="-0.13" x2="0.515" y2="1.198" gradientUnits="objectBoundingBox">
      <stop offset="0" stop-color="#6eb3fb"/>
      <stop offset="1" stop-color="#7772ff"/>
    </linearGradient>
    <clipPath id="clip-path">
      <rect width="16" height="16" fill="none"/>
    </clipPath>
    <clipPath id="clip-Hero_Section">
      <rect width="1920" height="1063"/>
    </clipPath>
  </defs>
  <g id="Hero_Section" data-name="Hero Section" clip-path="url(#clip-Hero_Section)">
    <rect width="1920" height="1063" fill="#fff"/>
    <path id="Path_60" data-name="Path 60" d="M5018.622,3370.447c50.524-60.384-70.343-128.133-36.795-235.944s100.637-71.442,136.958-116.788,28.921-100.271,0-126.877-99.943,33.778-136.958,7.4-14.346-65-107.349-76.182-154.775-5.321-264.668,31.464-145.927,44.718-145.927,44.718-61.953,30.241-99.895-14.179-71.026-59.458-111.05-45.345-36.553,183.464,0,243.384,48.479,54.368,53.338,98.094-72.971,39.071-72.971,39.071-78.833,27.175-77.215,57.714,8.561,74.727,60.154,93.467,133.108-77.26,303.385-71.939c107.441,3.357,279.309,71.939,279.309,71.939S4968.1,3430.83,5018.622,3370.447Z" transform="translate(-3446.293 -2429.347)" fill="#dff2ff" opacity="0.62"/>
    <path id="Path_58" data-name="Path 58" d="M4375.33,3509.042c-139.322,19.574,20.534-128.679,0-162.1s35.929-94.911,22.549-136.342c-43.021-133.214-148.05-178.38-194.631-234.411s-64.384-107.772-27.3-140.647,128.171,41.736,175.643,9.148,137.666-20.583,137.666-20.583,198.489-6.575,339.418,38.878,131.436,133.5,224.3,142.934,98.5-50.312,147.161-105.2,91.083-73.468,142.412-56.03,46.878,226.692,0,300.732-151.283,135.07-94.318,155.938,94.942-8.575,128.173-11.434,70.909-2.288,68.832,35.447,13.327,111.351-52.835,134.506-64.093,20.865-143.607,22.866-44.819,5.39-263.187,11.964S4577.542,3480.634,4375.33,3509.042Z" transform="translate(-3665.464 -2597.002)" fill="#eaf1f6" opacity="0.58"/>
    <path id="blue_bg" data-name="blue bg" d="M4705.959,3183.437c31.86-19.236,51.444-28.594,87.765-73.939s14.428-120.83,7.214-159.3-35.757-13.234-122.03-52.9-142.81,65.2-145.474,70.332c-13.967,26.927-78.1,31.045-67.928,96.182,11.494,73.588,43.686,125.874,85.786,141.166C4602.883,3223.718,4674.1,3202.673,4705.959,3183.437Z" transform="translate(-3513.293 -2307.347)" opacity="0.62" fill="url(#linear-gradient)"/>
    <g id="big_fish_2" data-name="big fish 2" transform="translate(1070.221 430.134)">
      <path id="Path_53" data-name="Path 53" d="M8014.381,306.324a78.526,78.526,0,0,1-11.432-7.475,41.464,41.464,0,0,1-8.461-10.449,13.77,13.77,0,0,0,2.732-.911c.911-.5.911-1.093.911-1.093s-5.557-6.012-4.555-9.2,4.555-4.1,4.555-4.1,52.466-5.614,59.856-6.846,31.406-6.312,41.258-9.391c4.789-1.5,53.114-10.777,53.114-10.777l48.8-5.388s27.71-1.27,44.338-1.078,22.169,1.847,22.169,1.847,18.32.462,22.478-3.387,16.472-13.24,16.472-13.24,17.4-10.315,25.71-12.624,11.623-3.618,18.32-1.54,8.468,9.853,8.468,9.853.771,21.091,1.384,24.017,8.622,8.775,8.622,8.775l-2.462,2.463s15.715,2.728,24.786,5.08a164.911,164.911,0,0,0,19.859,3.541s9.737,3.464,19.091,6.158,18.319,4.619,18.319,4.619a142.266,142.266,0,0,1,24.018,4.311,109.756,109.756,0,0,0,23.091,3.695s8.946-3.739,14.026-11.591a49.515,49.515,0,0,1,11.3-12.3s30.254-22.6,53.654-38.767,45.109-20.63,45.109-20.63-15.128,16.7-28.02,32.792-23.555,31.56-23.555,31.56-14.088,20.4-21.093,32.946-6.928,17.243-6.928,17.243-.462,23.709,0,34.639-6,6.928-6,6.928-10.275-9.314-16.78-18.012a67.316,67.316,0,0,1-9.236-16.781s-3.7-7.813-8.161-11.7a15.986,15.986,0,0,0-9.7-3.849l-31.869,2.309s-22.015,1.847-43.567,2.617a314.113,314.113,0,0,0-41.26,4.465,29.3,29.3,0,0,1-4.619,4.773,64.087,64.087,0,0,1-6.927,4.773s-.386,3.656-1.7,5.542a4.966,4.966,0,0,1-3.539,2s-22.631-1.232-29.405-3.079-29.713-5.234-29.713-5.234-22.307,1.321-43.386,3.4-40.925,4.914-40.925,4.914l-32.809,5.571-34.838,1.691s-39.844,6.579-72.72-1.691S8014.381,306.324,8014.381,306.324Z" transform="translate(-7993.455 -199.896)" fill="url(#linear-gradient-2)"/>
      <path id="Path_54" data-name="Path 54" d="M7998.91,287.207a71.342,71.342,0,0,1,17.612,0,81.066,81.066,0,0,1,17.612,5,223.5,223.5,0,0,0,31.277,12.1,237.64,237.64,0,0,0,33.484,6.765s21.985,2.2,34.838,0,18.344-7.763,18.344-7.763a146.949,146.949,0,0,1,16.779-2.463c9.989-.935,21.4-2.309,21.4-2.309a69.392,69.392,0,0,1,15.974-4.675,90.906,90.906,0,0,1,18.058-.539,13.891,13.891,0,0,1-2.372,5.214c-2.008,2.884-4.242,3.8-5.323,6.321s-.135,9.055-2.742,14.178-5.187,5.932-7.924,5.66-6.759-3.727-6.99-6.269a34.672,34.672,0,0,1,0-5.26s-1.173.359-1.563,2.36a25.359,25.359,0,0,0,0,5.645s.426,3.381,2.49,4.848,5.707,1.818,5.707,1.818a26.189,26.189,0,0,0,7.368-1.18,10.177,10.177,0,0,0,4.465-3.323s3.661-9.918,7.683-13.974,16.343-4.5,16.343-4.5,10.873-.632,26.867,0,29.219.161,50.434-2.841,19.659-8.714,24.418-13.409,16.462-4.522,35.241-5.465,52.649,2.5,69.125,4.157,36.64,4.157,36.64,4.157l36.025,6.312a110.365,110.365,0,0,0-12.524,4.341,81.147,81.147,0,0,0-10.673,5.66,20.474,20.474,0,0,1,8.743,10.014c3.188,7.336,9.854,19.4,9.854,19.4s17.076,21.054,21.8,20.193,2.806-22.965,2.806-22.965V314.221l29.105-51.862s53.736-61,50.189-61.735-12.163,1.078-35.872,14.625-26.065,14.9-46.229,30.518-30.029,27.461-34.429,31.945a38.02,38.02,0,0,1-7.4,5.891s-16.587-3.889-38.541-7.26-45.361-11.21-45.361-11.21l-44.819-9.019,2.368-2.369L8365.9,251.1s-3.569-2.886-4.622-5.335c-2.335-5.429-1.421-13.737-1.421-13.737s1.147-7.812-1.681-14.174a13.726,13.726,0,0,0-9.333-7.5c-11.487-2.605-35.852,10.412-35.852,10.412s-13.176,9.246-23.6,17.062c-3.521,2.642-6.882,2.879-10.06,3.2-5.991.6-10.989-1.029-13.737-1.421-4.15-.592-47.784-.457-92.361,4.728s-87.529,16.607-87.529,16.607-13.256,4.152-35.436,7.014-52.656,5.259-52.656,5.259-4.421,2.12-4.1,5.617S7998.91,287.207,7998.91,287.207Z" transform="translate(-7993.485 -200.316)" fill="url(#linear-gradient-3)"/>
      <path id="Path_55" data-name="Path 55" d="M8647.25,586.006a133.214,133.214,0,0,0,20.11,2.523c9.95.35,18.71.771,18.71.771s4.484-1.051,4.9-3.784-3.922-4.749-3.922-4.749l-17.3,1.755Z" transform="translate(-8428.72 -453.46)" fill="#57a0ff"/>
      <path id="Path_56" data-name="Path 56" d="M9245.5,375.757a88.934,88.934,0,0,0,9.925-3.173c5.27-2.043,11.154-5,11.154-5s8.072-3.341,9.7,1.33,2.072,13.013,2.072,13.013,6.4,5.241,4.25,4.864-10.343-2.64-19.431-5.183S9245.5,375.757,9245.5,375.757Z" transform="translate(-8827.004 -310.765)" fill="#57a0ff"/>
      <path id="Path_57" data-name="Path 57" d="M9256.492,526.028s7.193,4.855,14.564,9,14.923,7.579,14.923,7.579,1.982.533,3.315-2.487,1.421-8.764,1.421-8.764a38.952,38.952,0,0,1,4.854-4.855,26.464,26.464,0,0,1,5.212-3.2Z" transform="translate(-8834.324 -415.205)" fill="#57a0ff"/>
    </g>
    <g id="big_fish" data-name="big fish" transform="matrix(1, -0.017, 0.017, 1, 807.306, 204.595)">
      <path id="Path_51" data-name="Path 51" d="M0,207.835s20.883,10.314,40.238,16.554a224.5,224.5,0,0,0,37.183,8.4l63.923,6.112s41.942-41.871,100.685-73.173S376.313,113.7,376.313,113.7s-4.476-60.988,13.428-60.428,101.273,29.1,101.273,29.1S538.294,74.67,578.3,70.054,651.037,63.9,651.037,63.9s-4.476-29.655-20.7-40.845S592.255,10.339,589.318,4.6s14.86-4.49,29.267-4.49,14.108-.266,35.929,4.49,23.939,6.281,51.356,14.534a392.871,392.871,0,0,1,50.916,19.583s69.94-1.679,134.844-6.155,116.133,3.232,121.729,18.9,14.234,64.61-28.289,112.589-128.13,60.494-154.427,64.97-66.024,2.732-66.024,2.732l-110.785-11.19s-97.916-10.631-144.356-2.8-98.253,36.009-105.527,32.092-9.84-17.46-17.33-20.495-59.546-11.038-97.594,5.748-121.415,60.428-121.415,60.428L158.1,305.613s-3.777,15.527,0,44.2,15.106,70.5,15.106,70.5,3.077,6.155,0,8.952-12.309,2.238-12.309,2.238-39.726-87.845-58.75-114.142c-9.264-12.807-24.619-26.3-52.595-52.595S0,207.835,0,207.835Z" transform="translate(0 2.131)" fill="url(#linear-gradient-4)"/>
      <path id="Path_52" data-name="Path 52" d="M1016.63,67.709S997,59.316,982.592,56.518s-31.333,0-31.333,0a393.529,393.529,0,0,1-67.143,11.19c-36.788,2.8-46.378,2.949-80.011,0S716.67,39.749,716.67,39.749,691.642,23.087,668.7,17.911,620.664,4.7,619.136,8.518s32.361,22.4,41.174,36.81,4.251,21.216,3.271,26.506-19.917,25.809-35.164,36.72-39.167,16.786-39.167,16.786-21.821,7.274-63.785,7.274-47.279-12.17-104.07-7.274S345.86,132.054,298.3,152.2,129.97,261.408,130.445,274.172s5.036,23.5,7.274,26.857,20.236,6.281,20.236,6.281a293.639,293.639,0,0,0,2.262,56.9c4.3,30.247,14.992,61.493,14.089,64.648s-2.255,4.462-5.693,5.48-4.74,1.207-8.4-1.528-16.328-38.1-32.627-68.6a549.463,549.463,0,0,0-32.569-53.39s-27.374-25.62-51.823-49.3S1.005,219.35.018,210.475s39.22,15.535,39.22,15.535,30.239,7.2,33.3,8.446c37.524,3.549,68.82,6.834,68.82,6.834s44.7-43.8,103.4-75.129S376.171,115.99,376.171,115.99s-5.6-57.811,11.72-60.358S492.308,84.92,492.308,84.92s43.344-7.195,83.273-11.97,74.657-6.876,74.657-6.876S649.149,43.6,633.9,29.146,581.136,9.928,589.25,4.638s25.148-7.327,67.063.823,100.6,35.4,100.6,35.4S954.8,28.637,981.532,36.277c10.2,2.038,27.605,5.6,30.407,12.734S1016.63,67.709,1016.63,67.709Z" transform="translate(0.239 0)" fill="url(#linear-gradient-5)"/>
      <path id="Path_50" data-name="Path 50" d="M75.458,4.174s.709,16.548-5.673,25.531-19.857,10.4-19.857,10.4S32.35,46.122,19.7,56.224-4.4,78.753,1.676,81.5s38.1,3.967,75.815-5.289,72.68-32.716,72.68-32.716l42.707-30.757L75.458,0Z" transform="translate(578.296 222.876)" fill="url(#linear-gradient-6)"/>
    </g>
    <g id="content" transform="translate(-659 95)">
      <g id="Group_568" data-name="Group 568" transform="translate(837 274)">
        <text id="EXPLORE_LIKE_NEVER_BEFORE" data-name="EXPLORE LIKE 
NEVER BEFORE" transform="translate(340 82)" fill="#707bff" font-size="63" font-family="Roboto-Bold, Roboto" font-weight="700"><tspan x="-213.333" y="0">EXPLORE LIKE </tspan><tspan x="-220.869" y="83">NEVER BEFORE</tspan></text>
      </g>
      <text id="ZamQuests_gets_the_most_out_of_your_museum_visit_aquarium_park_historic_city_visitis._Delve_into_ZamQuests_were_you_can_be_immersed_into_the_story_and_interact_with_the_physical_world_" data-name="ZamQuests gets the most out of your museum visit, aquarium, park, historic city visitis.  Delve into ZamQuests were you can be immersed into the story and interact with the physical world! " transform="translate(882 483)" fill="#707bff" font-size="24" font-family="Roboto-Regular, Roboto"><tspan x="0" y="25">ZamQuests gets the most out of your museum visit, </tspan><tspan x="0" y="61" xml:space="preserve">aquarium, park, historic city visitis.  Delve into ZamQuests </tspan><tspan x="0" y="97">were you can be immersed into the story and interact with </tspan><tspan x="0" y="133">the physical world! </tspan></text>
    </g>
    <g id="solid-button" transform="translate(-1326 759)">
      <g transform="matrix(1, 0, 0, 1, 1326, -759)" filter="url(#Rectangle_2)">
        <rect id="Rectangle_2-3" data-name="Rectangle 2" width="311.885" height="64.953" rx="32" transform="translate(343 792)" fill="#707bff"/>
      </g>
      <text id="SIGN_UP" data-name="SIGN UP" transform="translate(1825.173 75.476)" fill="#fff" font-size="26" font-family="Roboto-Bold, Roboto" font-weight="700"><tspan x="-49.994" y="0">SIGN UP</tspan></text>
    </g>
    <rect id="Rectangle_469" data-name="Rectangle 469" width="350" height="76" transform="translate(1176 772)" fill="none"/>
    <g id="Download_on_the_App_Store_Badge" transform="translate(230.673 948)">
      <g transform="matrix(1, 0, 0, 1, -230.67, -948)" filter="url(#Path_11)">
        <path id="Path_11-2" data-name="Path 11" d="M253.862,66.209a7.277,7.277,0,0,1-7.285,7.277H8.184A7.286,7.286,0,0,1,.89,66.209V8.177A7.3,7.3,0,0,1,8.184.89H246.576a7.285,7.285,0,0,1,7.285,7.287l0,58.032Z" transform="translate(229.78 947.11)" fill="#2ecca3"/>
      </g>
      <g id="Group_9" data-name="Group 9" transform="translate(22.614 10.121)">
        <g id="Group_8" data-name="Group 8">
          <path id="Path_12" data-name="Path 12" d="M45.731,26.456a11.014,11.014,0,0,1,5.246-9.242,11.281,11.281,0,0,0-8.884-4.8c-3.737-.393-7.363,2.236-9.266,2.236-1.942,0-4.874-2.2-8.033-2.134a11.828,11.828,0,0,0-9.956,6.072c-4.305,7.454-1.094,18.407,3.031,24.432,2.063,2.951,4.475,6.245,7.63,6.129,3.088-.127,4.241-1.968,7.967-1.968,3.692,0,4.775,1.968,7.993,1.894,3.314-.053,5.4-2.964,7.391-5.941a24.382,24.382,0,0,0,3.38-6.884A10.647,10.647,0,0,1,45.731,26.456Z" transform="translate(-12.792 -0.678)" fill="#fff"/>
          <path id="Path_13" data-name="Path 13" d="M30.368,13.986a10.841,10.841,0,0,0,2.481-7.769,11.043,11.043,0,0,0-7.14,3.694,10.317,10.317,0,0,0-2.546,7.482A9.122,9.122,0,0,0,30.368,13.986Z" transform="translate(-3.509 -6.217)" fill="#fff"/>
        </g>
      </g>
      <g id="Group_10" data-name="Group 10" transform="translate(78.889 32.511)">
        <path id="Path_14" data-name="Path 14" d="M63.757,43.481H59.442l-2.364-7.427H48.862l-2.252,7.427h-4.2L50.55,18.2h5.027ZM56.366,32.938l-2.138-6.6q-.339-1.012-1.275-4.763h-.076q-.373,1.613-1.2,4.763l-2.1,6.6Z" transform="translate(-42.41 -17.825)" fill="#fff"/>
        <path id="Path_15" data-name="Path 15" d="M72.979,30.977a10.361,10.361,0,0,1-2.514,7.351,7.35,7.35,0,0,1-5.59,2.4A5.59,5.59,0,0,1,59.7,38.142h-.076v9.6H55.571V28.087q0-2.924-.15-6h3.563l.226,2.89h.076a7.208,7.208,0,0,1,11.535-.714A10.045,10.045,0,0,1,72.979,30.977Zm-4.127.148a7.506,7.506,0,0,0-1.2-4.389,4.147,4.147,0,0,0-3.526-1.8,4.212,4.212,0,0,0-2.719.994,4.609,4.609,0,0,0-1.594,2.609,5.3,5.3,0,0,0-.188,1.235v3.04a4.871,4.871,0,0,0,1.22,3.359,4.043,4.043,0,0,0,3.169,1.37,4.147,4.147,0,0,0,3.563-1.763A7.76,7.76,0,0,0,68.852,31.126Z" transform="translate(-30.7 -14.662)" fill="#fff"/>
        <path id="Path_16" data-name="Path 16" d="M84.015,30.977A10.353,10.353,0,0,1,81.5,38.329a7.343,7.343,0,0,1-5.588,2.4,5.584,5.584,0,0,1-5.176-2.588H70.66v9.6H66.609V28.087q0-2.924-.15-6h3.563l.226,2.89h.076a7.209,7.209,0,0,1,11.537-.714A10.073,10.073,0,0,1,84.015,30.977Zm-4.127.148a7.507,7.507,0,0,0-1.2-4.389,4.142,4.142,0,0,0-3.525-1.8,4.217,4.217,0,0,0-2.721.994,4.606,4.606,0,0,0-1.592,2.609,5.407,5.407,0,0,0-.188,1.235v3.04a4.886,4.886,0,0,0,1.216,3.359,4.052,4.052,0,0,0,3.173,1.37,4.147,4.147,0,0,0,3.563-1.763A7.76,7.76,0,0,0,79.888,31.126Z" transform="translate(-20.765 -14.662)" fill="#fff"/>
        <path id="Path_17" data-name="Path 17" d="M95.47,36.566a6.739,6.739,0,0,1-2.246,5.252,9.954,9.954,0,0,1-6.888,2.214,12.057,12.057,0,0,1-6.553-1.575l.939-3.376a11.1,11.1,0,0,0,5.856,1.615,5.536,5.536,0,0,0,3.566-1.034A3.375,3.375,0,0,0,91.417,36.9a3.522,3.522,0,0,0-1.051-2.592,9.767,9.767,0,0,0-3.488-1.955q-6.641-2.477-6.639-7.25a6.416,6.416,0,0,1,2.328-5.109A9.176,9.176,0,0,1,88.757,18a12.273,12.273,0,0,1,5.738,1.2l-1.013,3.3a9.956,9.956,0,0,0-4.839-1.163,4.9,4.9,0,0,0-3.336,1.051,3,3,0,0,0-1.013,2.29,3.09,3.09,0,0,0,1.161,2.476,13.121,13.121,0,0,0,3.678,1.951,12.48,12.48,0,0,1,4.8,3.074A6.423,6.423,0,0,1,95.47,36.566Z" transform="translate(-8.774 -18.001)" fill="#fff"/>
        <path id="Path_18" data-name="Path 18" d="M100.348,27.1H95.883v8.852q0,3.377,2.364,3.376a7.2,7.2,0,0,0,1.8-.188l.112,3.076a9.178,9.178,0,0,1-3.15.448A4.861,4.861,0,0,1,93.255,41.2q-1.348-1.465-1.351-4.915V27.1h-2.66v-3.04H91.9V20.718l3.979-1.2v4.539h4.465V27.1Z" transform="translate(-0.259 -16.637)" fill="#fff"/>
        <path id="Path_19" data-name="Path 19" d="M114.15,31.051a10,10,0,0,1-2.4,6.9,8.574,8.574,0,0,1-6.68,2.776,8.153,8.153,0,0,1-6.394-2.662,9.7,9.7,0,0,1-2.383-6.715,9.9,9.9,0,0,1,2.457-6.939,8.5,8.5,0,0,1,6.62-2.7,8.327,8.327,0,0,1,6.452,2.664A9.585,9.585,0,0,1,114.15,31.051Zm-4.2.131a8.2,8.2,0,0,0-1.087-4.326,4,4,0,0,0-3.637-2.181,4.062,4.062,0,0,0-3.715,2.181,8.359,8.359,0,0,0-1.087,4.4,8.189,8.189,0,0,0,1.087,4.324,4.14,4.14,0,0,0,7.315-.038A8.23,8.23,0,0,0,109.947,31.182Z" transform="translate(6.085 -14.661)" fill="#fff"/>
        <path id="Path_20" data-name="Path 20" d="M117.242,25.648a7.034,7.034,0,0,0-1.277-.112,3.827,3.827,0,0,0-3.3,1.615,6.07,6.07,0,0,0-1.013,3.6v9.567H107.6l.038-12.491q0-3.152-.152-5.74h3.528l.148,3.488h.112a6.235,6.235,0,0,1,2.025-2.888,4.9,4.9,0,0,1,2.928-.977,6.5,6.5,0,0,1,1.013.074v3.863Z" transform="translate(16.161 -14.662)" fill="#fff"/>
        <path id="Path_21" data-name="Path 21" d="M129.831,30.355a9.5,9.5,0,0,1-.148,1.837H117.531a5.29,5.29,0,0,0,1.763,4.129,6.02,6.02,0,0,0,3.975,1.275,13.441,13.441,0,0,0,4.917-.863l.635,2.812a15.2,15.2,0,0,1-6.112,1.127,8.855,8.855,0,0,1-6.661-2.495,9.214,9.214,0,0,1-2.419-6.7,10.445,10.445,0,0,1,2.253-6.865,7.763,7.763,0,0,1,6.375-2.924,6.794,6.794,0,0,1,5.968,2.924A9.861,9.861,0,0,1,129.831,30.355ZM125.969,29.3a5.5,5.5,0,0,0-.787-3.114,3.539,3.539,0,0,0-3.228-1.689,3.843,3.843,0,0,0-3.224,1.651,6.045,6.045,0,0,0-1.2,3.15h8.438Z" transform="translate(21.688 -14.678)" fill="#fff"/>
      </g>
      <g id="Group_12" data-name="Group 12" transform="translate(81.294 10.765)">
        <g id="Group_11" data-name="Group 11">
          <path id="Path_22" data-name="Path 22" d="M53.887,12.856a6.237,6.237,0,0,1-2.01,5.05,8,8,0,0,1-5.288,1.566,24.516,24.516,0,0,1-2.913-.148V7.1a21.494,21.494,0,0,1,3.43-.258,7.393,7.393,0,0,1,4.921,1.419A5.736,5.736,0,0,1,53.887,12.856Zm-2.1.055a4.541,4.541,0,0,0-1.151-3.336,4.539,4.539,0,0,0-3.365-1.161,8.427,8.427,0,0,0-1.6.129v9.289a10.513,10.513,0,0,0,1.345.055,4.71,4.71,0,0,0,3.528-1.271A5.09,5.09,0,0,0,51.787,12.911Z" transform="translate(-43.676 -6.295)" fill="#fff"/>
          <path id="Path_23" data-name="Path 23" d="M59.064,13.21a4.913,4.913,0,0,1-1.18,3.392A4.211,4.211,0,0,1,54.6,17.965a4,4,0,0,1-3.143-1.309,4.768,4.768,0,0,1-1.169-3.3A4.865,4.865,0,0,1,51.5,9.949a4.185,4.185,0,0,1,3.253-1.326A4.1,4.1,0,0,1,57.922,9.93,4.729,4.729,0,0,1,59.064,13.21ZM57,13.274a4.051,4.051,0,0,0-.534-2.126,1.966,1.966,0,0,0-1.786-1.072,2,2,0,0,0-1.826,1.072,4.105,4.105,0,0,0-.534,2.162,4.051,4.051,0,0,0,.534,2.126,2.01,2.01,0,0,0,1.807,1.072,1.987,1.987,0,0,0,1.786-1.091A4.025,4.025,0,0,0,57,13.274Z" transform="translate(-37.721 -4.696)" fill="#fff"/>
          <path id="Path_24" data-name="Path 24" d="M68.912,8.719l-2.8,8.957H64.286l-1.161-3.889a29.109,29.109,0,0,1-.72-2.894h-.036a21.187,21.187,0,0,1-.72,2.894l-1.233,3.889H58.57L55.935,8.719h2.046l1.013,4.258q.368,1.511.608,2.875h.036q.222-1.123.739-2.856l1.271-4.275h1.623L64.489,12.9q.442,1.53.718,2.949h.055A28.176,28.176,0,0,1,65.87,12.9l1.087-4.184h1.955Z" transform="translate(-32.643 -4.609)" fill="#fff"/>
          <path id="Path_25" data-name="Path 25" d="M71.917,17.765H69.926v-5.13q0-2.371-1.805-2.371a1.8,1.8,0,0,0-1.438.652,2.313,2.313,0,0,0-.553,1.535v5.312H64.138v-6.4q0-1.18-.072-2.563h1.75l.093,1.4h.055A2.877,2.877,0,0,1,67,9.124a3.365,3.365,0,0,1,1.805-.5,2.858,2.858,0,0,1,2.084.811A3.942,3.942,0,0,1,71.917,12.4Z" transform="translate(-25.325 -4.698)" fill="#fff"/>
          <path id="Path_26" data-name="Path 26" d="M72.03,19.622H70.041V6.556H72.03Z" transform="translate(-19.947 -6.556)" fill="#fff"/>
          <path id="Path_27" data-name="Path 27" d="M81.413,13.21a4.913,4.913,0,0,1-1.18,3.392,4.214,4.214,0,0,1-3.281,1.364,4,4,0,0,1-3.143-1.309,4.768,4.768,0,0,1-1.168-3.3,4.865,4.865,0,0,1,1.207-3.409A4.183,4.183,0,0,1,77.1,8.623,4.1,4.1,0,0,1,80.271,9.93,4.729,4.729,0,0,1,81.413,13.21Zm-2.067.065a4.051,4.051,0,0,0-.534-2.126,1.964,1.964,0,0,0-1.784-1.072A1.993,1.993,0,0,0,75.2,11.148a4.105,4.105,0,0,0-.534,2.162,4.051,4.051,0,0,0,.534,2.126,2.009,2.009,0,0,0,1.807,1.072,1.984,1.984,0,0,0,1.784-1.091A4.008,4.008,0,0,0,79.346,13.274Z" transform="translate(-17.607 -4.696)" fill="#fff"/>
          <path id="Path_28" data-name="Path 28" d="M85.813,17.762H84.025l-.148-1.032h-.055a3.066,3.066,0,0,1-2.616,1.235,2.7,2.7,0,0,1-2.044-.811,2.544,2.544,0,0,1-.7-1.824,2.783,2.783,0,0,1,1.374-2.506,7.13,7.13,0,0,1,3.863-.847v-.167q0-1.77-1.86-1.769A4.166,4.166,0,0,0,79.5,10.7L79.1,9.4a5.744,5.744,0,0,1,3.072-.773q3.511,0,3.515,3.705v3.3A13.99,13.99,0,0,0,85.813,17.762Zm-2.067-3.078V13.3q-3.295-.057-3.295,1.805a1.349,1.349,0,0,0,.382,1.051,1.393,1.393,0,0,0,.973.35,2.011,2.011,0,0,0,1.218-.414,1.7,1.7,0,0,0,.722-1.41Z" transform="translate(-12.37 -4.696)" fill="#fff"/>
          <path id="Path_29" data-name="Path 29" d="M92.335,19.622H90.568l-.093-1.438H90.42a2.977,2.977,0,0,1-2.877,1.642,3.371,3.371,0,0,1-2.69-1.271,4.952,4.952,0,0,1-1.068-3.3,5.193,5.193,0,0,1,1.161-3.521,3.569,3.569,0,0,1,2.765-1.254A2.684,2.684,0,0,1,90.234,11.7h.038V6.556h1.993V17.209Q92.265,18.518,92.335,19.622Zm-2.063-3.777V14.352a2.931,2.931,0,0,0-.055-.627,2.268,2.268,0,0,0-.72-1.207,1.957,1.957,0,0,0-1.332-.488,2.043,2.043,0,0,0-1.752.885,3.794,3.794,0,0,0-.638,2.267,3.537,3.537,0,0,0,.612,2.157,2.05,2.05,0,0,0,1.74.884,1.919,1.919,0,0,0,1.573-.737A2.454,2.454,0,0,0,90.272,15.845Z" transform="translate(-7.577 -6.556)" fill="#fff"/>
          <path id="Path_30" data-name="Path 30" d="M101.4,13.21a4.913,4.913,0,0,1-1.18,3.392,4.209,4.209,0,0,1-3.281,1.364A4.008,4.008,0,0,1,93.8,16.656a4.768,4.768,0,0,1-1.168-3.3,4.865,4.865,0,0,1,1.207-3.409,4.186,4.186,0,0,1,3.255-1.326,4.092,4.092,0,0,1,3.169,1.307A4.729,4.729,0,0,1,101.4,13.21Zm-2.063.065a4.051,4.051,0,0,0-.534-2.126,1.969,1.969,0,0,0-1.788-1.072,2,2,0,0,0-1.826,1.072,4.105,4.105,0,0,0-.534,2.162,4.051,4.051,0,0,0,.534,2.126,2.035,2.035,0,0,0,3.595-.019A4.043,4.043,0,0,0,99.34,13.274Z" transform="translate(0.384 -4.696)" fill="#fff"/>
          <path id="Path_31" data-name="Path 31" d="M106.6,17.765h-1.989v-5.13q0-2.371-1.807-2.371a1.791,1.791,0,0,0-1.436.652,2.3,2.3,0,0,0-.553,1.535v5.312H98.822v-6.4q0-1.18-.07-2.563H100.5l.093,1.4h.055a2.906,2.906,0,0,1,1.032-1.081,3.372,3.372,0,0,1,1.807-.5,2.857,2.857,0,0,1,2.082.811A3.935,3.935,0,0,1,106.6,12.4Z" transform="translate(5.893 -4.698)" fill="#fff"/>
          <path id="Path_32" data-name="Path 32" d="M112.52,11.267h-2.193v4.351c0,1.106.389,1.659,1.161,1.659a3.507,3.507,0,0,0,.887-.093l.051,1.511a4.474,4.474,0,0,1-1.547.222,2.38,2.38,0,0,1-1.841-.718,3.513,3.513,0,0,1-.665-2.415V11.267h-1.309V9.776h1.309V8.134l1.951-.589V9.774h2.193v1.493Z" transform="translate(13.375 -5.666)" fill="#fff"/>
          <path id="Path_33" data-name="Path 33" d="M119.169,19.622h-1.993V14.53q0-2.408-1.8-2.409a1.9,1.9,0,0,0-1.9,1.4,2.5,2.5,0,0,0-.093.716v5.387H111.39V6.556h1.989v5.4h.038a3.01,3.01,0,0,1,2.69-1.473,2.775,2.775,0,0,1,2.048.811,4.079,4.079,0,0,1,1.013,3v5.326Z" transform="translate(17.268 -6.556)" fill="#fff"/>
          <path id="Path_34" data-name="Path 34" d="M124.979,12.868a4.81,4.81,0,0,1-.074.9h-5.972A2.611,2.611,0,0,0,119.8,15.8a2.966,2.966,0,0,0,1.955.627A6.6,6.6,0,0,0,124.168,16l.312,1.383a7.5,7.5,0,0,1-3.006.553,4.341,4.341,0,0,1-3.27-1.226,4.515,4.515,0,0,1-1.188-3.289,5.126,5.126,0,0,1,1.106-3.373,3.808,3.808,0,0,1,3.131-1.436,3.331,3.331,0,0,1,2.928,1.436A4.782,4.782,0,0,1,124.979,12.868Zm-1.9-.515a2.681,2.681,0,0,0-.386-1.53,1.739,1.739,0,0,0-1.585-.83,1.89,1.89,0,0,0-1.585.811,3.014,3.014,0,0,0-.591,1.549Z" transform="translate(22.331 -4.704)" fill="#fff"/>
        </g>
      </g>
    </g>
    <g id="Google_Play_Store_badge_EN" transform="translate(559.017 948)">
      <g transform="matrix(1, 0, 0, 1, -559.02, -948)" filter="url(#Path_35)">
        <path id="Path_35-2" data-name="Path 35" d="M239.441,73.373H9.213A9.218,9.218,0,0,1,0,64.2V9.172A9.206,9.206,0,0,1,9.213,0H239.441a9.209,9.209,0,0,1,9.213,9.172V64.2A9.221,9.221,0,0,1,239.441,73.373Z" transform="translate(559.02 948)" fill="#ff6d6b" fill-rule="evenodd"/>
      </g>
      <path id="Path_37" data-name="Path 37" d="M1709.618,283.161a5.582,5.582,0,0,1-4.167-1.725,5.872,5.872,0,0,1-1.683-4.208,5.742,5.742,0,0,1,1.683-4.2,5.565,5.565,0,0,1,4.163-1.725,5.64,5.64,0,0,1,4.167,1.725,6.091,6.091,0,0,1,0,8.408A5.536,5.536,0,0,1,1709.618,283.161Zm-49.408,0a5.788,5.788,0,0,1-4.186-1.7,5.928,5.928,0,0,1,4.186-10.155,5.831,5.831,0,0,1,2.337.485,4.729,4.729,0,0,1,1.78,1.272l.109.133-1.24,1.217-.128-.151a3.523,3.523,0,0,0-2.877-1.24,3.977,3.977,0,0,0-2.868,1.171,4.447,4.447,0,0,0,0,6.093,4.194,4.194,0,0,0,5.814,0,3.169,3.169,0,0,0,.842-1.908H1660v-1.711h5.681l.023.156a6.3,6.3,0,0,1,.082.86,5.15,5.15,0,0,1-1.418,3.8A5.534,5.534,0,0,1,1660.21,283.161Zm65.693-.242h-1.752l-5.366-8.586.046,1.546v7.035h-1.752V271.547h2l.055.087,5.046,8.087-.046-1.542v-6.633h1.77Zm-29.45,0h-1.775v-9.661H1691.6v-1.711h7.927v1.711h-3.078v9.661Zm-6.3,0h-1.77V271.547h1.77Zm-9.949,0h-1.77v-9.661h-3.079v-1.711h7.927v1.711H1680.2Zm-5.97-.018h-6.788V271.547h6.788v1.711h-5.013v3.12h4.524v1.692h-4.524v3.12h5.013Zm32.515-2.639a3.917,3.917,0,0,0,2.868,1.189,3.817,3.817,0,0,0,2.868-1.189,4.508,4.508,0,0,0,.005-6.056,3.925,3.925,0,0,0-2.869-1.189,3.8,3.8,0,0,0-2.864,1.189,4.514,4.514,0,0,0-.009,6.056Z" transform="translate(-1578.626 -258.89)" fill="#fff"/>
      <path id="Path_38" data-name="Path 38" d="M1696.35,691.664a7.8,7.8,0,1,0,7.827,7.8A7.682,7.682,0,0,0,1696.35,691.664Zm0,12.516a4.742,4.742,0,1,1,4.4-4.73A4.516,4.516,0,0,1,1696.35,704.179Zm-17.076-12.516a7.8,7.8,0,1,0,7.827,7.8A7.682,7.682,0,0,0,1679.274,691.664Zm0,12.516a4.742,4.742,0,1,1,4.4-4.73A4.516,4.516,0,0,1,1679.274,704.179Zm-20.319-10.132v3.3h7.927a6.961,6.961,0,0,1-1.793,4.158,8.089,8.089,0,0,1-6.116,2.424,8.807,8.807,0,0,1,0-17.611,8.463,8.463,0,0,1,5.97,2.365l2.342-2.342a11.518,11.518,0,0,0-8.293-3.344,12.11,12.11,0,1,0,0,24.217,11.084,11.084,0,0,0,8.458-3.4,10.958,10.958,0,0,0,2.873-7.744,10.228,10.228,0,0,0-.183-2.058H1658.95S1658.955,694.047,1658.955,694.047Zm83.112,2.571c-.654-1.752-2.63-4.972-6.683-4.972-4.016,0-7.355,3.161-7.355,7.8a7.627,7.627,0,0,0,7.744,7.8,7.746,7.746,0,0,0,6.5-3.463l-2.649-1.775a4.438,4.438,0,0,1-3.833,2.159A3.986,3.986,0,0,1,1732,701.81l10.434-4.323S1742.067,696.618,1742.067,696.618Zm-10.64,2.607a4.283,4.283,0,0,1,4.076-4.547,3.009,3.009,0,0,1,2.9,1.651Zm-8.476,7.561h3.426V683.86h-3.426Zm-5.627-13.389h-.123a5.4,5.4,0,0,0-4.117-1.752,7.8,7.8,0,0,0,0,15.594,5.391,5.391,0,0,0,4.117-1.775h.123v1.121c0,2.978-1.592,4.583-4.158,4.583a4.326,4.326,0,0,1-3.934-2.772l-2.978,1.244a7.448,7.448,0,0,0,6.907,4.606c4.016,0,7.42-2.365,7.42-8.133v-14h-3.239V693.4Zm-3.934,10.782a4.745,4.745,0,0,1,0-9.455c2.342,0,4.158,2.017,4.158,4.748C1717.571,702.2,1715.737,704.179,1713.39,704.179Zm44.719-20.319h-8.193v22.927h3.426V698.1h4.771a7.133,7.133,0,1,0,0-14.245Zm.1,11.043h-4.872v-7.868h4.872a3.935,3.935,0,1,1,0,7.868Zm21.156-3.28a6.453,6.453,0,0,0-6.116,3.5l3.037,1.262a3.257,3.257,0,0,1,3.12-1.693c1.775,0,3.568,1.061,3.609,2.955v.242a7.677,7.677,0,0,0-3.568-.878c-3.28,0-6.605,1.793-6.605,5.155,0,3.079,2.69,5.055,5.686,5.055a4.823,4.823,0,0,0,4.36-2.241h.123v1.775h3.3v-8.783C1786.314,693.887,1783.277,691.623,1779.366,691.623Zm-.43,12.557c-1.121,0-2.69-.549-2.69-1.958,0-1.775,1.958-2.447,3.627-2.447a5.946,5.946,0,0,1,3.12.773A4.125,4.125,0,0,1,1778.936,704.179Zm19.427-12.067-3.934,9.945h-.123l-4.076-9.945h-3.687l6.116,13.9-3.485,7.726h3.568l9.409-21.628Zm-30.841,14.675h3.426V683.86h-3.426Z" transform="translate(-1571.373 -651.757)" fill="#fff" fill-rule="evenodd"/>
      <path id="Path_39" data-name="Path 39" d="M400.937,299.523a3.715,3.715,0,0,0-.837,2.589v40.561a3.537,3.537,0,0,0,.855,2.566l.142.123,22.726-22.726v-.508L401.079,299.4Z" transform="translate(-381.798 -285.704)" fill="#707bff" fill-rule="evenodd"/>
      <path id="Path_40" data-name="Path 40" d="M925.88,646.19l-7.58-7.58v-.531l7.58-7.58.165.1,8.966,5.1c2.566,1.445,2.566,3.833,0,5.3l-8.966,5.1Z" transform="translate(-876.293 -601.659)" fill="#707bff" fill-rule="evenodd"/>
      <path id="Path_41" data-name="Path 41" d="M449.012,809.744,441.267,802,418.4,824.867c.837.9,2.241,1,3.81.123l26.8-15.246" transform="translate(-399.261 -765.313)" fill="#ffc73d" fill-rule="evenodd"/>
      <path id="Path_42" data-name="Path 42" d="M449.012,302.318l-26.8-15.224c-1.569-.9-2.978-.773-3.81.124l22.867,22.844Z" transform="translate(-399.261 -273.376)" fill="#2ecca3" fill-rule="evenodd"/>
      <path id="Path_43" data-name="Path 43" d="M449.229,967.7,422.61,982.823c-1.487.855-2.813.8-3.669.018l-.142.142.142.123c.855.773,2.182.837,3.669-.018l26.8-15.224Z" transform="translate(-399.642 -923.434)" fill-rule="evenodd" opacity="0.2"/>
      <path id="Path_44" data-name="Path 44" d="M1092.653,804.383l-9.153,5.2.165.165,8.966-5.1a3.213,3.213,0,0,0,1.916-2.649A3.3,3.3,0,0,1,1092.653,804.383Z" transform="translate(-1033.937 -765.313)" fill-rule="evenodd" opacity="0.12"/>
      <path id="Path_45" data-name="Path 45" d="M404.747,287.193l35.767,20.319a3.371,3.371,0,0,1,1.917,2.383,3.213,3.213,0,0,0-1.917-2.649l-35.767-20.319c-2.566-1.468-4.648-.242-4.648,2.69v.265C400.1,286.946,402.181,285.743,404.747,287.193Z" transform="translate(-381.798 -273.209)" fill="#fff" fill-rule="evenodd" opacity="0.25"/>
    </g>
    <path id="facebook2" d="M26.667,0H5.333A5.334,5.334,0,0,0,0,5.334V26.666A5.333,5.333,0,0,0,5.333,32H16V18H12V14h4V11a5,5,0,0,1,5-5h5v4H21a1,1,0,0,0-1,1v3h5.5l-1,4H20V32h6.667A5.334,5.334,0,0,0,32,26.666V5.334A5.333,5.333,0,0,0,26.667,0Z" transform="translate(925 38)" fill="#ff6d6b"/>
    <path id="twitter" d="M39.383,6.786a16.171,16.171,0,0,1-4.641,1.273A8.113,8.113,0,0,0,38.3,3.589a16.186,16.186,0,0,1-5.131,1.961A8.087,8.087,0,0,0,19.4,12.919,22.941,22.941,0,0,1,2.742,4.476a8.089,8.089,0,0,0,2.5,10.789,8.048,8.048,0,0,1-3.66-1.01c0,.033,0,.068,0,.1a8.084,8.084,0,0,0,6.481,7.922,8.1,8.1,0,0,1-3.649.138,8.088,8.088,0,0,0,7.548,5.611A16.212,16.212,0,0,1,1.926,31.486,16.34,16.34,0,0,1,0,31.372,22.866,22.866,0,0,0,12.385,35c14.862,0,22.989-12.312,22.989-22.99q0-.526-.023-1.045a16.427,16.427,0,0,0,4.032-4.182Z" transform="translate(994.001 35.002)" fill="#ff6d6b"/>
    <path id="instagram" d="M29.867,1.6H5.133A3.544,3.544,0,0,0,1.6,5.133V29.867A3.542,3.542,0,0,0,5.133,33.4H29.867A3.542,3.542,0,0,0,33.4,29.867V5.133A3.544,3.544,0,0,0,29.867,1.6Zm-12.4,25.658a9.786,9.786,0,0,0,9.784-9.785,9.379,9.379,0,0,0-.182-1.738h2.794V28.483A1.221,1.221,0,0,1,28.642,29.7H6.358a1.221,1.221,0,0,1-1.225-1.219V15.735H7.87a9.2,9.2,0,0,0-.183,1.738,9.787,9.787,0,0,0,9.785,9.785Zm-6.114-9.786a6.116,6.116,0,1,1,6.116,6.116,6.115,6.115,0,0,1-6.116-6.116Zm17.285-7.038H25.789a1.225,1.225,0,0,1-1.222-1.222V6.355a1.222,1.222,0,0,1,1.221-1.221h2.853a1.222,1.222,0,0,1,1.226,1.221V9.21a1.226,1.226,0,0,1-1.225,1.225Z" transform="translate(854.4 36.4)" fill="#ff6d6b"/>
    <g id="seaweed3" transform="translate(1279.448 696.618)">
      <path id="Path_96" data-name="Path 96" d="M14854.094,282.819s1.977-6.191,5.881-10.17a26.112,26.112,0,0,1,9.729-5.748s13.928-4.643,19.455-14.371,2.652-24.541,2.652-24.541-2.873,13.321-7.295,20.561-10.391,8.4-10.391,8.4,5.086-16.858,9.506-28.963,6.8-11.11,8.18-20.561a31.332,31.332,0,0,0-2.652-17.245s1.99-6.412,1.547-17.908,17.469-13.708,17.469-13.708-6.193-2.874-16.363,3.316-8.18,31.395-8.18,31.395,2.877,7.738,1.768,14.15-6.187,11.5-6.187,11.5a88.381,88.381,0,0,0-8.625,16.361,95.566,95.566,0,0,0-4.645,18.351l-2.209-13.044a101.715,101.715,0,0,0,6.854-18.351,77.23,77.23,0,0,0,1.99-17.908s-2.266-31.284,6.635-60.358,28.963-55.936,28.963-55.936-14.924,12.215-24.543,26.531-13.928,22.772-15.479,36.7-.883,11.331-.883,24.983a110.567,110.567,0,0,0,2.434,23.657s-6.744,19.014-9.729,30.51-2.211,15.476-2.211,15.476a52.994,52.994,0,0,0-6.855,11.055A60.886,60.886,0,0,0,14847.15,270l-1.99,2.653s2.268,3.1,1.99,5.085-3.094,2.874-3.094,2.874,1.912,2.985,4.422,3.537S14854.094,282.819,14854.094,282.819Z" transform="translate(-14765.363 -76.561)" fill="#20a481"/>
      <path id="Path_100" data-name="Path 100" d="M14898.137,282.819s-1.98-6.191-5.883-10.17a26.1,26.1,0,0,0-9.729-5.748s-13.926-4.643-19.457-14.371-2.652-24.541-2.652-24.541,2.873,13.321,7.3,20.561,10.389,8.4,10.389,8.4-5.084-16.858-9.5-28.963-6.8-11.11-8.182-20.561a31.332,31.332,0,0,1,2.652-17.245s-1.988-6.412-1.545-17.908-17.467-13.708-17.467-13.708,6.189-2.874,16.359,3.316,8.182,31.395,8.182,31.395-2.877,7.738-1.77,14.15,6.189,11.5,6.189,11.5a88.381,88.381,0,0,1,8.625,16.361,95.647,95.647,0,0,1,4.643,18.351l2.211-13.044a101.715,101.715,0,0,1-6.854-18.351,77.3,77.3,0,0,1-1.992-17.908s2.268-31.284-6.633-60.358-28.961-55.936-28.961-55.936,14.924,12.215,24.541,26.531,13.928,22.772,15.477,36.7.883,11.331.883,24.983a110.651,110.651,0,0,1-2.432,23.657s6.742,19.014,9.729,30.51,2.211,15.476,2.211,15.476a52.847,52.847,0,0,1,6.854,11.055,60.953,60.953,0,0,1,3.76,13.044l1.988,2.653s-2.268,3.1-1.988,5.085,3.092,2.874,3.092,2.874-1.908,2.985-4.42,3.537S14898.137,282.819,14898.137,282.819Z" transform="translate(-14844.057 -76.561)" fill="#20a481"/>
      <path id="Path_97" data-name="Path 97" d="M14839.1,282.819s1.979-6.191,5.879-10.17a26.127,26.127,0,0,1,9.729-5.748s13.93-4.643,19.457-14.371,2.654-24.541,2.654-24.541-2.875,13.321-7.3,20.561-10.393,8.4-10.393,8.4,5.084-16.858,9.508-28.963,6.8-11.11,8.182-20.561a31.343,31.343,0,0,0-2.654-17.245s1.99-6.412,1.547-17.908,17.467-13.708,17.467-13.708-6.191-2.874-16.359,3.316-8.182,31.395-8.182,31.395,2.873,7.738,1.77,14.15-6.193,11.5-6.193,11.5a88.63,88.63,0,0,0-8.621,16.361,95.394,95.394,0,0,0-4.641,18.351l-2.213-13.044a101.881,101.881,0,0,0,6.854-18.351,77.547,77.547,0,0,0,1.992-17.908s-2.268-31.284,6.629-60.358,28.965-55.936,28.965-55.936-14.926,12.215-24.541,26.531-13.93,22.772-15.475,36.7-.887,11.331-.887,24.983a110.651,110.651,0,0,0,2.432,23.657s-6.742,19.014-9.729,30.51-2.211,15.476-2.211,15.476a52.884,52.884,0,0,0-6.852,11.055,60.953,60.953,0,0,0-3.76,13.044h-5.387s-1.568,6.2-1.846,8.193a15.345,15.345,0,0,0,.6,5s5.455.4,7.963.955S14839.1,282.819,14839.1,282.819Z" transform="translate(-14752.119 -78.309)" fill="#2ecca3"/>
      <path id="Path_101" data-name="Path 101" d="M14878.951,282.819s-1.98-6.191-5.881-10.17a26.1,26.1,0,0,0-9.727-5.748s-13.926-4.643-19.457-14.371-2.652-24.541-2.652-24.541,2.873,13.321,7.3,20.561,10.389,8.4,10.389,8.4-5.084-16.858-9.5-28.963-6.8-11.11-8.184-20.561a31.332,31.332,0,0,1,2.652-17.245s-1.99-6.412-1.549-17.908-17.463-13.708-17.463-13.708,6.189-2.874,16.359,3.316,8.184,31.395,8.184,31.395-2.879,7.738-1.771,14.15,6.189,11.5,6.189,11.5a88.514,88.514,0,0,1,8.625,16.361,95.647,95.647,0,0,1,4.643,18.351l2.209-13.044a101.62,101.62,0,0,1-6.852-18.351,77.3,77.3,0,0,1-1.992-17.908s2.268-31.284-6.633-60.358-28.961-55.936-28.961-55.936,14.922,12.215,24.543,26.531,13.926,22.772,15.475,36.7.883,11.331.883,24.983a110.651,110.651,0,0,1-2.432,23.657s6.742,19.014,9.727,30.51,2.213,15.476,2.213,15.476a52.976,52.976,0,0,1,6.852,11.055,60.953,60.953,0,0,1,3.76,13.044h5.383s1.572,6.2,1.85,8.193a15.325,15.325,0,0,1-.6,5s-5.449.4-7.965.955S14878.951,282.819,14878.951,282.819Z" transform="translate(-14824.001 -81.149)" fill="#2ecca3"/>
      <path id="Path_98" data-name="Path 98" d="M14606.661,246.359s11.02,3.052,9.35,3.4-8.473,0-8.473,0a1.42,1.42,0,0,1-1.289,1.394,74.412,74.412,0,0,1-10.834,0s-1.986-.078-2.646-2.955.475-5.9,0-8.554c-.613-3.437-.648-7.368-1.41-11.07-2.17-10.576-4.627-19.724-4.627-19.724s-8.553-11.975-20.43-20.529-3.117-35.322-3.117-35.322-1.713,11.975,2.412,20.328c1.848,3.734,2.215,6.315,5.033,10.063a13.549,13.549,0,0,0,6.238,4.931c5.635,3.019,14.49,17.007,14.49,17.007l3.623,10.164-1.32-32.1-3.91-11.944s.68-10.369-2.211-18.447a38.379,38.379,0,0,0-9.354-13.866,76.9,76.9,0,0,1-18.027-18.878c-7.229-11.267-10.883-26.191-10.883-26.191a55.851,55.851,0,0,1,19.217,16.667c8.586,11.735,15.135,30.272,15.135,30.272a31.932,31.932,0,0,1,7.73,5.272,18.124,18.124,0,0,1,4.057,6.723,37.305,37.305,0,0,1,2.668,9.773,22.982,22.982,0,0,1-1.021,8.674s-1.443-.383,0,5.442,5.783,17.857,5.783,17.857.426-17.517,2.211-15.646,4.932,23.129,4.932,23.129a34.552,34.552,0,0,0,2.381-6.8,13.783,13.783,0,0,0,0-5.442,39.69,39.69,0,0,1-1.189-10.884c.33-5.187,2.5-6.411,2.5-9.864a57.028,57.028,0,0,0-1.312-13.436s.758-14.561.758-21.619-.758-6.613-.758-6.613-.156-3.464-9.367-14.168-23.322-17.92-27.471-28.65c-7.936-20.516,5.1-39.247,5.1-39.247s-1.6,13.148.914,24.856a75.366,75.366,0,0,0,9.158,21.978s4.561,4.481,9.682,8.765,10.793,8.373,10.793,8.373-2.271-11.414,0-20.408,9.092-15.568,9.092-15.568a84.787,84.787,0,0,1,11.771-9.288,34.727,34.727,0,0,1,10.6-4.317S14632.11,70,14626.155,80.306s-6.146,10.2-7.322,20.8,2.613,21.586,2.613,21.586v20.186a37.546,37.546,0,0,0-2.613,11.055,40.552,40.552,0,0,0,1.359,11.565,32.619,32.619,0,0,1,1.254,12.755c-.678,7.313-3.975,16.5-3.975,16.5l2.037,9.694s-2.678,10.332-3.908,18.027a70.392,70.392,0,0,0-1.021,12.755h-6.605a69.335,69.335,0,0,1,.416,7.023c-.045.68-1.277.963-2.141,1.489a2.443,2.443,0,0,0-.895.774Z" transform="translate(-14531.929 -45.507)" fill="#20a481"/>
      <path id="Path_99" data-name="Path 99" d="M14614.2,248.353a8.588,8.588,0,0,1-2.574.922,33.548,33.548,0,0,1-4.092.488,1.42,1.42,0,0,1-1.289,1.394,74.412,74.412,0,0,1-10.834,0s-1.986-.078-2.646-2.955.475-5.9,0-8.554c-.613-3.437-.648-7.368-1.41-11.07-2.17-10.576-4.627-19.724-4.627-19.724s-8.553-11.975-20.43-20.529-3.117-35.322-3.117-35.322-1.713,11.975,2.412,20.328c1.848,3.734,2.215,6.315,5.033,10.063a13.549,13.549,0,0,0,6.238,4.931c5.635,3.019,14.49,17.007,14.49,17.007l3.623,10.164-1.32-32.1-3.91-11.944s.68-10.369-2.211-18.447a38.379,38.379,0,0,0-9.354-13.866,76.9,76.9,0,0,1-18.027-18.878c-7.229-11.267-10.883-26.191-10.883-26.191a55.851,55.851,0,0,1,19.217,16.667c8.586,11.735,15.135,30.272,15.135,30.272a31.932,31.932,0,0,1,7.73,5.272,18.124,18.124,0,0,1,4.057,6.723,37.305,37.305,0,0,1,2.668,9.773,22.982,22.982,0,0,1-1.021,8.674s-1.443-.383,0,5.442,5.783,17.857,5.783,17.857.426-17.517,2.211-15.646,4.932,23.129,4.932,23.129a34.552,34.552,0,0,0,2.381-6.8,13.783,13.783,0,0,0,0-5.442,39.69,39.69,0,0,1-1.189-10.884c.33-5.187,2.5-6.411,2.5-9.864a57.028,57.028,0,0,0-1.312-13.436s.758-14.561.758-21.619-.758-6.613-.758-6.613-.156-3.464-9.367-14.168-23.322-17.92-27.471-28.65c-7.936-20.516,5.1-39.247,5.1-39.247s-1.6,13.148.914,24.856a75.366,75.366,0,0,0,9.158,21.978s4.561,4.481,9.682,8.765,10.793,8.373,10.793,8.373-2.271-11.414,0-20.408,9.092-15.568,9.092-15.568a84.787,84.787,0,0,1,11.771-9.288,34.727,34.727,0,0,1,10.6-4.317S14632.11,70,14626.155,80.306s-6.146,10.2-7.322,20.8,2.613,21.586,2.613,21.586v20.186a37.546,37.546,0,0,0-2.613,11.055,40.552,40.552,0,0,0,1.359,11.565,32.619,32.619,0,0,1,1.254,12.755c-.678,7.313-3.975,16.5-3.975,16.5l2.037,9.694s-2.678,10.332-3.908,18.027a70.392,70.392,0,0,0-1.021,12.755l-1.648,2.421s2.18,3.317,2.059,5.177a3.188,3.188,0,0,1-1.568,2.114,4.257,4.257,0,0,1-1.654.515Z" transform="translate(-14535.645 -45.507)" fill="#2ecca3"/>
    </g>
    <g id="seaweed2" transform="matrix(0.966, -0.259, 0.259, 0.966, 889.145, 670.28)">
      <path id="Path_88" data-name="Path 88" d="M65.6,236.282s-2.4-7.509-7.133-12.337-11.8-6.973-11.8-6.973-16.9-5.632-23.6-17.433-3.219-29.77-3.219-29.77,3.486,16.159,8.85,24.942S41.3,204.9,41.3,204.9s-6.168-20.45-11.533-35.134-8.247-13.477-9.923-24.942a38.013,38.013,0,0,1,3.219-20.919s-2.415-7.778-1.878-21.724S0,85.555,0,85.555s7.509-3.487,19.846,4.023,9.923,38.084,9.923,38.084-3.486,9.387-2.146,17.165,7.51,13.946,7.51,13.946a107.3,107.3,0,0,1,10.46,19.847,115.889,115.889,0,0,1,5.632,22.26l2.682-15.824a123.517,123.517,0,0,1-8.314-22.26,93.812,93.812,0,0,1-2.414-21.724s2.749-37.95-8.046-73.218S0,0,0,0,18.1,14.818,29.769,32.184,46.666,59.808,48.543,76.7s1.073,13.745,1.073,30.306a134.235,134.235,0,0,1-2.95,28.7s8.18,23.065,11.8,37.011,2.682,18.774,2.682,18.774a64.176,64.176,0,0,1,8.314,13.41,73.781,73.781,0,0,1,4.559,15.824l2.414,3.218s-2.749,3.755-2.414,6.169,3.755,3.487,3.755,3.487-2.32,3.621-5.364,4.291S65.6,236.282,65.6,236.282Z" transform="translate(0 19.523)" fill="#20a481"/>
      <path id="Path_89" data-name="Path 89" d="M65.6,236.282s-2.4-7.509-7.134-12.337-11.8-6.973-11.8-6.973-16.9-5.632-23.6-17.433-3.219-29.77-3.219-29.77,3.487,16.159,8.85,24.942S41.3,204.9,41.3,204.9s-6.168-20.45-11.533-35.134-8.246-13.477-9.923-24.942a38.023,38.023,0,0,1,3.219-20.919s-2.414-7.778-1.877-21.724S0,85.555,0,85.555s7.509-3.487,19.846,4.023,9.923,38.084,9.923,38.084-3.486,9.387-2.145,17.165,7.509,13.946,7.509,13.946a107.3,107.3,0,0,1,10.46,19.847,115.85,115.85,0,0,1,5.633,22.26l2.681-15.824a123.6,123.6,0,0,1-8.314-22.26,93.812,93.812,0,0,1-2.414-21.724s2.749-37.95-8.046-73.218S0,0,0,0,18.1,14.818,29.769,32.184,46.666,59.808,48.544,76.7s1.073,13.745,1.073,30.306a134.2,134.2,0,0,1-2.951,28.7s8.18,23.065,11.8,37.011,2.682,18.774,2.682,18.774a64.132,64.132,0,0,1,8.314,13.41,73.781,73.781,0,0,1,4.559,15.824h6.534s1.9,7.525,2.239,9.939a18.583,18.583,0,0,1-.722,6.068s-6.616.487-9.659,1.158S65.6,236.282,65.6,236.282Z" transform="translate(2.12 17.402)" fill="#2ecca3"/>
      <path id="Path_86" data-name="Path 86" d="M78.765,246.066a10.416,10.416,0,0,1-3.123,1.118,40.77,40.77,0,0,1-4.965.592,1.721,1.721,0,0,1-1.561,1.691,90.287,90.287,0,0,1-13.144,0s-2.408-.094-3.211-3.584.574-7.163,0-10.376c-.745-4.169-.787-8.938-1.709-13.428-2.634-12.829-5.615-23.927-5.615-23.927s-10.376-14.527-24.781-24.9S16.872,130.4,16.872,130.4,14.8,144.927,19.8,155.059c2.237,4.529,2.686,7.66,6.1,12.207a16.421,16.421,0,0,0,7.568,5.982c6.836,3.662,17.579,20.631,17.579,20.631l4.395,12.329-1.6-38.942L49.1,152.777s.825-12.578-2.682-22.377-11.347-16.821-11.347-16.821-13.1-9.232-21.868-22.9S0,58.908,0,58.908A67.73,67.73,0,0,1,23.312,79.126c10.418,14.235,18.361,36.722,18.361,36.722a38.814,38.814,0,0,1,9.378,6.4,21.981,21.981,0,0,1,4.92,8.156,45.236,45.236,0,0,1,3.237,11.856,27.894,27.894,0,0,1-1.237,10.522s-1.754-.464,0,6.6,7.014,21.662,7.014,21.662.516-21.249,2.682-18.98,5.983,28.058,5.983,28.058a42.043,42.043,0,0,0,2.888-8.252,16.736,16.736,0,0,0,0-6.6,48.064,48.064,0,0,1-1.444-13.2c.4-6.292,3.032-7.777,3.032-11.966,0-10.367-1.588-16.3-1.588-16.3s.918-17.664.918-26.225-.918-8.021-.918-8.021-.192-4.2-11.364-17.187S36.883,60.625,31.849,47.609C22.223,22.721,38.038,0,38.038,0s-1.944,15.949,1.111,30.152S50.257,56.813,50.257,56.813,55.791,62.249,62,67.446,75.1,77.6,75.1,77.6s-2.757-13.846,0-24.757S86.123,33.961,86.123,33.961s7.5-7.141,14.283-11.267a42.113,42.113,0,0,1,12.855-5.237s-12.775,12.259-20,24.757-7.459,12.378-8.887,25.233,3.174,26.185,3.174,26.185v24.487a45.544,45.544,0,0,0-3.174,13.41,49.383,49.383,0,0,0,1.651,14.029,39.633,39.633,0,0,1,1.523,15.473c-.826,8.871-4.824,20.012-4.824,20.012L85.2,192.8s-3.249,12.533-4.745,21.868a85.494,85.494,0,0,0-1.238,15.473l-2,2.937s2.644,4.024,2.5,6.28a3.881,3.881,0,0,1-1.907,2.565,5.147,5.147,0,0,1-2.005.625Z" transform="matrix(0.978, 0.208, -0.208, 0.978, 72.359, 0)" fill="#20a481"/>
      <path id="Path_87" data-name="Path 87" d="M78.765,246.066a10.416,10.416,0,0,1-3.123,1.118,40.77,40.77,0,0,1-4.965.592,1.721,1.721,0,0,1-1.561,1.691,90.287,90.287,0,0,1-13.144,0s-2.408-.094-3.211-3.584.574-7.163,0-10.376c-.745-4.169-.787-8.938-1.709-13.428-2.634-12.829-5.615-23.927-5.615-23.927s-10.376-14.527-24.781-24.9S16.872,130.4,16.872,130.4,14.8,144.927,19.8,155.059c2.237,4.529,2.686,7.66,6.1,12.207a16.421,16.421,0,0,0,7.568,5.982c6.836,3.662,17.579,20.631,17.579,20.631l4.395,12.329-1.6-38.942L49.1,152.777s.825-12.578-2.682-22.377-11.347-16.821-11.347-16.821-13.1-9.232-21.868-22.9S0,58.908,0,58.908A67.73,67.73,0,0,1,23.312,79.126c10.418,14.235,18.361,36.722,18.361,36.722a38.814,38.814,0,0,1,9.378,6.4,21.981,21.981,0,0,1,4.92,8.156,45.236,45.236,0,0,1,3.237,11.856,27.894,27.894,0,0,1-1.237,10.522s-1.754-.464,0,6.6,7.014,21.662,7.014,21.662.516-21.249,2.682-18.98,5.983,28.058,5.983,28.058a42.043,42.043,0,0,0,2.888-8.252,16.736,16.736,0,0,0,0-6.6,48.064,48.064,0,0,1-1.444-13.2c.4-6.292,3.032-7.777,3.032-11.966,0-10.367-1.588-16.3-1.588-16.3s.918-17.664.918-26.225-.918-8.021-.918-8.021-.192-4.2-11.364-17.187S36.883,60.625,31.849,47.609C22.223,22.721,38.038,0,38.038,0s-1.944,15.949,1.111,30.152S50.257,56.813,50.257,56.813,55.791,62.249,62,67.446,75.1,77.6,75.1,77.6s-2.757-13.846,0-24.757S86.123,33.961,86.123,33.961s7.5-7.141,14.283-11.267a42.113,42.113,0,0,1,12.855-5.237s-12.775,12.259-20,24.757-7.459,12.378-8.887,25.233,3.174,26.185,3.174,26.185v24.487a45.544,45.544,0,0,0-3.174,13.41,49.383,49.383,0,0,0,1.651,14.029,39.633,39.633,0,0,1,1.523,15.473c-.826,8.871-4.824,20.012-4.824,20.012L85.2,192.8s-3.249,12.533-4.745,21.868a85.494,85.494,0,0,0-1.238,15.473l-2,2.937s2.644,4.024,2.5,6.28a3.881,3.881,0,0,1-1.907,2.565,5.147,5.147,0,0,1-2.005.625Z" transform="matrix(0.978, 0.208, -0.208, 0.978, 75.539, 0)" fill="#2ecca3"/>
    </g>
    <g id="seaweed" transform="translate(1180.81 685.41)">
      <path id="Path_82" data-name="Path 82" d="M14853.291,267.176s1.816-5.693,5.4-9.353a24.022,24.022,0,0,1,8.947-5.287s12.811-4.27,17.895-13.217,2.438-22.57,2.438-22.57-2.643,12.251-6.707,18.91-9.559,7.727-9.559,7.727,4.678-15.5,8.744-26.637,6.25-10.218,7.521-18.91a28.807,28.807,0,0,0-2.437-15.86s1.828-5.9,1.422-16.47,16.063-12.607,16.063-12.607-5.693-2.643-15.047,3.05-7.521,28.874-7.521,28.874,2.645,7.117,1.627,13.013-5.693,10.573-5.693,10.573a81.409,81.409,0,0,0-7.93,15.047,87.827,87.827,0,0,0-4.271,16.877l-2.031-12a93.532,93.532,0,0,0,6.3-16.877,71.078,71.078,0,0,0,1.828-16.47s-2.082-28.772,6.1-55.51,26.635-51.444,26.635-51.444-13.723,11.234-22.568,24.4-12.809,20.943-14.234,33.754-.812,10.421-.812,22.977a101.766,101.766,0,0,0,2.236,21.757s-6.2,17.487-8.947,28.06-2.033,14.233-2.033,14.233a48.708,48.708,0,0,0-6.3,10.167,56.153,56.153,0,0,0-3.457,12l-1.83,2.44s2.084,2.847,1.83,4.677-2.846,2.643-2.846,2.643,1.76,2.745,4.066,3.253S14853.291,267.176,14853.291,267.176Z" transform="translate(-14781.61 -79.09)" fill="#20a481"/>
      <path id="Path_83" data-name="Path 83" d="M14837.961,267.176s1.82-5.693,5.408-9.353a24.007,24.007,0,0,1,8.947-5.287s12.811-4.27,17.895-13.217,2.439-22.57,2.439-22.57-2.645,12.251-6.709,18.91-9.559,7.727-9.559,7.727,4.676-15.5,8.744-26.637,6.252-10.218,7.523-18.91a28.818,28.818,0,0,0-2.439-15.86s1.83-5.9,1.424-16.47S14887.7,152.9,14887.7,152.9s-5.691-2.643-15.045,3.05-7.523,28.874-7.523,28.874,2.643,7.117,1.623,13.013-5.691,10.573-5.691,10.573a81.333,81.333,0,0,0-7.928,15.047,87.741,87.741,0,0,0-4.27,16.877l-2.031-12a93.936,93.936,0,0,0,6.3-16.877,71.143,71.143,0,0,0,1.83-16.47s-2.084-28.772,6.1-55.51,26.637-51.444,26.637-51.444-13.721,11.234-22.568,24.4-12.811,20.943-14.234,33.754-.812,10.421-.812,22.977a101.766,101.766,0,0,0,2.236,21.757s-6.2,17.487-8.947,28.06-2.033,14.233-2.033,14.233a48.562,48.562,0,0,0-6.3,10.167,55.83,55.83,0,0,0-3.459,12h-4.953s-1.443,5.705-1.7,7.535a14.068,14.068,0,0,0,.545,4.6s5.014.37,7.324.878S14837.961,267.176,14837.961,267.176Z" transform="translate(-14767.893 -80.698)" fill="#2ecca3"/>
      <path id="Path_80" data-name="Path 80" d="M14602.054,230.228s10.129,2.807,8.6,3.131-7.793,0-7.793,0a1.306,1.306,0,0,1-1.184,1.282,68.464,68.464,0,0,1-9.967,0s-1.826-.071-2.434-2.717.436-5.431,0-7.867c-.564-3.161-.6-6.776-1.295-10.181-2-9.726-4.258-18.14-4.258-18.14a93.352,93.352,0,0,0-18.787-18.88c-10.92-7.867-2.871-32.485-2.871-32.485s-1.57,11.014,2.223,18.7c1.7,3.434,2.035,5.808,4.629,9.255a12.441,12.441,0,0,0,5.738,4.535c5.182,2.777,13.326,15.641,13.326,15.641l3.332,9.348-1.213-29.524-3.6-10.985s.625-9.536-2.033-16.966a35.341,35.341,0,0,0-8.6-12.753,70.726,70.726,0,0,1-16.58-17.362c-6.65-10.362-10.008-24.087-10.008-24.087a51.354,51.354,0,0,1,17.672,15.328c7.9,10.792,13.922,27.841,13.922,27.841a29.449,29.449,0,0,1,7.109,4.849,16.638,16.638,0,0,1,3.729,6.183,34.2,34.2,0,0,1,2.455,8.989,21.115,21.115,0,0,1-.937,7.977s-1.33-.352,0,5.005,5.318,16.423,5.318,16.423.391-16.11,2.033-14.39,4.537,21.272,4.537,21.272a31.894,31.894,0,0,0,2.188-6.256,12.7,12.7,0,0,0,0-5.005,36.471,36.471,0,0,1-1.094-10.01c.3-4.771,2.3-5.9,2.3-9.072a52.532,52.532,0,0,0-1.205-12.357s.7-13.392.7-19.883-.7-6.082-.7-6.082-.143-3.185-8.615-13.03-21.449-16.481-25.266-26.349c-7.3-18.869,4.689-36.095,4.689-36.095s-1.471,12.092.846,22.86a69.3,69.3,0,0,0,8.422,20.213s4.193,4.121,8.9,8.061,9.928,7.7,9.928,7.7-2.088-10.5,0-18.769,8.359-14.318,8.359-14.318a77.883,77.883,0,0,1,10.83-8.542,31.919,31.919,0,0,1,9.746-3.97s-9.687,9.294-15.16,18.769-5.656,9.385-6.738,19.13,2.406,19.852,2.406,19.852v18.565a34.476,34.476,0,0,0-2.406,10.167,37.415,37.415,0,0,0,1.252,10.636,30.069,30.069,0,0,1,1.154,11.731c-.625,6.726-3.658,15.172-3.658,15.172l1.877,8.915s-2.463,9.5-3.6,16.58a64.88,64.88,0,0,0-.937,11.731h-6.076a63.809,63.809,0,0,1,.383,6.459c-.039.625-1.174.886-1.967,1.369a2.266,2.266,0,0,0-.826.712Z" transform="translate(-14545.86 -45.507)" fill="#20a481"/>
      <path id="Path_81" data-name="Path 81" d="M14608.989,232.063a7.88,7.88,0,0,1-2.367.848,30.871,30.871,0,0,1-3.764.449,1.306,1.306,0,0,1-1.184,1.282,68.464,68.464,0,0,1-9.967,0s-1.826-.071-2.434-2.717.436-5.431,0-7.867c-.564-3.161-.6-6.776-1.295-10.181-2-9.726-4.258-18.14-4.258-18.14a93.352,93.352,0,0,0-18.787-18.88c-10.92-7.867-2.871-32.485-2.871-32.485s-1.57,11.014,2.223,18.7c1.7,3.434,2.035,5.808,4.629,9.255a12.441,12.441,0,0,0,5.738,4.535c5.182,2.777,13.326,15.641,13.326,15.641l3.332,9.348-1.213-29.524-3.6-10.985s.625-9.536-2.033-16.966a35.341,35.341,0,0,0-8.6-12.753,70.726,70.726,0,0,1-16.58-17.362c-6.65-10.362-10.008-24.087-10.008-24.087a51.354,51.354,0,0,1,17.672,15.328c7.9,10.792,13.922,27.841,13.922,27.841a29.449,29.449,0,0,1,7.109,4.849,16.638,16.638,0,0,1,3.729,6.183,34.2,34.2,0,0,1,2.455,8.989,21.115,21.115,0,0,1-.937,7.977s-1.33-.352,0,5.005,5.318,16.423,5.318,16.423.391-16.11,2.033-14.39,4.537,21.272,4.537,21.272a31.894,31.894,0,0,0,2.188-6.256,12.7,12.7,0,0,0,0-5.005,36.471,36.471,0,0,1-1.094-10.01c.3-4.771,2.3-5.9,2.3-9.072a52.532,52.532,0,0,0-1.205-12.357s.7-13.392.7-19.883-.7-6.082-.7-6.082-.143-3.185-8.615-13.03-21.449-16.481-25.266-26.349c-7.3-18.869,4.689-36.095,4.689-36.095s-1.471,12.092.846,22.86a69.3,69.3,0,0,0,8.422,20.213s4.193,4.121,8.9,8.061,9.928,7.7,9.928,7.7-2.088-10.5,0-18.769,8.359-14.318,8.359-14.318a77.883,77.883,0,0,1,10.83-8.542,31.919,31.919,0,0,1,9.746-3.97s-9.687,9.294-15.16,18.769-5.656,9.385-6.738,19.13,2.406,19.852,2.406,19.852v18.565a34.476,34.476,0,0,0-2.406,10.167,37.415,37.415,0,0,0,1.252,10.636,30.069,30.069,0,0,1,1.154,11.731c-.625,6.726-3.658,15.172-3.658,15.172l1.877,8.915s-2.463,9.5-3.6,16.58a64.88,64.88,0,0,0-.937,11.731l-1.516,2.227s2.006,3.051,1.895,4.761a2.936,2.936,0,0,1-1.447,1.944,3.893,3.893,0,0,1-1.52.474Z" transform="translate(-14549.276 -45.507)" fill="#2ecca3"/>
      <path id="Path_84" data-name="Path 84" d="M14863.688,475.3l-1.572-8.59s7.613-5.808,8.514-17.862-4.9-30.357-4.9-30.357V400.26s10.672,24.656,10.256,43.258S14863.688,475.3,14863.688,475.3Z" transform="translate(-14795.84 -328.977)" fill="#20a481"/>
      <path id="Path_85" data-name="Path 85" d="M14851.852,475.765l-1.861-9.091s10.045-5.77,10.949-17.825-4.9-30.357-4.9-30.357V400.26s10.672,24.656,10.256,43.258S14851.852,475.765,14851.852,475.765Z" transform="translate(-14787.557 -329.379)" fill="#2ecca3"/>
    </g>
    <path id="Path_211" data-name="Path 211" d="M-4740.926,18537.9s27.29-253.77-67.039-246.5c-49.711,3.826-56.878,48.371-56.878,48.371l-5.106,193.766a396.769,396.769,0,0,0,67.337,6.055C-4766.487,18539.584-4740.926,18537.9-4740.926,18537.9Z" transform="translate(5926.411 -17635.438)" fill="#fff"/>
    <g id="girl" transform="translate(1030.002 679.084)">
      <path id="body" d="M2499.41,714.415s1.882-30.612,5.021-56.343,7.53-46.58,7.53-46.58,23.43-32.913,40.165-33.75,23.429,22.872,23.429,22.872a122.428,122.428,0,0,1,6.137,18.967c2.58,10.878,4.183,24.545,4.183,24.545a297.347,297.347,0,0,1,6.415,29.566c3.068,17.991,5.858,42.4,5.858,42.4Z" transform="translate(-2477.955 -491.081)" fill="url(#linear-gradient-7)"/>
      <path id="neck" d="M2648.9,456.7a17.7,17.7,0,0,1,9.133,3.136c4.181,3.053,7.592,9.077,7.592,9.077l-.825-7.1-5.117-6.767s-.825-7.509-.825-13.864a82.31,82.31,0,0,1,.825-11.553,23.281,23.281,0,0,1-6.766,0,19.173,19.173,0,0,1-5.942-2.311,68.633,68.633,0,0,1-4.819-8.226,52.52,52.52,0,0,1-3.047-8.252s-1.651,4.7-6.094,4.824.669,5.761.669,5.761a190.022,190.022,0,0,1,12.5,18.165A25.677,25.677,0,0,1,2648.9,456.7Z" transform="translate(-2574.246 -369.1)" fill="#e5b48b"/>
      <path id="arm" d="M2735.092,669.886s-11.372,5.364-20.168,6.651-34.424,1.837-39.264,1.716c-8.582-.215-10.728-7.939-12.873-11.371s-13.034-35.67-12.444-54.5,14.8-20.812,14.8-20.812,6.115,1.448,9.226,6.651,3.218,14.161,3.218,14.161,2.789,36.045,5.364,39.693c1.241,1.758,13.517,3,23.386,4.077s21.241-2.146,21.241-2.146a14.712,14.712,0,0,0,1.288,8.153A33.725,33.725,0,0,0,2735.092,669.886Z" transform="translate(-2588.095 -500.013)" fill="url(#linear-gradient-8)"/>
      <path id="right_hand" data-name="right hand" d="M2940.733,735.769a16,16,0,0,1-5.967-6.348c-1.936-4.094-1.777-10.03-1.777-10.03a33.037,33.037,0,0,0,3.047-5.713,18.776,18.776,0,0,0,1.143-5.332s.648-3.364,1.156-5.713a8.641,8.641,0,0,1,1.7-3.682s.7-4.443,1.523-7.363a16.061,16.061,0,0,1,1.777-4.316h1.523a12.9,12.9,0,0,1,2.031-3.555c.984-.889,1.7.471,1.7.471s1.759-1.994,2.553-.979-.69,2.781-.69,2.781a5.883,5.883,0,0,0-.453,1.728,14.511,14.511,0,0,0,0,2.346s2.08-1.629,2.793-1.143c.429.292.5.713.444,1.578s-1.317,1.047-1.481,1.883c-.136.691-.628,2.236-.628,2.236l-1.013,2.585s-.731,2.35-1.525,5.429a28.206,28.206,0,0,0-.621,6.983,22.154,22.154,0,0,0,3.174-3.3,34.73,34.73,0,0,0,2.792-4.444s1.651-.857,1.144,1.9a30.579,30.579,0,0,1-3.174,9.141c-1.9,3.682-.762,9.268-.762,9.268s-.571,6.633-3.174,10.03S2940.733,735.769,2940.733,735.769Z" transform="translate(-2794.225 -565.63)" fill="url(#linear-gradient-9)"/>
      <path id="face" d="M2633.3,271.719s9.294,8.285,11.439,12.411,11.718,1.816,13.038,3.466.865,6.813.865,6.813,3.816.585,4.514,1.436.4,4.459.4,4.459a1.99,1.99,0,0,1,1.485,1.155,6.647,6.647,0,0,1,0,2.806s3.313,2.944,3.519,5.668-2.694,5.225-2.694,5.225-5.56,10.79-7.375,13.6-13.335-1.867-13.335-1.867-9.711-6.736-11.692-11.728,4.675-8.747,4.675-8.747-7.529-4.959-8.519-16.512S2633.3,271.719,2633.3,271.719Z" transform="translate(-2572.999 -268.324)" fill="#f3c297"/>
      <path id="left_hand" data-name="left hand" d="M2758.931,496.892l-5.712-9.522-.762-7.744a61.582,61.582,0,0,0,5.332-11.045,46.405,46.405,0,0,0,2.158-11.045,52.009,52.009,0,0,0,3.554-8.887,66.925,66.925,0,0,0,1.9-10.157s.7-1.4,1.269-1.4,1.016,1.4,1.016,1.4.73-1.523,1.4-.889,1.142,4.063,1.142,4.063a11.759,11.759,0,0,1,0,3.555,41.758,41.758,0,0,1-1.142,5.078l-1.4,2.285s1.492-1.365,2.539-.762.889,3.047.889,3.047a39.127,39.127,0,0,0-2.031,8.125,41.176,41.176,0,0,0,0,8.506,7.24,7.24,0,0,1-1.4,3.174,11.316,11.316,0,0,1-3.173,2.412l-2.413,2.539Z" transform="translate(-2662.079 -388.115)" fill="url(#linear-gradient-10)"/>
      <path id="hair" d="M2483.64,262.828s-5.023-6.872-24.1-1.155-28.691,16.423-31.028,21.9a62.227,62.227,0,0,0-5.942,27.121c0,13.575,5.942,27.562,5.942,27.562s5.978,6.478,5.565,12.378-.876,8.466-.876,8.466-1.921,14.606,5.217,19.475,18.925,0,18.925,0,8.33-10.6,15.138-17.74c2.648-2.777,11.6-9.556,15.611-11.192,6.125-2.5,9.292-2.365,9.292-2.365s6.336-10.4,2.871-15.844-4.753-8.9-8.962-13.809-6.766-7.344-6.766-10.893.018-.949,2.081-3.3,1.485-6.107,1.485-6.107a25.137,25.137,0,0,1-8.252-17.99C2479.679,267.945,2483.64,262.828,2483.64,262.828Z" transform="translate(-2422.574 -259.401)" fill="url(#linear-gradient-11)"/>
    </g>
    <g id="jelly1" transform="translate(1258.753 581.638) rotate(-14)">
      <path id="Path_39-2" data-name="Path 39" d="M11.313,8.735,7.569,9.983a13.681,13.681,0,0,0,2,3.495c1,1,5.242,4.743,5.242,4.743s1.248,1,2,0,2.5-4.743,3.245-4.743,2.746-2,3.745,0,3.495,3.744,1.5,4.743-5.492,2.746-6.241,3.245-6.49,4.743-6.49,4.743a12.951,12.951,0,0,0,0,3.245c.25,1.248,2.247,2.5,2.247,3.994s-2.247,3.495-2.247,3.495,7.239.749,8.987,4.493-1,4.244-1.5,3.744-3.245-3.744-3.245-3.744-1.5,2.746-2,3.744.25,3.994,2,6.241,1.5,4.244,3.245,4.244,3.5-2.5,5.242-2.746,3.245-1.5,4.992-1.5a8.906,8.906,0,0,1,4.743,1.5c1,.749,1.747,1.747,0,2.746s-.5,2.247-4.743,1.747-5.492-.749-6.49,0-4.243,1.747-2.247,3,1.5,1,2.247,2.746,2.746,3.245,0,3.994-3-1-4.743,1.5-2,4.244,1,4.493,3.745-1.248,3.745,0-1.5,3.495-2.247,4.244-1.748-.749-2.5,3,6.241,5.492,6.241,5.492,4.244,3.245,1.747,6.241,0,1-7.988,1.747-10.734-3.744-11.483,0-3.495,4.743,0,7.489,4.743,6.241,7.239,9.736.25,1.5,2,5.492-1,4.743-2,6.49-3.495,0-3.495,4.244.25,7.239,1.248,9.736,1.748,3.744-1.248,6.241-5.492,2.5-7.239,3.994-6.74,0-2.247,3,6.74,2.746,7.739,2.5,3.245-.749,4.243-2.5,2-3.744,3-4.244.5-1.5,4.743,0,6.99,1.248,5.492-2.746-5.492-7.239-5.492-10.984-2.5-2.247,1.248-4.993,6.241-4.993,7.489-4.244,3.745,3,2.5,0-.25-2.247-2.5-5.492-8.487-3.245-3.245-6.49,5.242-4.244,7.988-3.994,2.746,3.744,4.493,0,3-2,2.5-5.742-1.5-7.739-1.248-9.236.5-1.248,2.746-3.245,3.5-4.493,2.5-6.49-.5-3.744-2.5-4.993-3.495.5-3.994-4.244-1-5.742-1-8.987,1-3.245,0-5.242-2-5.242,0-3.245,1.5-1.747,3.495,3.245-.749,5.991,1.5,8.238,5.242,5.991,6.74,3.495,3-1.248,1.248-6.49-2.5-5.242-2.5-9.486,7.739-3.245,1.248-7.489-8.487-7.239-8.238-10.235-2.746-1.5,1.5-3.495S34.182,31.7,36.179,30.7s3.994-1.248,4.743-4.493-.5-4.493,0-5.991-1.748-.5,0-4.244,2.746-3.994,3-5.991,5.492-1.248-1-3.744,7.586-2.5,6.088-3.744S44.015-1,42.018.5s-2-.5-2.5,2,3.745-.5,0,4.993-9.486,2.5-10.484,2.5-.5-.749-2-2.5,1.747-3.744-1.747-3.245-4.743.749-6.241,2-2.746,2.5-4.243,2.5Z" transform="translate(6.859 44.007)" fill="#ffe7a1" opacity="0.8"/>
      <path id="Path_40-2" data-name="Path 40" d="M33.239,2.321l3.744,7.662a13.678,13.678,0,0,1-2,3.495c-1,1-5.242,4.743-5.242,4.743s-1.248,1-2,0-2.5-4.743-3.245-4.743-2.746-2-3.744,0-3.495,3.744-1.5,4.743,5.492,2.746,6.241,3.245-6.338,4.743-6.338,4.743a12.948,12.948,0,0,1,0,3.245c-.25,1.248-2.247,2.5-2.247,3.994s-1.4-.86-1.4-.86,9.236,5.1,7.489,8.848,1,4.244,1.5,3.744,3.245-3.744,3.245-3.744,1.5,2.746,2,3.744-.25,3.994-2,6.241-1.5,4.244-3.245,4.244-3.495-2.5-5.242-2.746-3.245-1.5-4.993-1.5-1.219.286-2.218,1.034.47.656,2.218,1.655-4.244,3.8,0,3.3,5.492-.749,6.49,0S25,59.16,23,60.409s-1.5,1-2.247,2.746-2.746,3.245,0,3.994,3-1,4.743,1.5,2,4.244-1,4.493-3.744-1.248-3.744,0,1.5,3.495,2.247,4.244,1.748-.749,2.5,3a15.447,15.447,0,0,1,0,6.49s-4.244,3.245-1.747,6.241-6.241,0,1.747.749,3.495-.582,4.244,3.162,3.495,4.743,0,7.489,2.5,3.079,0,6.574-.25,1.5-2,5.492,1,4.743,2,6.49,3.495,0,3.495,4.244-.25,7.239-1.248,9.736-4.743,7.489-8.987,8.987-6.99,1.248-5.492-2.746,0-6.823,0-10.568,6.99-6.907,3.245-9.652-5.242-.749-6.49,0-3.744,3-2.5,0,.249-2.247,2.5-5.492,8.487-3.245,3.245-6.49-5.242-4.244-7.988-3.994-2.746,3.744-4.493,0,9.6-4.445,10.1-8.189,1.5-7.739,1.248-9.236,2.593-3.245.347-5.242-3.5-4.493-2.5-6.49.5-3.744,2.5-4.993.4,2.5.9-2.247S6.029,67.4,6.029,64.153s-1-3.245,0-5.242,2-5.242,0-3.245-1.04-3.334-1.04-7.577-6.49-4.244,0-8.487-2.247-1.5-2.5-4.493,12.232-1.5,7.988-3.495-3.495-1.747-5.492-2.746S.995,27.619.246,24.373s.5-4.493,0-5.991,14.575-.5,12.828-4.244-2.746-3.994-3-5.991-3.2-4.4-1.706-5.653S10.158-1,12.155.5s2-.5,2.5,2-3.745-.5,0,4.993-.135,2.5.863,2.5.5-.749,2-2.5-1.748-3.744,1.747-3.245,4.743.749,6.241,2,2.746-3.918,4.244-3.918Z" transform="translate(51.602 39.675) rotate(7)" fill="#ffe7a1" opacity="0.8"/>
      <path id="Path_29-2" data-name="Path 29" d="M0,0A86.419,86.419,0,0,1,9.908,14.767a54.482,54.482,0,0,1,4.686,14.728s4.657,5.6,4.417,18.127S15.554,79.5,15.554,79.5a263.341,263.341,0,0,0-.96,31.108,267.685,267.685,0,0,0,3.265,31.108" transform="translate(7.862 44.966)" fill="none" stroke="#ffb925" stroke-width="3"/>
      <path id="Path_30-2" data-name="Path 30" d="M0,0S9.985,3.84,14.018,12.866,16.9,36.1,16.9,36.1s1.824,17.138,2.112,30.34a160.015,160.015,0,0,1-.96,22.467" transform="translate(10.55 46.118)" fill="none" stroke="#ffb925" stroke-width="3"/>
      <path id="Path_31-2" data-name="Path 31" d="M12.1,0S8.52,1.79,9.344,3.636s6.048,3.75,6.048,3.75a31.933,31.933,0,0,1,4.772,10.34,100.307,100.307,0,0,1,2.5,15.907s1.506,7.414,1.25,21.248S21.64,88.967,21.64,88.967s-.029,12.129-.682,24.656-.4,16.589-1.931,25.452-11.738,9.049-11.738,9.049c-.532,1.337-6.865-1.436-7.263-8.14s3.863-13.521,3.863-13.521L10.252,112.6a8.19,8.19,0,0,0,1.932-5.795c-.369-3.238-3.182-4.886-3.409-7.158s1.363-2.216,2.5-1.932,2.045,3.068,2.045,3.068" transform="translate(11.979 45.66)" fill="none" stroke="#ffb925" stroke-width="3"/>
      <path id="Path_32-2" data-name="Path 32" d="M.019,0A4.961,4.961,0,0,0,1.091,3.456,18.327,18.327,0,0,0,5.316,6.913s8.789,22.179,7.677,30.666S6.232,50.934,6.616,65.288,7.442,77.741,9.362,84.51,18.417,107.1,19.522,113.1s1.1,15.986,0,19.779-6,8.929-6.529,12.674a36.221,36.221,0,0,0,0,8.065" transform="translate(32.695 46.118)" fill="none" stroke="#ffb925" stroke-width="3"/>
      <path id="Path_33-2" data-name="Path 33" d="M10.229,0s-2.74,1.152-1.4,3.264S15.6,9.6,16.706,33.028,13.25,96.972,13.25,96.972s.291,15.89-3.021,29.572A100.983,100.983,0,0,1,0,151.7" transform="translate(36.858 47.078)" fill="none" stroke="#ffb925" stroke-width="3"/>
      <path id="Path_34-2" data-name="Path 34" d="M4.539,0S3.1.007,2.619,2.762a44.479,44.479,0,0,0,0,8.257,158.548,158.548,0,0,0,.96,18.818C4.731,40.351,7.227,53.073,7.227,53.073s2.4,20.355,2.688,31.876-1.536,14.21-1.536,14.21-.144,11.377-2.688,16.514-4.935,2.5-5.525-1.492.336-4.195,3.84-10.34a23.849,23.849,0,0,1,8.214-8.715" transform="translate(58.242 45.66)" fill="none" stroke="#ffb925" stroke-width="3"/>
      <path id="Path_35-3" data-name="Path 35" d="M12.482,0s-3.6,3.985-5.569,16.13S4.281,33.412,3.9,45.894s6.473,19.491,5.321,45.318S0,151.891,0,151.891" transform="translate(63.876 44.965)" fill="none" stroke="#ffb925" stroke-width="3"/>
      <path id="Path_36" data-name="Path 36" d="M28.036,0s-3.5,3.12-5.185,14.978,3.455,17.666,2.495,31.876-7.489,11.714-6.335,24.963-2.025,14.83-9.411,16.9-9.615,11-9.6,16.027,2.494,28.508,0,38.7" transform="translate(54.14 41.509)" fill="none" stroke="#ffb925" stroke-width="3"/>
      <path id="Path_37-2" data-name="Path 37" d="M22.525,0a7.893,7.893,0,0,0-1.978,4.993c0,2.928,1.978,6.721,1.978,6.721S27.666,42.053,24,67.977,13.312,90.251,7.681,110.414A284.132,284.132,0,0,0,0,146.514" transform="translate(33.786 44.965)" fill="none" stroke="#ffb925" stroke-width="3"/>
      <path id="Path_38-2" data-name="Path 38" d="M16.514,0a31.18,31.18,0,0,0-6.145,12.1C8.593,19.3,9.409,28.8,9.409,28.8s3.648,17.378,4.416,28.228S12.481,72.2,12.481,72.2A61.41,61.41,0,0,1,9.409,86.795C6.913,93.516,5.233,98.94,4.8,110.03a67.506,67.506,0,0,0,2.88,21.123C8.977,139.169,0,154.2,0,154.2" transform="translate(71.941 39.781)" fill="none" stroke="#ffb925" stroke-width="3"/>
      <path id="Path_28-2" data-name="Path 28" d="M7.12,18.049S15.928,10.171,22.456,7.1,39.355.224,49.34.032,68.763.319,81.984,7.1s14.21,16.95,14.21,16.95-.852,6.823-3.649,11.315a21.612,21.612,0,0,1-6.39,6.652,17.42,17.42,0,0,1-5.085,3.051,8.551,8.551,0,0,1-4.746,0,22.275,22.275,0,0,1-8.416,1.956,26.214,26.214,0,0,1-8.873-1.956,7.069,7.069,0,0,1-4.068,3.051c-2.8.763-7.119,0-7.119,0s-3.932,2.2-7.322,2.2a11.51,11.51,0,0,1-6.238-2.2s-5.339,3.814-8.814,3.051-5.085-6.1-5.085-6.1S9.879,51.848,2.42,42.017,7.12,18.049,7.12,18.049Z" transform="translate(0 0)" fill="url(#linear-gradient-12)"/>
      <path id="Path_41-2" data-name="Path 41" d="M5.405,0A21.848,21.848,0,0,1,4.17,5.377,17.677,17.677,0,0,1,1.481,9.793S-.535,11.665.137,14.018,4.17,19.2,4.17,19.2" transform="translate(6.573 27.301)" fill="none" stroke="#ffb925" stroke-width="2"/>
      <path id="Path_42-2" data-name="Path 42" d="M8.27,0A12.225,12.225,0,0,0,5.006,3.456,10.727,10.727,0,0,0,3.854,7.873s-3.6,3.12-3.841,6.913,2.881,8.257,2.881,8.257" transform="translate(2.281 21.541)" fill="none" stroke="#ffb925" stroke-width="2"/>
      <path id="Path_43-2" data-name="Path 43" d="M0,0A11.907,11.907,0,0,1,3.514,3.648a5.062,5.062,0,0,1,0,3.84s-.672,4.032,0,6.529,4.224,5.377,4.224,5.377" transform="translate(80.198 20.578)" fill="none" stroke="#ffb925" stroke-width="2"/>
      <path id="Path_44-2" data-name="Path 44" d="M3.975,14.949a6.338,6.338,0,0,1-1.479-3.3,4.94,4.94,0,0,1,1.479-2.99,7.33,7.33,0,0,0,0-4.878C2.982,1.613,0,0,0,0" transform="translate(72.382 30.276)" fill="none" stroke="#ffb925" stroke-width="2"/>
      <path id="Path_45-2" data-name="Path 45" d="M0,0S5.062,3.408,7.133,6.529a7.336,7.336,0,0,1,1.152,5.953A16.778,16.778,0,0,0,7.133,17.09a2.5,2.5,0,0,0,1.152,2.3" transform="translate(84.067 15.394)" fill="none" stroke="#ffb925" stroke-width="2"/>
      <path id="Path_46" data-name="Path 46" d="M4.184,0A18.464,18.464,0,0,0,.418,5.281a7.134,7.134,0,0,0,0,4.8L1.763,14.69" transform="translate(15.893 31.238)" fill="none" stroke="#ffb925" stroke-width="2"/>
    </g>
    <g id="jelly2" transform="translate(1176.563 606.588) rotate(9)">
      <path id="Path_39-3" data-name="Path 39" d="M47.1,6.864l4.246.981a10.48,10.48,0,0,1-2.265,2.746c-1.132.785-5.945,3.727-5.945,3.727s-1.415.785-2.265,0-2.831-3.727-3.68-3.727-3.114-1.569-4.246,0-3.963,2.943-1.7,3.727,6.228,2.158,7.077,2.55,7.36,3.727,7.36,3.727a7.086,7.086,0,0,1,0,2.55c-.283.981-2.548,1.962-2.548,3.139s2.548,2.746,2.548,2.746-8.209.588-10.191,3.531,1.132,3.335,1.7,2.943,3.68-2.943,3.68-2.943,1.7,2.158,2.265,2.943-.283,3.139-2.265,4.9-1.7,3.335-3.68,3.335-3.963-1.962-5.945-2.158-3.68-1.177-5.662-1.177a13.379,13.379,0,0,0-5.379,1.177c-1.132.589-1.982,1.373,0,2.158s.566,1.766,5.379,1.373,6.228-.589,7.36,0,4.813,1.373,2.548,2.354-1.7.785-2.548,2.158-3.114,2.55,0,3.139,3.4-.785,5.379,1.177,2.265,3.335-1.132,3.531-4.246-.981-4.246,0,1.7,2.746,2.548,3.335,1.982-.589,2.831,2.354-7.077,4.316-7.077,4.316-4.813,2.55-1.982,4.9,0,.785,9.059,1.373,12.172-2.943,13.022,0,3.964,3.727,0,5.885-5.379,4.9-8.21,7.651-.283,1.177-2.265,4.316,1.132,3.727,2.265,5.1,3.964,0,3.964,3.335-.283,5.689-1.416,7.651-1.982,2.943,1.416,4.9,6.228,1.962,8.21,3.139,7.644,0,2.548,2.354-7.643,2.158-8.776,1.962-3.68-.589-4.812-1.962-2.265-2.943-3.4-3.335-.566-1.177-5.378,0-7.927.981-6.228-2.158,6.228-5.689,6.228-8.632,2.831-1.766-1.416-3.923S27,96.123,25.588,96.712s-4.246,2.354-2.831,0,.283-1.766,2.831-4.316,9.625-2.55,3.68-5.1-5.945-3.335-9.059-3.139-3.114,2.943-5.1,0-3.4-1.569-2.831-4.512,1.7-6.081,1.415-7.258-.566-.981-3.114-2.55-3.963-3.531-2.831-5.1.566-2.943,2.831-3.923,3.963.392,4.529-3.335,1.132-4.512,1.132-7.062-1.132-2.55,0-4.12,2.265-4.12,0-2.55-1.7-1.373-3.963,2.55.849,4.708-1.7,6.474-5.945,4.708-7.643,2.746-3.4-.981-1.415-5.1S4.356,46.3,4.356,42.96s-8.776-2.55-1.415-5.885,9.625-5.689,9.342-8.043,3.114-1.177-1.7-2.746,10.584-1.373,8.32-2.158-4.53-.981-5.379-3.531.566-3.531,0-4.708,1.982-.392,0-3.335-3.114-3.139-3.4-4.708S3.9,6.864,11.26,4.9s-8.6-1.962-6.9-2.943S10.018-.786,12.283.391,14.547,0,15.113,1.96s-4.246-.392,0,3.923S25.871,7.845,27,7.845s.566-.589,2.265-1.962-1.982-2.943,1.982-2.55,5.379.589,7.077,1.569,3.114,1.962,4.812,1.962Z" transform="translate(20.956 22.204)" opacity="0.8" fill="url(#linear-gradient-13)"/>
      <path id="Path_40-3" data-name="Path 40" d="M38.383,114.091l3.9-5.855a11.965,11.965,0,0,0-2.4-2.829c-1.17-.827-6.121-3.948-6.121-3.948s-1.452-.837-2.254-.086-2.615,3.616-3.46,3.584-3.014,1.45-4.227-.16-4.105-3.089-1.894-3.788S28,99.09,28.827,98.73s-7.357-4-7.357-4a7.114,7.114,0,0,0-.139-2.548c-.335-.991-2.643-2.056-2.707-3.232s-1.544.615-1.544.615,10.207-3.611,8.074-6.625.945-3.289,1.53-2.875,3.824,3.079,3.824,3.079,1.573-2.091,2.094-2.854-.453-3.146-2.522-4.985-1.873-3.4-3.845-3.471-3.838,1.81-5.8,1.931-3.6,1.037-5.571.962-1.388-.276-2.548-.907.5-.5,2.432-1.2-4.953-3.166-.141-2.592,6.231.823,7.326.278,4.715-1.19,2.408-2.255S22.607,67.2,21.687,65.8s-3.239-2.665-.171-3.136,3.424.912,5.29-.973,2.072-3.246-1.32-3.57-4.173.819-4.227-.16,1.541-2.679,2.354-3.235,2,.663,2.689-2.245a8.7,8.7,0,0,0-.278-5.1s-4.929-2.729-2.24-4.974-7.044-.267,1.94-.513,3.97.607,4.655-2.3,3.742-3.574-.321-5.879,2.686-2.31-.282-5.161-.346-1.187-2.49-4.4.924-3.681,1.976-5.01,3.945.15,3.763-3.182-.592-5.694-1.826-7.7A21.214,21.214,0,0,0,20.672.833C15.817-.524,12.729-.446,14.59,2.754s.292,5.357.453,8.3,8.186,5.721,4.077,7.717-5.885.363-7.326-.278-4.355-2.512-2.818-.107.378,1.774,3.053,4.418,9.719,2.911,3.941,5.234-5.735,3.107-8.846,2.793-3.26-3.057-5.072-.193S13.076,34.535,13.8,37.5s2.022,6.139,1.8,7.3,3.066,2.659.616,4.13-3.752,3.378-2.54,4.988.724,2.961,3.032,4.026.347-1.942,1.114,1.8S4.881,61.837,5.02,64.384s-.988,2.5.225,4.115,2.479,4.2.139,2.548-1.031,2.572-.849,5.9S-2.61,80,4.9,83.614s-2.472,1.08-2.625,3.42,13.871,1.7,9.167,3.086-3.87,1.222-6.081,1.92S.9,92.85.2,95.365s.756,3.549.257,4.7,16.474,1.017,14.662,3.881-2.928,3.018-3.125,4.575-3.427,3.321-1.683,4.365,2.165,2.82,4.355,1.73,2.276.477,2.732-1.461-4.205.232-.214-3.919-.26-1.966.868-1.923.6.609,2.361,2.045-1.812,2.865,2.111,2.623,5.322-.385,6.959-1.3,3.267,3.193,4.958,3.257Z" transform="translate(65.477 130.808) rotate(173)" opacity="0.8" fill="url(#linear-gradient-13)"/>
      <path id="Path_29-3" data-name="Path 29" d="M21.568,0s-7.1,5.606-11.236,11.2A32.042,32.042,0,0,0,5.018,22.367S-.262,26.612.01,36.114,3.93,60.287,3.93,60.287a134.045,134.045,0,0,1,1.088,23.59,139.04,139.04,0,0,1-3.7,23.59" transform="translate(58.182 23.291)" fill="none" stroke="#ff555a" stroke-width="3"/>
      <path id="Path_30-3" data-name="Path 30" d="M21.607,0S10.283,4.355,5.71,14.59,2.444,40.939,2.444,40.939.375,60.374.049,75.345a181.418,181.418,0,0,0,1.089,25.478" transform="translate(55.094 18.618)" fill="none" stroke="#ff555a" stroke-width="3"/>
      <path id="Path_31-3" data-name="Path 31" d="M13.434,0s4.055,1.388,3.121,2.819S9.7,5.727,9.7,5.727a22.968,22.968,0,0,0-5.412,8.017A55.246,55.246,0,0,0,1.451,26.078S-.257,31.827.033,42.554,2.61,68.985,2.61,68.985s.032,9.4.773,19.118.451,12.863,2.191,19.735,13.311,7.016,13.311,7.016c.6,1.036,7.786-1.113,8.236-6.312S22.74,98.059,22.74,98.059L15.525,87.31s-2.609-1.982-2.19-4.493,3.608-3.788,3.865-5.55-1.546-1.718-2.835-1.5-2.319,2.379-2.319,2.379" transform="translate(47.931 24.078)" fill="none" stroke="#ff555a" stroke-width="3"/>
      <path id="Path_32-3" data-name="Path 32" d="M23.055,0a3.072,3.072,0,0,1-1.216,2.722,21.355,21.355,0,0,1-4.791,2.722S7.081,22.908,8.343,29.592s7.666,10.517,7.231,21.82-.936,9.806-3.114,15.136S2.191,84.338.939,89.063s-1.252,12.588,0,15.575,6.805,7.031,7.4,9.98a19.876,19.876,0,0,1,0,6.351" transform="translate(37.315 24.597)" fill="none" stroke="#ff555a" stroke-width="3"/>
      <path id="Path_33-3" data-name="Path 33" d="M7.541,0s3.107.9,1.583,2.556S1.448,7.518.2,25.863s3.92,50.073,3.92,50.073S3.785,88.379,7.541,99.093s11.6,19.7,11.6,19.7" transform="translate(37.216 25.686)" fill="none" stroke="#ff555a" stroke-width="3"/>
      <path id="Path_34-3" data-name="Path 34" d="M8.71,0s1.633.008,2.178,3.132,0,9.364,0,9.364A179.844,179.844,0,0,1,9.8,33.837C8.493,45.759,5.662,60.186,5.662,60.186S2.94,83.268,2.613,96.334s1.742,16.114,1.742,16.114.163,12.9,3.049,18.727,5.6,2.831,6.266-1.692-.381-4.757-4.355-11.726A27.045,27.045,0,0,0,0,107.875" transform="translate(22.923 0)" fill="none" stroke="#ff555a" stroke-width="3"/>
      <path id="Path_35-4" data-name="Path 35" d="M0,0S4.083,3.122,6.315,12.638,9.3,26.179,9.736,35.958,2.4,51.23,3.7,71.466s10.453,47.543,10.453,47.543" transform="translate(17.656 23.291)" fill="none" stroke="#ff555a" stroke-width="3"/>
      <path id="Path_36-2" data-name="Path 36" d="M0,0S3.974,2.38,5.88,11.426,1.962,24.9,3.05,35.743s8.493,8.936,7.185,19.044,2.3,11.313,10.672,12.891,10.9,8.395,10.886,12.226-2.829,21.748,0,29.523" transform="translate(15.896 19.371)" fill="none" stroke="#ff555a" stroke-width="3"/>
      <path id="Path_37-3" data-name="Path 37" d="M3.17,0S5.413,1.591,5.413,3.848,3.17,9.027,3.17,9.027s-5.83,23.381-1.677,43.359S13.617,69.552,20,85.091a159.411,159.411,0,0,1,8.711,27.821" transform="translate(31.373 23.291)" fill="none" stroke="#ff555a" stroke-width="3"/>
      <path id="Path_38-3" data-name="Path 38" d="M0,0A23.8,23.8,0,0,1,6.968,9.542c2.014,5.68,1.089,13.177,1.089,13.177S3.92,36.426,3.049,44.983,4.573,56.949,4.573,56.949A35.817,35.817,0,0,0,8.057,68.46a38.073,38.073,0,0,1,5.226,18.327,38.7,38.7,0,0,1-3.266,16.661c-1.47,6.323,8.71,18.175,8.71,18.175" transform="translate(8.775 17.411)" fill="none" stroke="#ff555a" stroke-width="3"/>
      <path id="Path_28-3" data-name="Path 28" d="M82.1,20.468S73.985,11.534,67.967,8.05,52.391.254,43.187.036,25.285.361,13.1,8.05,0,27.272,0,27.272.785,35.01,3.363,40.1a22.658,22.658,0,0,0,5.89,7.544,15.99,15.99,0,0,0,4.688,3.46,6.48,6.48,0,0,0,4.374,0,17.564,17.564,0,0,0,7.757,2.218,20.546,20.546,0,0,0,8.179-2.218A7.034,7.034,0,0,0,38,54.568c2.578.865,6.562,0,6.562,0s3.625,2.495,6.75,2.495,5.75-2.495,5.75-2.495,4.922,4.325,8.124,3.46,4.688-6.92,4.688-6.92,9.687,7.689,16.561-3.46S82.1,20.468,82.1,20.468Z" transform="translate(0 0)" fill="url(#linear-gradient-13)"/>
      <path id="Path_41-3" data-name="Path 41" d="M0,0A24.786,24.786,0,0,0,1.4,6.1,20.051,20.051,0,0,0,4.45,11.106S6.737,13.229,5.975,15.9,1.4,21.776,1.4,21.776" transform="translate(75.082 21.649)" fill="none" stroke="#ff555a" stroke-width="2"/>
      <path id="Path_42-3" data-name="Path 42" d="M0,0A13.862,13.862,0,0,1,3.7,3.92,12.163,12.163,0,0,1,5.008,8.928s4.083,3.539,4.355,7.839S6.1,26.131,6.1,26.131" transform="translate(76.702 24.428)" fill="none" stroke="#ff555a" stroke-width="2"/>
      <path id="Path_43-3" data-name="Path 43" d="M8.775,0S5.787,2.014,4.791,4.137a5.741,5.741,0,0,0,0,4.355s.762,4.573,0,7.4S0,21.994,0,21.994" transform="translate(9.363 23.337)" fill="none" stroke="#ff555a" stroke-width="2"/>
      <path id="Path_44-3" data-name="Path 44" d="M.5,16.953s1.677-1.963,1.677-3.747A5.6,5.6,0,0,0,.5,9.815S-.626,6.737.5,4.283,5.009,0,5.009,0" transform="translate(17.678 29.795)" fill="none" stroke="#ff555a" stroke-width="2"/>
      <path id="Path_45-3" data-name="Path 45" d="M9.627,0S3.886,3.865,1.537,7.4A8.32,8.32,0,0,0,.23,14.154a19.03,19.03,0,0,1,1.306,5.226A2.831,2.831,0,0,1,.23,21.994" transform="translate(4.125 17.457)" fill="none" stroke="#ff555a" stroke-width="2"/>
      <path id="Path_46-2" data-name="Path 46" d="M0,0S3.2,3.13,4.271,5.988a8.09,8.09,0,0,1,0,5.444L2.746,16.659" transform="translate(69.425 21.761)" fill="none" stroke="#ff555a" stroke-width="2"/>
    </g>
    <g id="solid-button-2" data-name="solid-button" transform="translate(-1326 759)">
      <g transform="matrix(1, 0, 0, 1, 1326, -759)" filter="url(#Rectangle_2-2)">
        <rect id="Rectangle_2-4" data-name="Rectangle 2" width="311.885" height="64.953" rx="32" transform="translate(343 792)" fill="url(#linear-gradient-16)"/>
      </g>
      <text id="SIGN_UP-2" data-name="SIGN UP" transform="translate(1825.173 75.476)" fill="#fff" font-size="26" font-family="Roboto-Bold, Roboto" font-weight="700"><tspan x="-49.994" y="0">SIGN UP</tspan></text>
    </g>
    <g id="Nav_bar_2" data-name="Nav bar 2" transform="translate(150 27)">
      <path id="Path_210" data-name="Path 210" d="M16.945,0h128.47c9.359,0,16.945,9.626,16.945,21.5S154.774,43,145.415,43H16.945C7.587,43,0,33.374,0,21.5S7.587,0,16.945,0Z" transform="translate(1469.254 10)" fill="url(#linear-gradient-17)"/>
      <text id="CONTACT" transform="translate(1309 44)" fill="#707bff" font-size="32" font-family="Roboto-Medium, Roboto" font-weight="500"><tspan x="0" y="0">CONTACT</tspan></text>
      <text id="ZamQuests" transform="translate(0 50)" fill="#707bff" font-size="48" font-family="Roboto-Bold, Roboto" font-weight="700"><tspan x="0" y="0">ZamQuests</tspan></text>
      <text id="MUSEUM" transform="translate(923 44)" fill="#707bff" font-size="32" font-family="Roboto-Medium, Roboto" font-weight="500"><tspan x="0" y="0">MUSEUM</tspan></text>
      <text id="TEACHER" transform="translate(1113 44)" fill="#707bff" font-size="32" font-family="Roboto-Medium, Roboto" font-weight="500"><tspan x="0" y="0">TEACHER</tspan></text>
      <text id="SIGNUP" transform="translate(1508 44)" fill="#fff" font-size="32" font-family="Roboto-Regular, Roboto"><tspan x="0" y="0">SIGNUP</tspan></text>
      <g id="more" transform="translate(1730 23)" clip-path="url(#clip-path)">
        <rect id="Rectangle_449" data-name="Rectangle 449" width="16" height="16" fill="none"/>
        <path id="Union_1" data-name="Union 1" d="M0,13.5A1.5,1.5,0,1,1,1.5,15,1.5,1.5,0,0,1,0,13.5Zm0-6A1.5,1.5,0,1,1,1.5,9,1.5,1.5,0,0,1,0,7.5Zm0-6A1.5,1.5,0,1,1,1.5,3,1.5,1.5,0,0,1,0,1.5Z" transform="translate(7 1)" fill="#2699fb"/>
      </g>
    </g>
    <g id="User" transform="translate(1627 46)">
      <path id="Union_1-2" data-name="Union 1" d="M0,24V21c0-3.3,5.625-6,12.5-6S25,17.7,25,21v3ZM6.249,6A6.129,6.129,0,0,1,12.5,0a6.129,6.129,0,0,1,6.249,6A6.129,6.129,0,0,1,12.5,12,6.129,6.129,0,0,1,6.249,6Z" fill="#fff"/>
    </g>
  </g>
</svg>
