<svg xmlns="http://www.w3.org/2000/svg" xmlns:xlink="http://www.w3.org/1999/xlink" width="371.156" height="380.206" viewBox="0 0 371.156 380.206">
  <defs>
    <filter id="Path_9076" x="0" y="0" width="371.156" height="380.206" filterUnits="userSpaceOnUse">
      <feOffset dx="4" dy="4" input="SourceAlpha"/>
      <feGaussianBlur stdDeviation="0.5" result="blur"/>
      <feFlood flood-opacity="0.161"/>
      <feComposite operator="in" in2="blur"/>
      <feComposite in="SourceGraphic"/>
    </filter>
    <filter id="Path_9047" x="180.055" y="85.555" width="47.747" height="48.051" filterUnits="userSpaceOnUse">
      <feOffset dx="4" dy="4" input="SourceAlpha"/>
      <feGaussianBlur stdDeviation="0.5" result="blur-2"/>
      <feFlood flood-opacity="0.161"/>
      <feComposite operator="in" in2="blur-2"/>
      <feComposite in="SourceGraphic"/>
    </filter>
    <filter id="Path_9048" x="68.792" y="183.452" width="87.5" height="87.5" filterUnits="userSpaceOnUse">
      <feOffset dx="5" dy="5" input="SourceAlpha"/>
      <feGaussianBlur stdDeviation="0.5" result="blur-3"/>
      <feFlood flood-opacity="0.161"/>
      <feComposite operator="in" in2="blur-3"/>
      <feComposite in="SourceGraphic"/>
    </filter>
  </defs>
  <g id="Group_8637" data-name="Group 8637" transform="translate(-1679.797 -9659.548)">
    <g transform="matrix(1, 0, 0, 1, 1679.8, 9659.55)" filter="url(#Path_9076)">
      <path id="Path_9076-2" data-name="Path 9076" d="M226.045,0,174.017,299.47,83.147,187.043,0,70.892Z" transform="matrix(-0.77, -0.64, 0.64, -0.77, 173.16, 374.71)" fill="#e6effe"/>
    </g>
    <g transform="matrix(1, 0, 0, 1, 1679.8, 9659.55)" filter="url(#Path_9047)">
      <g id="Path_9047-2" data-name="Path 9047" transform="matrix(1, 0.09, -0.09, 1, 183.48, 85.55)" fill="none">
        <path d="M38.97,0,30,39.3,14.334,24.549,0,9.3Z" stroke="none"/>
        <path d="M 34.97069549560547 4.039081573486328 L 5.731388092041016 11.02017211914063 L 16.45742988586426 22.42733955383301 L 28.24139022827148 33.52659225463867 L 34.97069549560547 4.039081573486328 M 38.96958160400391 0 L 30.0000114440918 39.30426025390625 L 14.33423042297363 24.54874038696289 L 0 9.30426025390625 L 38.96958160400391 0 Z" stroke="none" fill="#f3b443"/>
      </g>
    </g>
    <g transform="matrix(1, 0, 0, 1, 1679.8, 9659.55)" filter="url(#Path_9048)">
      <path id="Path_9048-2" data-name="Path 9048" d="M40.5,0A40.5,40.5,0,1,0,81,40.5,40.5,40.5,0,0,0,40.5,0Z" transform="translate(68.79 183.45)" fill="#ea9195"/>
    </g>
    <g id="Group_8629" data-name="Group 8629" transform="translate(1765.316 9870.902)">
      <path id="Path_8952" data-name="Path 8952" d="M-1843.689-192.1l15.961,14.263-15.961,11.758" transform="translate(1876.689 192.098)" fill="none" stroke="#fff" stroke-width="4"/>
      <path id="Path_8953" data-name="Path 8953" d="M-1827.727-192.1l-15.961,14.263,15.961,11.758" transform="translate(1843.689 192.098)" fill="none" stroke="#fff" stroke-width="4"/>
    </g>
  </g>
</svg>
