<svg xmlns="http://www.w3.org/2000/svg" xmlns:xlink="http://www.w3.org/1999/xlink" width="291.662" height="160.5" viewBox="0 0 291.662 160.5">
  <defs>
    <filter id="Path_9064" x="1.162" y="0" width="290.5" height="160.5" filterUnits="userSpaceOnUse">
      <feOffset dx="5" dy="5" input="SourceAlpha"/>
      <feGaussianBlur stdDeviation="0.5" result="blur"/>
      <feFlood flood-opacity="0.161"/>
      <feComposite operator="in" in2="blur"/>
      <feComposite in="SourceGraphic"/>
    </filter>
  </defs>
  <g id="Group_8639" data-name="Group 8639" transform="translate(-494.298 -10194)">
    <g transform="matrix(1, 0, 0, 1, 494.3, 10194)" filter="url(#Path_9064)">
      <path id="Path_9064-2" data-name="Path 9064" d="M77,0H207a77,77,0,0,1,0,154H77A77,77,0,0,1,77,0Z" transform="translate(1.16)" fill="#e8f0fd"/>
    </g>
    <path id="Path_9067" data-name="Path 9067" d="M-1792.808-422.279a35.346,35.346,0,0,0,33.684-2.8c17.082-11.2,28.563-23.522,44.244-16.242s22.122,22.4,33.883,23.242" transform="translate(2288.461 10703)" fill="none" stroke="#fff" stroke-width="6"/>
    <path id="Path_9068" data-name="Path 9068" d="M-1701-420.6s-6.795,6.721-23.876-4.48-28.563-23.522-44.244-16.242-22.122,22.4-33.883,23.242" transform="translate(2410.461 10703)" fill="none" stroke="#fff" stroke-width="6"/>
    <path id="Path_9069" data-name="Path 9069" d="M-1724.872-425.079c-17.082-11.2-28.563-23.522-44.244-16.242s-21.961,22.055-33.723,22.9" transform="translate(2505.461 10703)" fill="none" stroke="#fff" stroke-width="6"/>
    <path id="Path_9074" data-name="Path 9074" d="M-1753.242-491.446h29.963" transform="translate(2298.461 10703)" fill="none" stroke="#fff" stroke-width="3"/>
    <path id="Path_9070" data-name="Path 9070" d="M-1753.243-491.446h72.7" transform="translate(2298.461 10733)" fill="none" stroke="#fff" stroke-width="3"/>
    <path id="Path_9073" data-name="Path 9073" d="M-1753.243-491.446h48.725" transform="translate(2298.461 10718)" fill="none" stroke="#2550b9" stroke-width="3"/>
    <g id="Path_9065" data-name="Path 9065" transform="translate(702.461 10317)" fill="none">
      <path d="M11,0a11.158,11.158,0,0,1,7.256,2.732A10.815,10.815,0,0,1,22,11,11,11,0,1,1,11,0Z" stroke="none"/>
      <path d="M 11.00000286102295 3 C 6.58879280090332 3 3.000001907348633 6.588789939880371 3.000001907348633 11 C 3.000001907348633 15.41121006011963 6.58879280090332 19 11.00000286102295 19 C 15.41121292114258 19 19.00000381469727 15.41121006011963 19.00000381469727 11 C 19.00000381469727 8.680299758911133 17.98240280151367 6.398229598999023 16.34431266784668 5.044370651245117 L 16.34064292907715 5.041339874267578 L 16.33699226379395 5.038299560546875 C 14.7110424041748 3.685779571533203 12.9154224395752 3 11.00000286102295 3 M 11.00000286102295 0 C 13.66697311401367 0 16.11226272583008 0.9491195678710938 18.25550270080566 2.731939315795898 C 20.45003318786621 4.545690536499023 22.00000381469727 7.591839790344238 22.00000381469727 11 C 22.00000381469727 17.07513046264648 17.07513236999512 22 11.00000286102295 22 C 4.924873352050781 22 1.9073486328125e-06 17.07513046264648 1.9073486328125e-06 11 C 1.9073486328125e-06 4.924869537353516 4.924873352050781 0 11.00000286102295 0 Z" stroke="none" fill="#2550b9"/>
    </g>
    <g id="Path_9072" data-name="Path 9072" transform="translate(702.461 10216)" fill="none">
      <path d="M11,0a11.158,11.158,0,0,1,7.256,2.732A10.815,10.815,0,0,1,22,11,11,11,0,1,1,11,0Z" stroke="none"/>
      <path d="M 11.00000286102295 3 C 6.58879280090332 3 3.000001907348633 6.588789939880371 3.000001907348633 11 C 3.000001907348633 15.41121006011963 6.58879280090332 19 11.00000286102295 19 C 15.41121292114258 19 19.00000381469727 15.41121006011963 19.00000381469727 11 C 19.00000381469727 8.680299758911133 17.98240280151367 6.398229598999023 16.34431266784668 5.044370651245117 L 16.34064292907715 5.041339874267578 L 16.33699226379395 5.038299560546875 C 14.7110424041748 3.685779571533203 12.9154224395752 3 11.00000286102295 3 M 11.00000286102295 0 C 13.66697311401367 0 16.11226272583008 0.9491195678710938 18.25550270080566 2.731939315795898 C 20.45003318786621 4.545690536499023 22.00000381469727 7.591839790344238 22.00000381469727 11 C 22.00000381469727 17.07513046264648 17.07513236999512 22 11.00000286102295 22 C 4.924873352050781 22 1.9073486328125e-06 17.07513046264648 1.9073486328125e-06 11 C 1.9073486328125e-06 4.924869537353516 4.924873352050781 0 11.00000286102295 0 Z" stroke="none" fill="#cc3730"/>
    </g>
    <g id="Path_9066" data-name="Path 9066" transform="translate(562.461 10317)" fill="none">
      <path d="M11,0a11.158,11.158,0,0,1,7.256,2.732A10.815,10.815,0,0,1,22,11,11,11,0,1,1,11,0Z" stroke="none"/>
      <path d="M 11.00000286102295 3 C 6.58879280090332 3 3.000001907348633 6.588789939880371 3.000001907348633 11 C 3.000001907348633 15.41121006011963 6.58879280090332 19 11.00000286102295 19 C 15.41121292114258 19 19.00000381469727 15.41121006011963 19.00000381469727 11 C 19.00000381469727 8.680299758911133 17.98240280151367 6.398229598999023 16.34431266784668 5.044370651245117 L 16.34064292907715 5.041339874267578 L 16.33699226379395 5.038299560546875 C 14.7110424041748 3.685779571533203 12.9154224395752 3 11.00000286102295 3 M 11.00000286102295 0 C 13.66697311401367 0 16.11226272583008 0.9491195678710938 18.25550270080566 2.731939315795898 C 20.45003318786621 4.545690536499023 22.00000381469727 7.591839790344238 22.00000381469727 11 C 22.00000381469727 17.07513046264648 17.07513236999512 22 11.00000286102295 22 C 4.924873352050781 22 1.9073486328125e-06 17.07513046264648 1.9073486328125e-06 11 C 1.9073486328125e-06 4.924869537353516 4.924873352050781 0 11.00000286102295 0 Z" stroke="none" fill="#2550b9"/>
    </g>
  </g>
</svg>
